<mxfile host="Electron" modified="2025-06-10T08:00:29.859Z" agent="Mozilla/5.0 (Windows NT 10.0; Win64; x64) AppleWebKit/537.36 (KHTML, like Gecko) draw.io/24.6.4 Chrome/124.0.6367.207 Electron/30.0.6 Safari/537.36" etag="plzVdzjF1UM_UmLUCI-P" version="24.6.4" type="device">
  <diagram name="Page-1" id="TS30lbH_iARxKpaacenw">
    <mxGraphModel dx="807" dy="511" grid="1" gridSize="10" guides="1" tooltips="1" connect="1" arrows="1" fold="1" page="1" pageScale="1" pageWidth="1169" pageHeight="827" math="0" shadow="0">
      <root>
        <mxCell id="0" />
        <mxCell id="1" parent="0" />
        <mxCell id="xdCx_uDlr330pJW8t3d0-2" value="extract_from_synapse" style="shape=image;verticalLabelPosition=bottom;verticalAlign=top;imageAspect=0;aspect=fixed;image=data:image/svg+xml,PHN2ZyB4bWxucz0iaHR0cDovL3d3dy53My5vcmcvMjAwMC9zdmciIGZpbGw9Im5vbmUiIHZpZXdCb3g9IjAgMCAzMiAzMyIgaGVpZ2h0PSIzMyIgd2lkdGg9IjMyIj4mI3hhOzxwYXRoIGZpbGw9ImJsYWNrIiBkPSJNOCA3LjkzNzU2QzggNy4xMDkxMyA4LjY3MTU3IDYuNDM3NTYgOS41IDYuNDM3NTZIMjEuNUMyMi4zMjg0IDYuNDM3NTYgMjMgNy4xMDkxMyAyMyA3LjkzNzU2VjEwLjkzNzZDMjMgMTEuNzY2IDIyLjMyODQgMTIuNDM3NiAyMS41IDEyLjQzNzZIOS41QzguNjcxNTcgMTIuNDM3NiA4IDExLjc2NiA4IDEwLjkzNzZWNy45Mzc1NlpNMTAgOC40Mzc1NlYxMC40Mzc2SDIxVjguNDM3NTZIMTBaTTQgNS42ODc1NkM0IDMuODkyNjMgNS40NTUwOCAyLjQzNzU2IDcuMjUgMi40Mzc1NkgyMy43NUMyNS41NDQ5IDIuNDM3NTYgMjcgMy44OTI2NCAyNyA1LjY4NzU2VjI3LjE4NzZDMjcgMjguOTgyNSAyNS41NDQ5IDMwLjQzNzYgMjMuNzUgMzAuNDM3Nkg3LjI1QzUuNDU1MDcgMzAuNDM3NiA0IDI4Ljk4MjUgNCAyNy4xODc2VjUuNjg3NTZaTTcuMjUgNC40Mzc1NkM2LjU1OTY0IDQuNDM3NTYgNiA0Ljk5NzIgNiA1LjY4NzU2VjI3LjE4NzZDNiAyNy44Nzc5IDYuNTU5NjQgMjguNDM3NiA3LjI1IDI4LjQzNzZIMjMuNzVDMjQuNDQwNCAyOC40Mzc2IDI1IDI3Ljg3NzkgMjUgMjcuMTg3NlY1LjY4NzU2QzI1IDQuOTk3MjEgMjQuNDQwNCA0LjQzNzU2IDIzLjc1IDQuNDM3NTZINy4yNVpNMjkuMjUgOC40Mzc1NkgyOFYxMi40Mzc2SDI5LjI1QzI5LjY2NDIgMTIuNDM3NiAzMCAxMi4xMDE4IDMwIDExLjY4NzZWOS4xODc1NkMzMCA4Ljc3MzM1IDI5LjY2NDIgOC40Mzc1NiAyOS4yNSA4LjQzNzU2Wk0yOCAxNC40Mzc2SDI5LjI1QzI5LjY2NDIgMTQuNDM3NiAzMCAxNC43NzMzIDMwIDE1LjE4NzZWMTcuNjg3NkMzMCAxOC4xMDE4IDI5LjY2NDIgMTguNDM3NiAyOS4yNSAxOC40Mzc2SDI4VjE0LjQzNzZaTTI5LjI1IDIwLjQzNzZIMjhWMjQuNDM3NkgyOS4yNUMyOS42NjQyIDI0LjQzNzYgMzAgMjQuMTAxOCAzMCAyMy42ODc2VjIxLjE4NzZDMzAgMjAuNzczMyAyOS42NjQyIDIwLjQzNzYgMjkuMjUgMjAuNDM3NloiLz4mI3hhOzwvc3ZnPg==;fontSize=8;" vertex="1" parent="1">
          <mxGeometry x="210" y="80" width="32" height="33" as="geometry" />
        </mxCell>
        <mxCell id="xdCx_uDlr330pJW8t3d0-3" value="EDW LH" style="shape=image;verticalLabelPosition=bottom;verticalAlign=top;imageAspect=0;aspect=fixed;image=data:image/svg+xml,PHN2ZyB4bWxucz0iaHR0cDovL3d3dy53My5vcmcvMjAwMC9zdmciIGZpbGw9Im5vbmUiIHZpZXdCb3g9IjAgMCAzMiAzMyIgaGVpZ2h0PSIzMyIgd2lkdGg9IjMyIj4mI3hhOzxwYXRoIGZpbGw9ImJsYWNrIiBkPSJNMTIuNjI2IDQuMzkwMDJDMTMuMzk3IDMuNjYxNzQgMTQuNjAzIDMuNjYxNzQgMTUuMzc0IDQuMzkwMDJMMjUuMDYxIDEzLjU0MDNDMjUuNjYwNCAxNC4xMDY0IDI2IDE0Ljg5NDEgMjYgMTUuNzE4MlYxOC42MDYyQzI1Ljc5OSAxOC40MjY0IDI1LjU3NCAxOC4yNzQgMjUuMzMwNyAxOC4xNTM4QzI0LjkxNyAxNy45NDkyIDI0LjQ2MTUgMTcuODQzMiAyNCAxNy44NDM4VjE1LjcxODJDMjQgMTUuNDQzNSAyMy44ODY4IDE1LjE4MSAyMy42ODcgMTQuOTkyMkwxNCA1Ljg0MTk4TDQuMzEyOTkgMTQuOTkyMkM0LjExMzIgMTUuMTgxIDQgMTUuNDQzNSA0IDE1LjcxODJWMjYuODQ2NkM0IDI3LjM5ODMgNC40NDc3MiAyNy44NDU2IDUgMjcuODQ1Nkg4Ljc2MjNDOC4yNzI2NyAyOC4zOTM5IDggMjkuMTA0OCA4IDI5Ljg0MzhMNSAyOS44NDM4QzMuMzQzMTQgMjkuODQzOCAyIDI4LjUwMTkgMiAyNi44NDY2VjE1LjcxODJDMiAxNC44OTQxIDIuMzM5NjEgMTQuMTA2NCAyLjkzODk2IDEzLjU0MDNMMTIuNjI2IDQuMzkwMDJaIi8+JiN4YTs8cGF0aCBmaWxsPSJibGFjayIgZD0iTTI5IDIyLjg0MzdDMjguMzk3OSAyMi44NzczIDI3Ljc5NTIgMjIuNzg3NiAyNy4yMjg5IDIyLjU4QzI2LjY2MjcgMjIuMzcyNSAyNi4xNDQ4IDIyLjA1MTUgMjUuNzA3IDIxLjYzNjdDMjUuNDY1OCAyMS4zOTY0IDI1LjI1OTEgMjEuMTIzOCAyNS4wOTMgMjAuODI2N0MyNS4wNTI2IDIwLjc1MDYgMjUuMDE2MyAyMC42NzI1IDI0Ljk4NCAyMC41OTI3QzI0Ljk0OTMgMjAuNTA1OSAyNC45MDkyIDIwLjQyMTQgMjQuODY0IDIwLjMzOTdDMjQuODQzNyAyMC4zMDUgMjQuODIxNCAyMC4yNzE2IDI0Ljc5NyAyMC4yMzk3QzI0LjY3MTkgMjAuMDc1MyAyNC40OTkgMTkuOTUzNyAyNC4zMDIxIDE5Ljg5MTZDMjQuMTA1MSAxOS44Mjk1IDIzLjg5MzcgMTkuODI5OCAyMy42OTcgMTkuODkyN0gyMy42ODdDMjMuNDU2NiAxOS45NzA5IDIzLjI2MTggMjAuMTI5MiAyMy4xMzggMjAuMzM4N0MyMy4wODYxIDIwLjQzNTMgMjMuMDQxMyAyMC41MzU1IDIzLjAwNCAyMC42Mzg3TDIyLjk5MzUgMjAuNjY0OEMyMi45NjYxIDIwLjczMzIgMjIuOTM4NiAyMC44MDE5IDIyLjkwNCAyMC44NjY3QzIyLjc1NDEgMjEuMTY2IDIyLjU3MDkgMjEuNDQ3NCAyMi4zNTggMjEuNzA1N0MyMi4wNzY1IDIyLjA2MTEgMjEuNzE4MiAyMi4zNDgyIDIxLjMxMDEgMjIuNTQ1NUMyMC45MDE5IDIyLjc0MjkgMjAuNDU0NCAyMi44NDU0IDIwLjAwMSAyMi44NDU0QzE5LjU0NzYgMjIuODQ1NCAxOS4xMDAxIDIyLjc0MjkgMTguNjkxOSAyMi41NDU1QzE4LjI4MzggMjIuMzQ4MiAxNy45MjU1IDIyLjA2MTEgMTcuNjQ0IDIxLjcwNTdDMTcuNDMxMSAyMS40NDc0IDE3LjI0NzkgMjEuMTY2IDE3LjA5OCAyMC44NjY3QzE3LjA3MTEgMjAuODEzNiAxNy4wNDc5IDIwLjc1NzkgMTcuMDI0NiAyMC43MDE5QzE3LjAxNTggMjAuNjgwOCAxNy4wMDcgMjAuNjU5NyAxNi45OTggMjAuNjM4N0MxNi45NjA3IDIwLjUzNTUgMTYuOTE1OSAyMC40MzUzIDE2Ljg2NCAyMC4zMzg3QzE2Ljc0MDIgMjAuMTI5MiAxNi41NDU0IDE5Ljk3MDkgMTYuMzE1IDE5Ljg5MjdIMTYuMzA1QzE2LjEwODMgMTkuODI5OCAxNS44OTY5IDE5LjgyOTUgMTUuNjk5OSAxOS44OTE2QzE1LjUwMyAxOS45NTM3IDE1LjMzMDEgMjAuMDc1MyAxNS4yMDUgMjAuMjM5N0MxNS4xODA2IDIwLjI3MTYgMTUuMTU4MyAyMC4zMDUgMTUuMTM4IDIwLjMzOTdDMTUuMDkyOCAyMC40MjE0IDE1LjA1MjcgMjAuNTA1OSAxNS4wMTggMjAuNTkyN0MxNC45ODU3IDIwLjY3MjUgMTQuOTQ5NCAyMC43NTA2IDE0LjkwOSAyMC44MjY3QzE0Ljc0MjkgMjEuMTIzOCAxNC41MzYyIDIxLjM5NjQgMTQuMjk1IDIxLjYzNjdDMTMuODU3IDIyLjA1MTcgMTMuMzM4NyAyMi4zNzI5IDEyLjc3MjEgMjIuNTgwNEMxMi4yMDU1IDIyLjc4OCAxMS42MDI1IDIyLjg3NzYgMTEgMjIuODQzN0MxMC43MzQ4IDIyLjg0MzcgMTAuNDgwNCAyMi45NDkgMTAuMjkyOSAyMy4xMzY2QzEwLjEwNTQgMjMuMzI0MSAxMCAyMy41Nzg1IDEwIDIzLjg0MzdDMTAgMjQuMTA4OSAxMC4xMDU0IDI0LjM2MzIgMTAuMjkyOSAyNC41NTA4QzEwLjQ4MDQgMjQuNzM4MyAxMC43MzQ4IDI0Ljg0MzcgMTEgMjQuODQzN0MxMS44NjUgMjQuODc3OSAxMi43Mjc5IDI0LjczNjcgMTMuNTM2OSAyNC40Mjg2QzE0LjM0NTggMjQuMTIwNCAxNS4wODQgMjMuNjUxNyAxNS43MDcgMjMuMDUwN0MxNS43OTQgMjIuOTYzNyAxNS44NzYgMjIuODc2NyAxNS45NTIgMjIuNzg5N0MxNi4wMDEgMjIuODU0NyAxNi4wNTIgMjIuOTE4NyAxNi4xMDcgMjIuOTgzN0MxNi41NzU2IDIzLjU2NTEgMTcuMTY4NiAyNC4wMzQyIDE3Ljg0MjIgMjQuMzU2NUMxOC41MTU5IDI0LjY3ODggMTkuMjUzMiAyNC44NDYxIDIwIDI0Ljg0NjFDMjAuNzQ2OCAyNC44NDYxIDIxLjQ4NDEgMjQuNjc4OCAyMi4xNTc4IDI0LjM1NjVDMjIuODMxNCAyNC4wMzQyIDIzLjQyNDQgMjMuNTY1MSAyMy44OTMgMjIuOTgzN0MyMy45NDcgMjIuOTE4NyAyMy45OTkgMjIuODU0NyAyNC4wNDggMjIuNzg5N0MyNC4xMjQgMjIuODc2NyAyNC4yMDYgMjIuOTYzNyAyNC4yOTMgMjMuMDUwN0MyNC45MTYgMjMuNjUxNyAyNS42NTQyIDI0LjEyMDQgMjYuNDYzMSAyNC40Mjg2QzI3LjI3MjEgMjQuNzM2NyAyOC4xMzUgMjQuODc3OSAyOSAyNC44NDM3QzI5LjI2NTIgMjQuODQzNyAyOS41MTk2IDI0LjczODMgMjkuNzA3MSAyNC41NTA4QzI5Ljg5NDYgMjQuMzYzMiAzMCAyNC4xMDg5IDMwIDIzLjg0MzdDMzAgMjMuNTc4NSAyOS44OTQ2IDIzLjMyNDEgMjkuNzA3MSAyMy4xMzY2QzI5LjUxOTYgMjIuOTQ5IDI5LjI2NTIgMjIuODQzNyAyOSAyMi44NDM3WiIvPiYjeGE7PHBhdGggZmlsbD0iYmxhY2siIGQ9Ik0yOSAyOC44NDM3QzI4LjM5NzkgMjguODc3MyAyNy43OTUyIDI4Ljc4NzYgMjcuMjI4OSAyOC41OEMyNi42NjI3IDI4LjM3MjUgMjYuMTQ0OCAyOC4wNTE1IDI1LjcwNyAyNy42MzY3QzI1LjQ2NTggMjcuMzk2NCAyNS4yNTkxIDI3LjEyMzggMjUuMDkzIDI2LjgyNjdDMjUuMDUyNiAyNi43NTA2IDI1LjAxNjMgMjYuNjcyNSAyNC45ODQgMjYuNTkyN0MyNC45NDkzIDI2LjUwNTkgMjQuOTA5MiAyNi40MjE0IDI0Ljg2NCAyNi4zMzk3QzI0Ljg0MzcgMjYuMzA1IDI0LjgyMTQgMjYuMjcxNiAyNC43OTcgMjYuMjM5N0MyNC42NzE5IDI2LjA3NTMgMjQuNDk5IDI1Ljk1MzcgMjQuMzAyMSAyNS44OTE2QzI0LjEwNTEgMjUuODI5NSAyMy44OTM3IDI1LjgyOTggMjMuNjk3IDI1Ljg5MjdIMjMuNjg3QzIzLjQ1NjYgMjUuOTcwOSAyMy4yNjE4IDI2LjEyOTIgMjMuMTM4IDI2LjMzODdDMjMuMDg2MSAyNi40MzUzIDIzLjA0MTMgMjYuNTM1NSAyMy4wMDQgMjYuNjM4N0wyMi45OTM1IDI2LjY2NDhDMjIuOTY2MSAyNi43MzMyIDIyLjkzODYgMjYuODAxOSAyMi45MDQgMjYuODY2N0MyMi43NTQxIDI3LjE2NiAyMi41NzA5IDI3LjQ0NzQgMjIuMzU4IDI3LjcwNTdDMjIuMDc2NSAyOC4wNjExIDIxLjcxODIgMjguMzQ4MiAyMS4zMTAxIDI4LjU0NTVDMjAuOTAxOSAyOC43NDI5IDIwLjQ1NDQgMjguODQ1NCAyMC4wMDEgMjguODQ1NEMxOS41NDc2IDI4Ljg0NTQgMTkuMTAwMSAyOC43NDI5IDE4LjY5MTkgMjguNTQ1NUMxOC4yODM4IDI4LjM0ODIgMTcuOTI1NSAyOC4wNjExIDE3LjY0NCAyNy43MDU3QzE3LjQzMTEgMjcuNDQ3NCAxNy4yNDc5IDI3LjE2NiAxNy4wOTggMjYuODY2N0MxNy4wNzExIDI2LjgxMzYgMTcuMDQ3OSAyNi43NTc5IDE3LjAyNDYgMjYuNzAxOUMxNy4wMTU4IDI2LjY4MDggMTcuMDA3IDI2LjY1OTcgMTYuOTk4IDI2LjYzODdDMTYuOTYwNyAyNi41MzU1IDE2LjkxNTkgMjYuNDM1MyAxNi44NjQgMjYuMzM4N0MxNi43NDAyIDI2LjEyOTIgMTYuNTQ1NCAyNS45NzA5IDE2LjMxNSAyNS44OTI3SDE2LjMwNUMxNi4xMDgzIDI1LjgyOTggMTUuODk2OSAyNS44Mjk1IDE1LjY5OTkgMjUuODkxNkMxNS41MDMgMjUuOTUzNyAxNS4zMzAxIDI2LjA3NTMgMTUuMjA1IDI2LjIzOTdDMTUuMTgwNiAyNi4yNzE2IDE1LjE1ODMgMjYuMzA1IDE1LjEzOCAyNi4zMzk3QzE1LjA5MjggMjYuNDIxNCAxNS4wNTI3IDI2LjUwNTkgMTUuMDE4IDI2LjU5MjdDMTQuOTg1NyAyNi42NzI1IDE0Ljk0OTQgMjYuNzUwNiAxNC45MDkgMjYuODI2N0MxNC43NDI5IDI3LjEyMzggMTQuNTM2MiAyNy4zOTY0IDE0LjI5NSAyNy42MzY3QzEzLjg1NyAyOC4wNTE3IDEzLjMzODcgMjguMzcyOSAxMi43NzIxIDI4LjU4MDRDMTIuMjA1NSAyOC43ODggMTEuNjAyNSAyOC44Nzc2IDExIDI4Ljg0MzdDMTAuNzM0OCAyOC44NDM3IDEwLjQ4MDQgMjguOTQ5IDEwLjI5MjkgMjkuMTM2NkMxMC4xMDU0IDI5LjMyNDEgMTAgMjkuNTc4NSAxMCAyOS44NDM3QzEwIDMwLjEwODkgMTAuMTA1NCAzMC4zNjMyIDEwLjI5MjkgMzAuNTUwOEMxMC40ODA0IDMwLjczODMgMTAuNzM0OCAzMC44NDM3IDExIDMwLjg0MzdDMTEuODY1IDMwLjg3NzkgMTIuNzI3OSAzMC43MzY3IDEzLjUzNjkgMzAuNDI4NkMxNC4zNDU4IDMwLjEyMDQgMTUuMDg0IDI5LjY1MTcgMTUuNzA3IDI5LjA1MDdDMTUuNzk0IDI4Ljk2MzcgMTUuODc2IDI4Ljg3NjcgMTUuOTUyIDI4Ljc4OTdDMTYuMDAxIDI4Ljg1NDcgMTYuMDUyIDI4LjkxODcgMTYuMTA3IDI4Ljk4MzdDMTYuNTc1NiAyOS41NjUxIDE3LjE2ODYgMzAuMDM0MiAxNy44NDIyIDMwLjM1NjVDMTguNTE1OSAzMC42Nzg4IDE5LjI1MzIgMzAuODQ2MSAyMCAzMC44NDYxQzIwLjc0NjggMzAuODQ2MSAyMS40ODQxIDMwLjY3ODggMjIuMTU3OCAzMC4zNTY1QzIyLjgzMTQgMzAuMDM0MiAyMy40MjQ0IDI5LjU2NTEgMjMuODkzIDI4Ljk4MzdDMjMuOTQ3IDI4LjkxODcgMjMuOTk5IDI4Ljg1NDcgMjQuMDQ4IDI4Ljc4OTdDMjQuMTI0IDI4Ljg3NjcgMjQuMjA2IDI4Ljk2MzcgMjQuMjkzIDI5LjA1MDdDMjQuOTE2IDI5LjY1MTcgMjUuNjU0MiAzMC4xMjA0IDI2LjQ2MzEgMzAuNDI4NkMyNy4yNzIxIDMwLjczNjcgMjguMTM1IDMwLjg3NzkgMjkgMzAuODQzN0MyOS4yNjUyIDMwLjg0MzcgMjkuNTE5NiAzMC43MzgzIDI5LjcwNzEgMzAuNTUwOEMyOS44OTQ2IDMwLjM2MzIgMzAgMzAuMTA4OSAzMCAyOS44NDM3QzMwIDI5LjU3ODUgMjkuODk0NiAyOS4zMjQxIDI5LjcwNzEgMjkuMTM2NkMyOS41MTk2IDI4Ljk0OSAyOS4yNjUyIDI4Ljg0MzcgMjkgMjguODQzN1oiLz4mI3hhOzwvc3ZnPg==;fontSize=8;" vertex="1" parent="1">
          <mxGeometry x="381.94" y="80" width="32.97" height="34" as="geometry" />
        </mxCell>
        <mxCell id="xdCx_uDlr330pJW8t3d0-4" value="Config WH" style="shape=image;verticalLabelPosition=bottom;verticalAlign=top;imageAspect=0;image=data:image/svg+xml,PHN2ZyB4bWxucz0iaHR0cDovL3d3dy53My5vcmcvMjAwMC9zdmciIGZpbGw9Im5vbmUiIHZpZXdCb3g9IjAgMCAzMiAzMyIgaGVpZ2h0PSIzMyIgd2lkdGg9IjMyIj4mI3hhOzxwYXRoIGZpbGw9ImJsYWNrIiBkPSJNMTUuMTkwNCA1LjI4NTg1QzE1LjY1NzIgNC44ODkwOSAxNi4zNDI4IDQuODg5MDkgMTYuODA5NiA1LjI4NTg2TDI2LjU1OTYgMTMuNTczM0MyNi44MzkgMTMuODEwOCAyNyAxNC4xNTkgMjcgMTQuNTI1N1YyNi43NDAyQzI3IDI3LjQyNzggMjYuNDQyNiAyNy45ODUyIDI1Ljc1NSAyNy45ODUySDYuMjQ1QzUuNTU3NCAyNy45ODUyIDUgMjcuNDI3OCA1IDI2Ljc0MDJWMTQuNTI1N0M1IDE0LjE1OSA1LjE2MTAzIDEzLjgxMDggNS40NDA0NCAxMy41NzMzTDE1LjE5MDQgNS4yODU4NVpNMTguMTA0OSAzLjc2MTk3QzE2Ljg5MTIgMi43MzAzOSAxNS4xMDg4IDIuNzMwMzggMTMuODk1MiAzLjc2MTk3TDQuMTQ1MTUgMTIuMDQ5NEMzLjQxODY4IDEyLjY2NjkgMyAxMy41NzIzIDMgMTQuNTI1N1YyNi43NDAyQzMgMjguNTMyNCA0LjQ1MjgzIDI5Ljk4NTIgNi4yNDUgMjkuOTg1MkgyNS43NTVDMjcuNTQ3MiAyOS45ODUyIDI5IDI4LjUzMjQgMjkgMjYuNzQwMlYxNC41MjU3QzI5IDEzLjU3MjMgMjguNTgxMyAxMi42NjY5IDI3Ljg1NDkgMTIuMDQ5NEwxOC4xMDQ5IDMuNzYxOTdaTTEyIDE3LjQ4NTJDMTIgMTguMzEzNyAxMS4zMjg0IDE4Ljk4NTIgMTAuNSAxOC45ODUyQzkuNjcxNTcgMTguOTg1MiA5IDE4LjMxMzcgOSAxNy40ODUyQzkgMTYuNjU2OCA5LjY3MTU3IDE1Ljk4NTIgMTAuNSAxNS45ODUyQzExLjMyODQgMTUuOTg1MiAxMiAxNi42NTY4IDEyIDE3LjQ4NTJaTTEwLjUgMjMuOTg1MkMxMS4zMjg0IDIzLjk4NTIgMTIgMjMuMzEzNyAxMiAyMi40ODUyQzEyIDIxLjY1NjggMTEuMzI4NCAyMC45ODUyIDEwLjUgMjAuOTg1MkM5LjY3MTU3IDIwLjk4NTIgOSAyMS42NTY4IDkgMjIuNDg1MkM5IDIzLjMxMzcgOS42NzE1NyAyMy45ODUyIDEwLjUgMjMuOTg1MlpNMTYgMjMuOTg1MkMxNi44Mjg0IDIzLjk4NTIgMTcuNSAyMy4zMTM3IDE3LjUgMjIuNDg1MkMxNy41IDIxLjY1NjggMTYuODI4NCAyMC45ODUyIDE2IDIwLjk4NTJDMTUuMTcxNiAyMC45ODUyIDE0LjUgMjEuNjU2OCAxNC41IDIyLjQ4NTJDMTQuNSAyMy4zMTM3IDE1LjE3MTYgMjMuOTg1MiAxNiAyMy45ODUyWk0xNiAxOC45ODUyQzE2LjgyODQgMTguOTg1MiAxNy41IDE4LjMxMzcgMTcuNSAxNy40ODUyQzE3LjUgMTYuNjU2OCAxNi44Mjg0IDE1Ljk4NTIgMTYgMTUuOTg1MkMxNS4xNzE2IDE1Ljk4NTIgMTQuNSAxNi42NTY4IDE0LjUgMTcuNDg1MkMxNC41IDE4LjMxMzcgMTUuMTcxNiAxOC45ODUyIDE2IDE4Ljk4NTJaTTIxLjUgMTguOTg1MkMyMi4zMjg0IDE4Ljk4NTIgMjMgMTguMzEzNyAyMyAxNy40ODUyQzIzIDE2LjY1NjggMjIuMzI4NCAxNS45ODUyIDIxLjUgMTUuOTg1MkMyMC42NzE2IDE1Ljk4NTIgMjAgMTYuNjU2OCAyMCAxNy40ODUyQzIwIDE4LjMxMzcgMjAuNjcxNiAxOC45ODUyIDIxLjUgMTguOTg1MlpNMjEuNSAyMy45ODUyQzIyLjMyODQgMjMuOTg1MiAyMyAyMy4zMTM3IDIzIDIyLjQ4NTJDMjMgMjEuNjU2OCAyMi4zMjg0IDIwLjk4NTIgMjEuNSAyMC45ODUyQzIwLjY3MTYgMjAuOTg1MiAyMCAyMS42NTY4IDIwIDIyLjQ4NTJDMjAgMjMuMzEzNyAyMC42NzE2IDIzLjk4NTIgMjEuNSAyMy45ODUyWiIvPiYjeGE7PC9zdmc+;fontSize=8;aspect=fixed;" vertex="1" parent="1">
          <mxGeometry x="445.58000000000004" y="157" width="34.91" height="36" as="geometry" />
        </mxCell>
        <mxCell id="xdCx_uDlr330pJW8t3d0-9" style="edgeStyle=orthogonalEdgeStyle;rounded=0;orthogonalLoop=1;jettySize=auto;html=1;" edge="1" parent="1">
          <mxGeometry relative="1" as="geometry">
            <mxPoint x="285" y="384.71" as="targetPoint" />
            <mxPoint x="245" y="384.71" as="sourcePoint" />
            <Array as="points">
              <mxPoint x="245" y="384.71" />
            </Array>
          </mxGeometry>
        </mxCell>
        <mxCell id="xdCx_uDlr330pJW8t3d0-5" value="Synapse" style="shape=image;verticalLabelPosition=bottom;verticalAlign=top;imageAspect=0;aspect=fixed;image=data:image/svg+xml,PHN2ZyB4bWxucz0iaHR0cDovL3d3dy53My5vcmcvMjAwMC9zdmciIGlkPSJmMmY1NzAxZS1jYjNiLTRkNmYtYjQwNy01ODY2ZWM1Yjc3ODQiIHdpZHRoPSIxOCIgaGVpZ2h0PSIxOCIgdmlld0JveD0iMCAwIDE4IDE4Ij4mI3hhOyAgPGRlZnM+JiN4YTsgICAgPGxpbmVhckdyYWRpZW50IGlkPSJhODkxOTAxYi03OWFlLTQ5MGEtODU2OC05YzQzMzQ0MTdkMzUiIHgxPSI5IiB5MT0iNS4zOCIgeDI9IjkiIGdyYWRpZW50VW5pdHM9InVzZXJTcGFjZU9uVXNlIj4mI3hhOyAgICAgIDxzdG9wIG9mZnNldD0iMC4xOTkiIHN0b3AtY29sb3I9IiMwMDViYTEiLz4mI3hhOyAgICAgIDxzdG9wIG9mZnNldD0iMSIgc3RvcC1jb2xvcj0iIzAwNzhkNCIvPiYjeGE7ICAgIDwvbGluZWFyR3JhZGllbnQ+JiN4YTsgICAgPGxpbmVhckdyYWRpZW50IGlkPSJiYmRhYTAwOS0yMjgxLTRkYTgtOWU4OS02ZjQxNjg5ZTkxYTciIHgxPSI5IiB5MT0iMTIuNzEzIiB4Mj0iOSIgeTI9IjUuMjg3IiBncmFkaWVudFVuaXRzPSJ1c2VyU3BhY2VPblVzZSI+JiN4YTsgICAgICA8c3RvcCBvZmZzZXQ9IjAiIHN0b3AtY29sb3I9IiMxOThhYjMiLz4mI3hhOyAgICAgIDxzdG9wIG9mZnNldD0iMC4xNzIiIHN0b3AtY29sb3I9IiMzMmJlZGQiLz4mI3hhOyAgICAgIDxzdG9wIG9mZnNldD0iMC41IiBzdG9wLWNvbG9yPSIjNTBlNmZmIi8+JiN4YTsgICAgICA8c3RvcCBvZmZzZXQ9IjAuNSIgc3RvcC1jb2xvcj0iIzRmZTRmZCIvPiYjeGE7ICAgICAgPHN0b3Agb2Zmc2V0PSIwLjUiIHN0b3AtY29sb3I9IiM0YmRkZjgiLz4mI3hhOyAgICAgIDxzdG9wIG9mZnNldD0iMC41IiBzdG9wLWNvbG9yPSIjNDRkMmVlIi8+JiN4YTsgICAgICA8c3RvcCBvZmZzZXQ9IjAuNSIgc3RvcC1jb2xvcj0iIzNhYzFlMCIvPiYjeGE7ICAgICAgPHN0b3Agb2Zmc2V0PSIwLjUiIHN0b3AtY29sb3I9IiMyZGFiY2UiLz4mI3hhOyAgICAgIDxzdG9wIG9mZnNldD0iMC41IiBzdG9wLWNvbG9yPSIjMWQ5MGI4Ii8+JiN4YTsgICAgICA8c3RvcCBvZmZzZXQ9IjAuNSIgc3RvcC1jb2xvcj0iIzE5OGFiMyIvPiYjeGE7ICAgICAgPHN0b3Agb2Zmc2V0PSIwLjY2MiIgc3RvcC1jb2xvcj0iIzMyYmVkZCIvPiYjeGE7ICAgICAgPHN0b3Agb2Zmc2V0PSIwLjk3NSIgc3RvcC1jb2xvcj0iIzUwZTZmZiIvPiYjeGE7ICAgIDwvbGluZWFyR3JhZGllbnQ+JiN4YTsgIDwvZGVmcz4mI3hhOyAgPHBhdGggZD0iTTksMCwxLjE1LDQuNDl2OC45N0w5LDE4bDcuODUtNC40OXYtOVptNi40LDEyLjU3TDksMTYuMjcsMi42LDEyLjYwOVY1LjM4TDksMS42OGw2LjQsMy43MVoiIGZpbGw9IiMwMDc4ZDQiLz4mI3hhOyAgPHBvbHlnb24gcG9pbnRzPSI5IDAgOSAwIDEuMTUgNC40OSAyLjYgNS4zOCA5IDEuNjggOSAxLjY4IDE1LjQgNS4zOCAxNi44NSA0LjQ5IDkgMCIgZmlsbD0idXJsKCNhODkxOTAxYi03OWFlLTQ5MGEtODU2OC05YzQzMzQ0MTdkMzUpIi8+JiN4YTsgIDxwYXRoIGQ9Ik0xMi43NCwxMC40NzVhLjczLjczLDAsMCwwLS4zMjMtLjI4NkE1LjgzNSw1LjgzNSwwLDAsMCw3LjkzOSw2Ljg0M0wxNC40MTYsMy4xLDEyLjkxLDIuMjM2LDUuNTM0LDYuNUEuNzUuNzUsMCwwLDAsNS45MSw3LjkuNjg0LjY4NCwwLDAsMCw2LDcuODc3bC4xMjUuNTIzYTQuMzE5LDQuMzE5LDAsMCwxLDQuODM3LDIuMjM4TDMuNjEzLDE0Ljg4NWwxLjUuODY2TDEyLjQ2NiwxMS41YS43MjkuNzI5LDAsMCwwLC4yNDItLjIzNmwuMDc1LS4wMThjLS4wMDctLjAyOS0uMDE4LS4wNTUtLjAyNS0uMDg0QS43MzUuNzM1LDAsMCwwLDEyLjc0LDEwLjQ3NVoiIGZpbGw9IiM1MGU2ZmYiLz4mI3hhOyAgPHBhdGggZD0iTTEyLjA5MSw5LjAxM2ExLjg1LDEuODUsMCwxLDAsMS44NSwxLjg1QTEuODUsMS44NSwwLDAsMCwxMi4wOTEsOS4wMTNaTTUuOTA5LDUuMjY3YTEuODUsMS44NSwwLDEsMCwxLjg1LDEuODVBMS44NSwxLjg1LDAsMCwwLDUuOTA5LDUuMjY3WiIgZmlsbD0idXJsKCNiYmRhYTAwOS0yMjgxLTRkYTgtOWU4OS02ZjQxNjg5ZTkxYTcpIi8+JiN4YTs8L3N2Zz4=;fontSize=8;" vertex="1" parent="1">
          <mxGeometry x="213" y="372" width="26" height="26" as="geometry" />
        </mxCell>
        <mxCell id="xdCx_uDlr330pJW8t3d0-6" value="ADLS Storage" style="shape=image;verticalLabelPosition=bottom;verticalAlign=top;imageAspect=0;aspect=fixed;image=data:image/svg+xml,PHN2ZyB4bWxucz0iaHR0cDovL3d3dy53My5vcmcvMjAwMC9zdmciIGlkPSJmMmYwNDM0OS04YWVlLTQ0MTMtODRjOS1hOTA1MzYxMWIzMTkiIHdpZHRoPSIxOCIgaGVpZ2h0PSIxOCIgdmlld0JveD0iMCAwIDE4IDE4Ij4mI3hhOyAgPGRlZnM+JiN4YTsgICAgPGxpbmVhckdyYWRpZW50IGlkPSJhZDRjNGY5Ni0wOWFhLTRmOTEtYmExMC01Y2I4YWQ1MzBmNzQiIHgxPSI5IiB5MT0iMTUuODMiIHgyPSI5IiB5Mj0iNS43OSIgZ3JhZGllbnRVbml0cz0idXNlclNwYWNlT25Vc2UiPiYjeGE7ICAgICAgPHN0b3Agb2Zmc2V0PSIwIiBzdG9wLWNvbG9yPSIjYjNiM2IzIi8+JiN4YTsgICAgICA8c3RvcCBvZmZzZXQ9IjAuMjYiIHN0b3AtY29sb3I9IiNjMWMxYzEiLz4mI3hhOyAgICAgIDxzdG9wIG9mZnNldD0iMSIgc3RvcC1jb2xvcj0iI2U2ZTZlNiIvPiYjeGE7ICAgIDwvbGluZWFyR3JhZGllbnQ+JiN4YTsgIDwvZGVmcz4mI3hhOyAgPHRpdGxlPkljb24tc3RvcmFnZS04NjwvdGl0bGU+JiN4YTsgIDxwYXRoIGQ9Ik0uNSw1Ljc5aDE3YTAsMCwwLDAsMSwwLDB2OS40OGEuNTcuNTcsMCwwLDEtLjU3LjU3SDEuMDdhLjU3LjU3LDAsMCwxLS41Ny0uNTdWNS43OUEwLDAsMCwwLDEsLjUsNS43OVoiIGZpbGw9InVybCgjYWQ0YzRmOTYtMDlhYS00ZjkxLWJhMTAtNWNiOGFkNTMwZjc0KSIvPiYjeGE7ICA8cGF0aCBkPSJNMS4wNywyLjE3SDE2LjkzYS41Ny41NywwLDAsMSwuNTcuNTdWNS43OWEwLDAsMCwwLDEsMCwwSC41YTAsMCwwLDAsMSwwLDBWMi43M0EuNTcuNTcsMCwwLDEsMS4wNywyLjE3WiIgZmlsbD0iIzM3YzJiMSIvPiYjeGE7ICA8cGF0aCBkPSJNMi44MSw2Ljg5SDE1LjE4YS4yNy4yNywwLDAsMSwuMjYuMjd2MS40YS4yNy4yNywwLDAsMS0uMjYuMjdIMi44MWEuMjcuMjcsMCwwLDEtLjI2LS4yN1Y3LjE2QS4yNy4yNywwLDAsMSwyLjgxLDYuODlaIiBmaWxsPSIjZmZmIi8+JiN4YTsgIDxwYXRoIGQ9Ik0yLjgyLDkuNjhIMTUuMTlhLjI3LjI3LDAsMCwxLC4yNi4yN3YxLjQxYS4yNy4yNywwLDAsMS0uMjYuMjdIMi44MmEuMjcuMjcsMCwwLDEtLjI2LS4yN1YxMEEuMjcuMjcsMCwwLDEsMi44Miw5LjY4WiIgZmlsbD0iIzM3YzJiMSIvPiYjeGE7ICA8cGF0aCBkPSJNMi44MiwxMi41SDE1LjE5YS4yNy4yNywwLDAsMSwuMjYuMjd2MS40MWEuMjcuMjcsMCwwLDEtLjI2LjI3SDIuODJhLjI3LjI3LDAsMCwxLS4yNi0uMjdWMTIuNzdBLjI3LjI3LDAsMCwxLDIuODIsMTIuNVoiIGZpbGw9IiMyNTgyNzciLz4mI3hhOzwvc3ZnPg==;fontSize=8;" vertex="1" parent="1">
          <mxGeometry x="295.5" y="371" width="27" height="27" as="geometry" />
        </mxCell>
        <mxCell id="xdCx_uDlr330pJW8t3d0-7" value="" style="shape=image;verticalLabelPosition=bottom;verticalAlign=top;imageAspect=0;image=data:image/png,iVBORw0KGgoAAAANSUhEUgAABgAAAANgCAYAAADqIqOWAACAAElEQVR42uz9d5Rk133geX5/leU9WCh4QgABAQRBgPDeEaYKIOgpUi1Ks709Oz07PTvbvefMntntnZ7taTero1a3vGvZlmG3RLluiRIBeu8EgKIkkjBlABRMOZRJU1Xp3v4RmVlh3nvxIjIyM27E93NOICPj3XfvjR9eVmTe++7vgiRJkiRJkiRJGjhhCCRJklbGtgf/11VZlm2EbD1ZtpaINRsuPI+R9etgVbD+wvPYeOnFbP7By1m9eZMBk5SKDJgEzgCngDNfvmVzZlgkSZKWnxMAkiRJS2zbQ//fgGw1WbYVuAiyK4Brsiy7HLiQLNsJ2VZg46r16yJWBUGwav1aRjauZ/XmTax903bWX7CTdeedy9o3bWf15k3E6tUQQYS/0knqK7PASeAYcBh4FXge+B7wMvAatYmBGScGJEmSlpZ/LUqSJC2RbQ//7xvIsjdDdjNkd5JltwKXQnYOsDbLshEAsozaDbPUvmac/X7+WASxKli1dg2rt25h3c4dbLzszWy89GLWnb+T1Zs2EqtWGXRJ/SgDpqmtCDgE7AG+Cnwd+Bvg4Jdv2TxtmCRJknrPCQBJkqQe2fbIvwyy2dXAhcA9wHtrg/7ZxZCtOzuwXxvcz7I2g/4Lz+vOyyCbLx8wsn4da3fuYPMVl7H12qtZf9EFjGxY76oASSkYpTYZ8GXgz4CngGNfvmXzrKGRJEnqDf8ylCRJ6oFtD//v64C3AR8E3gv8IGQbGgb2yRoG9LP6CYGWck1fm8rVvtSVj2Bkw3o2vvkitt3wdra89QdZs22rqwIkpSCjljLoaeDjwCeBl758y+YZQyNJkrQ4TgBIkiR1adsj/yKAtcANZNnfB95NxMVkWd2oe9MgfsMd/c2rAKquCMiZAKj7PkZGWH/BTrbfdD3bbriOtW/a7kSApFRMAt8HPgb8IbDfiQBJkqTuOQEgSZLUhW2P/MtVkF0F/APgo8BFQG2UPavf07L5Ln4aBvS7TQPUsoKguVwGMbKKdRecx467bmPbDW+vbRxsaiBJaZgCvgv8B+CPgENuGCxJktQ5/wKUJEnqQC3Pf3YOwYeB/wm4BhhpKVg0sF+4CqAHaYAK2ozVq9l0xQ+w8533svnKtxBrVjsRICkVp4EvAf8e+PyXb9l82pBIkiRV519+kiRJFW17+F+MANcD/5TgXcCmwsJlqwCK0gAV3Ol/9lj1NEAN5ee+rt68iXNuu5lz77+LNdu3OQkgKSUHgd8AfhF4xdUAkiRJ1fhXnyRJUhvbHvlXQZZtAH6I2uD/1Wd/jyoZg6qfBMha7+CfPz+rkvonJ91P1q5cXr2rVrHpisu44LGH2fSWy4hVI/4PlpSKKeALwL8Avv7lWzdPGxJJkqRy7gYnSZLU3rnA/4fgpwjeSsNNFGX3U0Td8Tj7iGj8vqGe5nLNbZx9LWiuJwra5Wybs7OMP7+Pl37347zxjaeZnZz0/66kVKwBHgJ+E/iRe741tsGQSJIklXMFgCRJUoFtD/+LIFZdBvxr4EPAutZSFVcAtOToL0gDVJjLP38vgeI0QEWbD5+td9WG9Zx7753sfPA+RjZuMCWQpJQcBX4a+Dng5JdvNSWQJElSHtd8S5Ik5dj2yL8KIq6hNsD0Pmp3nvZOtFs5UP+1uFwUlou6l/PrmZ2eYuKll5mZOMXGSy9hZN06/8dLSsVG4I65r8+89Kv/x4QhkSRJKv7rUpIkSXO27/rXq7Isewe1O0vvpG3axCqrANrckc/8KoD8O/1by58t17IKoGSlQf3386sOYmSEbe94Oxe9/3E3B5aUmkngt4D/DTjsSgBJkqRGrgCQJEmqs/3RHw+y2bcS8fPAPUSsoicD4lHx1ouSvP+RVy6viqhULhb2Mc44ffAw0ydPsuktl7sSQFJqf9NeB2wHvvbSr/4fpwyJJElSpb8cJUmShsv23f86yLgU+CVgd1Z/539WdlNpmxtO264CyNsHoL7eLCev/9lyWU5d7VcBNJ1LRoyM8KY7buXC9z7GyAb3BJCUlNPAz1Lbs2XMlQCSJEk1qwyBJEnSgh3AvwR2tfyeFJTcOtFmoDxK6om6AvUD7pFXR+SeH53WVX9iXblsZoY3vvkUhz//JbKpKa8GSSlZD/wj4P8CrDUckiRJNU4ASJIkAdt3/+v1wD8h+AjByMJA+8KjLg1Ppw/q6lj4PpqO1Y3fR7SWbxj8j6bBflrqanwe+a83twlkU5Mc+cJXOPbUM2Szs14YklKyBfh/Ae++51tj/q0rSZKEEwCSJEls2/1vRjJ4H7W7R9cva+ORl/O/qEzz62efRGEdOZMIpSsWgpmJCQ4+8RnG979Yl5ZIkpJwAfDPgbff860x85hJkqSh5wSAJEkaatt2/+sAroX43yB21B/rbOSokwH8Chvztm0nSrpQZaC/vlyryaNvcPAvnmTqxEkvEkmpeTvwz4A3GQpJkjTsnACQJEnDbitk/0vANbVvu7gTvyMtSfsbDrV+E62vRV6f2u1DUGXSobHM2At7OPKlrzA7Pe1VIiklATwOfPSeb42tNhySJGmYOQEgSZKG1vZH/81IEO8L4n1Fvxf1LH9E6SqAdil+qD75ENGuouI2myYmsukZ3vjaNxnfs89UQJJSsxH4x8D1pgKSJEnDzLshJEnSMPsBgn8MbKYn49sB3VS0cFpAZJC1qye/XMt3RXU1vDT/TX656dFRDn/+S2y4+CJGNm30ipGUkiuA/xvwT4AxwyFJkoaRKwAkSdJQ2v7ov1kD/J+Bd3R04lKnAWp4JS+Xf7s7/Nu027Y7TW1lMPrsc5z4zt+6CkBSagJ4P/DOu7856ioASZI0lJwAkCRJQ2f7Yz8eENcAP0ruisglGicqSwNUJZd/tEsVNJ/Nv2CSoKNNgs8eyyanOPrVrzN14oQXj6TUvAn474BthkKSJA0jJwAkSdLwyWbWUBv8v2zhtbJx944qj8WXi/qNedud3yaXf1TpUxQXmZt0OPXyK5z8zt+Rzc56/UhKzQPA/a4CkCRJw8gJAEmSNITiLcD7IUp+F2p3J361u+dLjy0MzjcP5td/jab26p7XrxqIsjqoVC5Kzs1mZjj21DNMj417+UhKzVbg7wObDYUkSRo2TgBIkqShsv3RH19FLSf0W84Oprd/RMtrlJQvORZFA/555+eUKZ00qOtryyRFB32O/PKnDrzK2HMvuBeApBTdB9xsGCRJ0rBxAkCSJA2ZbCfEeyFac//3LDlEdFemKXVPVE7d06Zc270D2tQxdyibnOLEt7/D7OSkl5Gk1LwJ+ODd3xxdYygkSdIwcQJAkiQNje2P/v8CuBW4btGVRY9mC6ps/tu8gW9HdRWtAihrpmhiIWN8337OvH7IVQCSUhPAQ8AlhkKSJA0TJwAkSdIwWQPsoiEPdPVc/r1bINDpIH5et8rLRVk7pZsER/4Jcy9Pj44x9vwecAJAUnreAtzhZsCSJGmYOAEgSZKGyYXAg6UlVjoNUNPhyNv8t6u6Ol1pUHA8yzj53e8xc/q0V5Ok1KynNgm8zlBIkqRh4QSAJEkaJrcAl3d2SpW79Rep0uA8xWmAol1d0VGb5WmA4PSrr3Pm9UNeTZJSdC9wqWGQJEnDwgkASZI0FLY/+uNrgUeBDa1Hqw/kr3waoKj7Eu37WnmSokIaoLmvMxOnGH32efcBkJSiS4C7TQMkSZKGhRMAkiRpWFwI3EmVMfxOhoUiFllRlY15o30dFSYECicWIq+ukq5ms4w9/wIzp055VUlKzTpqaYDWGwpJkjQMnACQJEkDb/ujPx60Tf+z2IH8RYqK/ahSrmoaoJI6Yn7PgdI0QAddBSApRbdhGiBJkjQknACQJEnDYC3wGLCxF5WtfBqg+kPl5UrTANVPJlRZQVBXbmZigtFnnwcnACSl5xLgDtMASZKkYeAEgCRJGgaXAPd2NHTfu1H+xZdpSAMUlKUL6joNUGuD5eWyjNHvPcfMxIRXl6TUlOwJI0mSNFicAJAkScPgdhad7qHK3fqLVGlwnt6mASpps7GZ1uNnDh7k9GsHvbokpehOStPCSZIkDYbVhkCSJA2y7Y/++DpgNwsbPgZQlLam7Fi3JdtVFMVpdBaO5bU291oAWXlvakWifbqelrpK2iWYOXWa0e8/x6YrLifC+0okJeVC4L67vzH63a/cvsVcZpIkaWD5l5okSRp0lwB3dHVmJzf2x2I3EW5z939LGqDCQvQyDVCUdTXLGHt+DzPjpgGSlJy1wMP0aG8YSZKkfuUEgCRJGljbH/3xAG6jo/Q/ix3IX6SW9D5RsVxemYppgErbmttzoCgN0OsHOf3a62RuBiwpPbdgGiBJkjTgnACQJEmDbD3wLmI+/c+83gzk926f4KjQSMnAfcPgfBRXE9H+jVRZQVA3ITCfBojZWa82Sam5CLjr7m+M+nexJEkaWP6iI0mSBldwKcFdc89bDpad2PA0Kp4XUTKYH+3PXbjbPuq+52ydEURDOci9Q7+5LnKONbTRVC633qY+LRzLGH32eaZNAyQpPauBxzANkCRJGmBOAEiSpAEWd0FcvDDY3fCA/NdzjhElZZsedFBv7nk0fk/TsfmB94bn0fScnPagYcVA5NWbN/ERc9U3vbe6SYEzh49w+tXXvNwkpeg24ErDIEmSBpUTAJIkaSBtf9dPbCDYTbAuv0Rvcv33Pg1Q5DTQfNd9hXI5PY1K+wa0q6f10OyZM4x+/1ky0wBJSs9O4IG7vzEahkKSJA0iJwAkSdKguhTi1p7U1MmwUPRqE+EoOdJmU9+o2F6VTYKjvsWCfQiyjLE9+5geG/eqk5SaNcDDwGZDIUmSBpETAJIkaeBsf9dPrALuAi5pONDR/Z29GsjvUssgfrTpRrv9Beaflm0E3P3EwplDhzj1yqtkWeYFKCk1N2IaIEmSNKCcAJAkSYNoA/A4sLa8WG8G8pcnDVDeN52mAcqrpzcTC7OnzzD6vWfBNECS0nM+cM/d3xj172NJkjRw/AVHkiQNnAwuz+DWDMgIal8X+Yjy4zl9KHh00p8o7Ev9hr7l/Y26r9HS19ZyOe1G7bVae5HzPmvlx17Yw/TomBegpNSMAI8BWwyFJEkaNE4ASJKkgbLtXT8RwD3ABbkFene7fsmh6HETUdJc0OmmvYXlopMAtbZ55sgRJg684kUoKUU3AVcZBkmSNGicAJAkSYNmI7CLtul/5q1wrv+WJssG8+uORVmX29RRN7EQpf2o2l7N7JlJRr//LNnMjFehpNTsAB68+xujYSgkSdIgcQJAkiQNmsuAmxtf6vUd+RWKRq8mFqrWU2XT3qI7/3uwb8Dca+N79zNlGiBJ6VkNPARsNRSSJGnQfsmRJEkaCNve9ROrgHuBi0oLBvmJ+zsu3FFF3VloYv5Ja5sRkGXNJ+T0rf6lxpOayjQULKknCLKGo2cOH+HUywdYs21r2foCSepH1wNX3/310W995Y4tmeGQJEmDwBUAkiRpkGwCHqfjmxxWYqC6yh4CUXJKfZmSchFt2i65qz867S/MTk5y8rvfJ5s2DZCk5OwE7vPvZEmSNEj8xUaSJA2SK6lt5JhjqdIAFdcbvdoMuHTT3vm22r3HqC/YeiQ3XVAUF4yyNED7mD456tUoKcW/j98FbDMUkiRpkH7BkSRJSt62d/1EULtzc2elE1LKTlM/OF840B9dvLn2Ewvtq2pdQXDm6BtMvPyyF6WkFF0HXGMYJEnSoHACQJIkDYrNwCPAmu5O79WmvT1SaWPeKD7cMFEQbc6dz9ZfNLEQpe01z0lkU1OMfv85shnTAElKzjnAQ3d/fdS/lSVJ0kDwlxpJkjQorgBuLC+yVGmASopG9KqiivWU5fJvM6kQVfvVZmIBGN+3n6kTJ70qJaVmBHgnsN1QSJKkQeAEgCRJSt62d/3ECPAgcH5HJ3aQz79/VghEwdfmyYaKm/uWbjjcpr6SFQRnjr7B+IsvkWWZF6ik1LwduObur4+GoZAkSalzAkCSJA2CzcBuandutpGzuW3L8QrHOp48iM6PRfOGvHOPyJsEyHleXy6iuNzC8H1TOw3n5rWXlx6o9lo2NcXo954lmzYNkKTk7AAe8O9lSZI0CPyFRpIkDYC4GuIdrQPTRQ9oHEwvGhzv5FjxI6LTehveG/l38+fl5Y+5sfq8c5rOLUoLFEXphPIG+indlLiWBuiEl6ek5D5UgMeANxkKSZKUOicAJElS0ra9698GtXzNO5a+tRXOBlE/aF+YoqfphNKVCtU3CS4b6D/7rPH45PHjTLz4kheppBS9DbjWMEiSpNQ5ASBJklK3FXgIWN2b6vos5XNULBRVKmm/+W9UajTKMxrNHcympjn5/eeYnZ72KpWUmm3Arru/PurfzJIkKWn+MiNJklJ3FXB9Z6f0aJC/g2oaN+jtpqKcvP4F5aLobv3I+6bqJsHt+p1fbmL/i0wdNw2QpCT/Vr6fZVldJkmStLS/1EiSJCVp27v+7QjwCLBzURVFrwr3avVAdFm2LEVPTrm2A/0V0wVFXhqg2tfJY8cZ37efLMu8YCWl5hrg7Xd/fTQMhSRJStVqQyBJkhK2jdoEQBc3NQSQdXGs+6JdV1R0qOH1iudHQOlgfBBkZHnlctvLabfupWx6mpPfe5btN1wPa9Z4xUpKyXZqKea+BJjLTJIkJckVAJIkKWXXANf1pKae3d9ZXFF5GqAq9VTJ5R+UpgFqPiEW8Z4ir+1WEy++xJljx7xaJaUmgN3AuYZCkiSlygkASZKUpG3v+rerqN2ZuX35W1/hbBB1m/bS0UB/Ubqg5v0F8s5t115TGqC6IlMnTjKx70UvWkkp6mKfGUmSpP5hCiBJkpSq7cCDwMjSVL9EaYC6TRm0cF6b1EWRnS238Ly52CLSAOW2N9enlq7VXsimpxn9/nNsv+kGVq32109JSdkM7L7rayc/89U7t84YDkmSlBpXAEiSpORse/zfBvA24NrF1RSt30ZvqiouVpZ2J6pXGnV34zf3u36P3/q7+nMXADTd1V9Q19l6itujpL2Jl15m8g3TAElK8m/me1nsZvOSJEkr+MuMJElSakYIdhHsWBiM7tWDqmWj5LzoURtN77qsnoaB+cgpU5fmp35QP6/v0DSQnzc5EK2TAHXloqmeyePHGd+zlyzLvHolpeZq4B13fe1kGApJkpQaJwAkSVKKzqGW/78HgzHR5bHuiy5tRRU39q2wIXHhRsK5d/xH+VuamWX0+8+RTU159UpKzVbgEUyhK0mSEuQEgCRJStHbgWuWpOZlGMiP6GRioWzD3XaTF1E8iJ/bRptB/CrBKSk38fIBJo++4dUrKUUPA+cZBkmSlBonACRJUlK2Pf5vV1EbiNm28r2JPmk+qg3Q5w70R0m5ovda1l7UVdPY3vTJUcb27TcNkKQUXQHcZBgkSVJqnACQJEmp2QE8sHy/xyzNIH/5KoBYZL+icXKguBNt2+jlCoJsZoaxZ00DJClJm4Ddd33tpGmAJElSUpwAkCRJydj2+E8GcB3wtt7WHIs4HiXFojd9iiqD+MV39zcO4hcM1keb4wsvLa7cxMuvcMY0QJLSE8DdwPmGQpIkpcQJAEmSlJLVwG5ge++rDhYGq6PoeNm53R6rem6UnD/3aBjEj4IyFB/LLVdUlkrtNU8+TJ04yfgLe00DJClFVwI33fW1k2EoJElSKpwAkCRJKdkB8c7SgetFPVj8sej0vKptUnI+TXXNPy3L+V8/2dFZLv/u6pmbVJidZfTZ55idnPRqlpSazcBjwFpDIUmSUuEEgCRJSsk7gKuXpaVY+ooiOmikbGPeCpv7RoWB/kqbBFepp80mwRMHXmHyyFGvZkkpuh+4wDBIkqRUOAEgSZKSsO3xnxwBHqF2B2afiT7rSg827W0oV9JYhfaaVxBMj40ztsc0QJKSdBlwi2GQJEmpcAJAkiSlYie1Oy9X6PeXWJqiEYusqAeD/bmb9hb1c3H1EMDMDGPPPm8aIEkp2gDsvutrJ00DJEmSkuAEgCRJ6nvbHv/JAG5iydP/RH/XWzZZ0HEaoIJyQdt6qFJPS7nGAxMHXuHMocNe3JJSE8BdwIWGQpIkpcAJAEmSlII1wG5gy7K2GktWeBn6HRW7u9g0QHSXBmh0jLEX9pLNznp1S0rN5cAtd33tZBgKSZLU75wAkCRJKdgJ3Lc8TS02JU/nRZe8oo7T9xRV08M0QFnG6LPPMXvGNECSkrMReBxYZygkSVK/cwJAkiSl4CbgyhVpeRkG8iM62jSguO6O0wAV9C86Te/TXRqg06++xpnDpgGSlKS7gYsNgyRJ6nerDYEkSepn2x7/ydXALmBTf/QogKyLYyvRzTb9iYAsa9/vhXIl77FCexFBVtfe9PgEY8/vYcObLyEwk4akpFwK3A7sMRSSJKmfuQJAkiT1uwuAe1nWJPux7NWUrwKIDhorSrvTm/Q9UWXvgKppgGZnGX3uBWZPnfYql5Sa9cDuu7560jRAkiSprzkBIEmS+ta2x38ygFtZqfQ/86LPKoqo0ETVNEAF5SrU010aoMZyp199jdMHD3mxS0rRHcAlhkGSJPUzJwAkSVI/Wwvspm/S/1QRfdaVqNjdduWiJ+01ryCYHh9n7Pk9ZLOzXu2SUnMpcOddXz1pDjNJktS3nACQJEn97ALgnpVperEpeTovuviKqg7iV03fk18gepROqLYVQMboc88zc9o0QJKSsx5419xXSZKkvuQEgCRJ6me3Apf3RU+WYSA/oqNNAyocW2waoMUM9JelAWo8cPr1g5wxDZCkNN1ObSWAJElSX3ICQJIk9aVtj//kGmAXsKE/e9ijFQLL0s0o71tXaYCiYnt51TROGMycOsXo8y+QZZkXvqTUXAzcZRgkSVK/cgJAkiT1q4uBu1nR0fRY9mrKVwF0kgYo2lRR8a7+gv5EVGivahqg2VnGnt/DzMQpr3pJqVkH7L7rqyc3GApJktSPnACQJEl9Z9vjPxnAHcBb+qpj0WcVRVRoYpFpgFpeC/LT+7Rvryxd0OnXXuf0a6+7CkBSim7FNECSJKlPOQEgSZL60TpgN0lvrBj9U2+FtDzV0wBV6EvDCoKCIk3tzZw6xdjzL4ATAJLScwlwz11fPenf15Ikqe/4C4okSepHfZRTuUe5/qOP+ryozX3PFoiqkwZV0gBlGaPPv2AaIEkpWgs8Rt/uWSNJkoaZEwCSJKmvbHv3vwvgdvoqnUI0Pq1yF3xe4Sg5Vn8kojy9T2PhgrJRdyxay809j9wy899z9mvD6631FJ7b8Ly+HhonIiI4c+gwp19/3R8CSSm6FbjcMEiSpH7jBIAkSeo3a4nYTcT6hUHlFX/Q+D1dnkubeqNpoL6lLPnnQHG7C8c4+7x+IL9lkJ/GAf+u6mmuM7+v0VBnMHPmDKPPvUA2O+tPgaTUXEAtDVAYCkmS1E+cAJAkSf3mzcCd/dWlWPZqIqI3jUXOprxtVzBE5Xqi5Zw2mwRHSRqg2VnG9uxlZmLCnwJJqVkL7AI2GgpJktRPVhsCSZLUL+bS/9wN/EBfdzSAbLkrKikbUWHz3OLza6fPHW9bV1k/6g4FkLV5fzltnX79IKdeeY3NV11J4I20kpJyM7U0QH9rKCRJUr9wBYAkSeonG4Dd1O6kHBBR+u3KdKUpL3/VvndUT9OKgcg/Hg1lg9nTpxl97gWYMQ2QpORcBNx/11dO+ne2JEnqG/5iIkmS+smbqW0A3Ieiy2OLaLFXaYDyUvq07X80DvSX1BO551TtT+vhsT17mDYNkKT0rAYeBTYZCkmS1C+cAJAkSX1hLv3PXcDFSXQ4+qyissmCljv2i06vNkBffaC/oK7cPQHOvnjm8BFOv/qaPxSSUnQTcKVhkCRJ/cIJAEmS1C/WU9tAcV2a3V+OFQKxBP3tfIC+pXBRGqC8jYNzJgei6ZzZM2cYfe55slnTAElKzk7gvru+ctJNTCRJUl9wAkCSJPWLtwB39HcXY9mr6VkaoLzB+MjrVLu79yukASo8t6ieJlnG2J69TI+N+VMhKTVrgEeAzYZCkiT1AycAJEnSitv27n+3CrgbuCSpjkevCkdv6qk0WRDVTo9YRD+an7epK6KlxJnDhzl14BWyLPMHRFJqbsQ0QJIkqU+sNgSSJKkPbAB2p/+7SQBZz4suXTcDIoOsXWcKjgdz51JST/1ree3lPQ9mz0wy+twLbL76KhgZ8SdEUkrOBx688ysnv/O1u7fOGA5JkrSSXAEgSZL6weXALWl0dfnTOvcsDVC79D5Ezo3/0bj5b0kMouWc9nf+l1U0ttc0QJKSNEJtTxvTAEmSpBXnBIAkSVpR29797wK4F7ggyTcQfVZRVEnNE22aa7Pxb249sbj3l7PZ8OTRo5x65VV/SCSl6B3A1YZBkiStNCcAJEnSStsIPAysHYy306tc/yxDPXN1Fd2tn7snQLSpqurGwa2vRdM5s5NTjD77PNnMrD8lklKzA3jnnV85GYZCkiStJCcAJEnSSvtB4La0uhzLXk3P0gBF+zRArceqDuq3qyev6pL3lWWM79nL1MmT/pRISs1q4CFgq6GQJEkryQkASZK0Yra9+9+topb+58Kk30j0qnD0pp5KkwVR7fSokNonKjRRcU+A5rUAZ44e5dSBA2RZ5g+MpNS8A3irYZAkSStptSGQJEkraBOwm9qGiYkJIOviWPdFOyzc/vyFbwMig2z+haJ2yo7PrzAoqqfpeUs5cuvMpmppgLZc81Zi9Yg/MZJSshN4+M6vnPirr929bcZwSJKkleAKAEmStJKuAG5Mt/uxiGPR8bFouYu+m3qi6bGqqezcPfgRrWUb2o+5DjWf23QXf/M5LamBmjcSbm1vfN9+pkdH/WmRlOKHxMPANkMhSZJWihMAkiRpRWx7978PiAcgdrYOSqfy4OzzKDmWex7V6i09VlJPFNVD47GWwXco3geg5HgUDfI3txWU7jOQU8/ksWOcevmAPzSSUnQdcI1hkCRJK8UJAEmStFK2ULszcs1gvr1e5fpnGeqpr67Nhr9RYZPgOLsOoLSxqPCugoU0QNmMGTQkJWc78NCdXznh396SJGlFuAeAJEladrW7/3krcEva72SxOfk7ryYiFrkh7lxjEZBlJR1otx/AQofq6unmDebtHdB0PMsY37uPyWPHWbdjhz9AklIyAjwI/DzwhuGQJEnLzbsQJEnSSv0Och+1DRIHR/SqcPSmnohq50eF06NCv4pWB0Tz8/b1RFM9k8eOc+rlA4uc/JCkFfF24No7v3wiDIUkSVqJP74lSZKW22Zg12D8LtKjgfzoh/dRNkDfeRogOkoDVF42m56upQGaNg2QpOS8CXiE2moASZKkZeUEgCRJWglXAdcbhu5EdDKxUDaY336APjq68z+/lcYyZSsWCo7PnTv+4ktMnTzpBSApuX+2gYeAcwyFJElabk4ASJKkZTWX//9BYDCTucdKVBSLbKL6nfhdpwFqqaK+XFSqZ+r4cSZeesk0QJJSdA21VECSJEnLygkASZK03LYBDwOrh+Pt9irX/3J3uWxQnsoD/VHlPUaFl6MuDdCMaYAkpfnZd+eXT/g3uCRJWlb+8iFJkpbN3N3/1wI3DNY7i2WvpqM0QGWNRZs78aumC6rSn9I0QBX2IMhgYv+LTB075g+TpBT/9n6AQV39JkmS+vqXEEmSpOX83eMBBn0AJHpVuEdpgKpOFhSkAYqWm/x7nQaouJ5oOnfq+AnGX3zZNECSUnQtcMOdXz4RhkKSJC3nH+GSJEnLZRvwCH2b+2YxejSQH33yPsruxF942qOB/qp7EARkMzOMPfsc2fS0P02SUv0MXG0oJEnScnECQJIkLadrqN0BqcqKB8Q7SgMUJYP50X6APjq687/kHUSFlEItmwQ31jTx8gGmjh/30pCUogcwDZAkSVpGTgBIkqRlse09/34V8BBwzlC84ViywiWnxiKbaboTP8rqaTN5UD/QX3R3f/NAf15dzecGTJ04wfj+l0wDJClFVwPvMAySJGm5OAEgSZKWyznUJgBGhuYdN+yru4RpgHqxVUAU9LtoIL+hTF0Fzc8X5gmi+Kb+vD0G8jINzclmZhg1DZCkNG0GHrnzyydGDIUkSVoOTgBIkqQlt+09/z6A6wmuWxjwHchHNH4/r8q5zSq2uZAGqJM28vq8MKhfP2rfWL5WLPJT/i+cFgWD+vXP69tqLhONkw959QMTL73M5NE3/OGSlOLf4PcDOw2FJElaDm4+JEmSlsMI8E5g++C/1QCylqcFL9QdCihMaVNyXsvxbtpoOmfh2/knzV/nn5Ycnx/Iz5qP01g2t57W9xRkZHWvTZ08yfiLL7Lu/POIQdxTWtIgeytw851fOvEXX7t3m7nMJEnSknIFgCRJWg7z6X+GZKQ2FnEsujjWXG839RQsGWjZtDdvGUJe+01lo36YvqCuIP95S38CZmcZffZ5sskpf7okpWYzsAtYYygkSdJScwJAkiQtg7gW4hoGO/8PrYnxoy6lTs6xajl62p4b0ZInp7ieaDf4TtP5dV9zB/GbnudOGDT1J8qOU3J+Y99OHXiFyTeO+eMlKUX3YRogSZK0DJwAkCRJS2rbe35qFbU7HbcZDSi9iz9i6duoXEXZAHzOhr9FKwuqbILcsolwUXONfZoeHWN8/36yzAwakpJzJXCTYZAkSUvNCQBJkrTUdgIPDtfvHZF4nyPnUJs78qPC+1/Y0zcq9qVolUHtSzYzw+izzzM7OelPmaTUbAJ23fmlE+7LJ0mSlpQTAJIkaclse89PBXADcI3RWFrRi9UDuWmAWsvkpwHKK9DJ6oGccyK30QYTBw4wefSoF4Ck5P7ZppYG6EJDIUmSlpITAJIkaSmtpnb3/9ahjkInY/MRvaqoyzbyylUdyO+mHqrXQ04aoLExxve/aBogSSm6Erj1zi+dCEMhSZKWihMAkiRpKe2gNgEwhHo1kN8n/a+UBijynzfV05gGqGjfgMipJ2d1wGzG6HOmAZKUpI3U9shZaygkSdJScQJAkiQtpeuBqwwDPRzzL66oozRAUZa+J8rbq5IGqOV5zmvR7pxq7/vUK6+aBkhSqu4BLjAMkiRpqTgBIEmSlsS29/zUCLAb2Gw08vQgRc9i2ui4ioppgCK6qIecesqaa04DNM7Y3n2mAZKUosuBWw2DJElaKk4ASJKkpXIB8M7h/n0jEu9zF2mAqrz/+jRAUeX8dmmAZhl79nlmz5zxp05SajYAu+780ok1hkKSJC0FJwAkSVLPbXvPTwVwE/CDRmN5taYB6mKlQaWNfSukAWq5679ociFKzqHxtYKVBKdefY0zh4+4CkBScv9sU0sD9GZDIUmSloITAJIkaSmsAR7C9D+NOlkQEH20iXCU3fWfkwaIRaQBajkebaqaSwM0Ps74vn3gBICk9FwO3H7nl06EoZAkSb3mBIAkSVoKO4EHDAOUD3ZHAt3uIg1Qw/h9hTRARXUV1pNTNssYfe4FZicnveQkpWY9sAtYZygkSVKvrTYEkiSp17Ja+p8rjESOqAVoSSuKaLkTvrDJnLJn665vI6e9hpeCjKykjyV1zn3JWsrl9Twgstw3dPq11zlz+Agb33yJ15mk1NwFXAzsMRSSJKmXXAEgSZJ6aut7fmoN8CiwyWhU0UWO/l620XEVFdMAxSLSAEWVrgfNqwemJyYYe2GP+wBIStGlmAZIkiQtAScAJElSr10E3E9f57dZbisQikVPHtQPrpekAarUToXJgMKNh1sH+gvrmZ1l9LnnmTl1yktOUmrWA7uBtYZCkiT1kimAJElSz2x9z08HZLdQ29BQDcpy/yzFseaSeSl65g9G/ua5La83p/Fpbn8+PU9TGp+F18g5/+xrtR42n5Pl1E1dGqDGvpx+/SBnDh1m5AcuJZyDkpSWu4HLgGcNhSRJ6hVXAEiSpF5aCzwCbDQUeaLhS+6x3Jej+HjpsU7KFh2Ls4+Ixu+bjgd5x2ktG3XHI+8O/yh53tSnhTprr8+cOsXY3n0waxogScl5M3DHnV80DZAkSeodJwAkSVIvXQBxb+4ArY+5EHV7jIrHKCnfST3NkxUlaYDyjjeXiZK9A+qeR1f11B3PMsaef4GZ06f9aZSUmrXU0gBtMBSSJKlXnACQJEm9dAu19AVqJ5ahok7aKB2grzLQP/+0ZO+AwjqLXoqu+nz69YOcOXzYa0xSim6nthJAkiSpJ9wDQJIk9cTW9/z0WuAxvHOxSyX5/Ity9HdYT+k+AFXrzs29T2ObTan7c5tseD2vUFNbeXsCtDyvfZ05dZrR519g46WX9mAzZElaVhcDd93xxRPPff2+beYykyRJi+YKAEmS1CtvBu4Fd14tFgk2WfGO/ShqLMrrWMjfX/+8mzv/607LZhl7/gWmJya85CSlZh21NEDrDYUkSeoFJwAkSdKibX3PTwdwG3Cp0ejAolP0dF5RlKYMiorVV8jnX1okSvsdld93/fHG9s8cOszp1w+SZd5AKyk5dwBvMQySJKkXnACQJEm9sA7YhXcsdi4Kv2lTtoOC0W1/8l6Pgue07hvc8EK01t/wPPLbormtdnXWvpk5fZrxvXs7SJ0kSX3jYuDuO754wr/XJUnSovkLhSRJWrzgYoK7FrK9+Ch5ROP3dHAuXbbZszaioEz963llIud53eB9zvPIq6fheRS8Pv81Y+yFPcycOuXPp6TUrKaWBsg9dSRJ0qI5ASBJknrhdkz/051YhooWnWoob0VB+Z4AEVGxX93uLZDX56Y0QIcPc/rgQa8xSSm6BbjcMEiSpMVabQgkSdJibH3vT28AHsf0Pz0SQEHamogOUtoU1xMEGVmP+jj/fGEH3pJToovjda8tvP+89lvrmTl9mtFnn2PTZZcRq9ybWlJSLgDuveOLx//u6/dtN5eZJEnqmisAJEnSYl1KbcNCVRYJNllyR3+lO/YblgfQtpJ2d/5XWRmQZYzv3cv0+LiXnKTUrKW2t85GQyFJkhbDCQBJktS1re/96QDuBC4xGouw6BQ9nVcUpYPr0b76KgP9bftTPtAfbdvK63NzGqAjnH7tNTI3A5aUntuAqwyDJElaDCcAJEnSYqyndofiWkPRS9Fn9bSrO38gP6KgbGmVUX5ORPs66+qZPXOGsT17YXbWy0pSas4H7rnji8f9u12SJHXNPQAkSdJiXEptA2B1rCQffl90L2+/gYDIynP5l72/+jqr5POnzX4F7fYVmDO+Zy/T4xOs2bLFy05SSkaA3cBvAaOGQ5IkdcM7CSRJUlfm0v/cDVxsNHoglqGiWIo+5+0JEHVPo2K/ut1bIK/dpjRAR45w+vXXvcYkpehG4ArDIEmSuuUEgCRJ6tZG4F3AOkOxFLrI0d9hPbHoGYG8NDxR4ZRuNvddRBqgyUlGv/8cmWmAJKVnJ/DAHV84HoZCkiR1wwkASZLUrcuAWw3DYgTlA+a9OhYlp3XaRswNwOcMvkfzIH3zQH3TawtlCo6XtbXQJuXHCchgfP9+psfGvOQkpWYNtb12zGEmSZK64gSAJEnq2Nb3/swqiLshLjo7aOujuwe0DnbnDYo3PaLLNpoeUXZedNpncp9HlNVBXT3kHo+u+tNo8ugbnHr1NbIs8wdYUmpuAt7qKgBJktQNJwAkSVI3NlC7I3G1oVhK0Wf1VGgnKrTZLs1Pw/Go8JbKVirUns9OTjL2wh4wDZCk9OwE7vPvd0mS1A1/gZAkSd24HNP/9Ej0d5NRNLhetbJu8vkXNbe4vozv28f02LiXnKQU/27fBWw2FJIkqZtfJCRJkirb+t6fCWp3Il5oNJZALH9Fi94MuCgPf8M4f7WB/uIyRTn/84rmbw5cSwP0qteYpBRdD1xlGCRJUqecAJAkSZ3aDDxGbWNCLbmyAfPoTT097Vt0cOpi0wBFm1g0rg6YnZzi5PefJZuZ8bKSlJodwIPuAyBJkjrlBIAkSerUFdQ2JFTPRIJNRnEdC4P30X6gH3qTBqjleV65jIkXX2JqdNRLTlJqVgO7ge2GQpIkdcIJAEmSVNnW9/7MKuBe4HyjsYQWnaO/84qi65UG7Qb666tZgjRA0dkmwZPHjnHqwCtkWeZ1Jik11wFvcxWAJEnqhBMAkiSpE5uobUQ4YiiWU/RZPRXaqbIxby/SALV9f419yaamGHthj2mAJKVoB/CAf8dLkqRO+IuDJEnqxJWY/meJxPLXu+iVBj0a6G+ofxFpgKLaGxvf/yLTo2NecpJS/KB4BNhmKCRJUlVOAEiSpEq2vvdngtqdh+cZjWXQszRAnTQZPehz/UB+5HR1CdIAVdkkuCkN0MSBA15jklJ0LXCNYZAkSVU5ASBJkqraCjxGbSNCLbt+TgMU3R/vRRqghnH+KmmAphl99jlmp6e9rCSl5hzg4Tu+cNy/5SVJUiX+0iBJkqq6CrjeMCylSLDJktQ7DZv1FjXW4zRALc/zymVMvPQyUydPeslJSs0ItTRAbzIUkiSpCu/gkyRJbW1978+MAPcDO43GMgogq1o2IMsWXVEQZEVlq7QRQFbeXkSQZVl5vxYO5ZXJaauobw2nn/1m6vhxTr18gLXnnLP41EeStLzeBlx3x+ePf/7rD2zPDIckSSrjCgBJklTFZmp3HPq7w5KLLo/1qo0ev5eONwnOuYu/Shqgtu+vKQ3Q9DRjz79ANj3jJScpNduBd1JbDSBJklTKP+IlSVIVVwM3GIYVEMtQ0aI3HI5FbtwbOU8rpgGKKn3Jr2v8pZeYOmEaIElJfjI8RG0/AEmSpFJOAEiSpFJb3/szq4BdwA6j0eeiN7MF3afEqX7HflReGVBUpmq+fwo3CZ46foKJl170upGUomuAaw2DJElqxwkASZLUznbgYUw1sIyC/Lvic461nFo1hVBZG3TRRjRu4tuwAXCcbS+i6XVKytTVGc2v09rWQtXRVJ7G53MFs+kZRp99ntmpKS85SanZBjx6x+eP+9ksSZJKuQmwJEkqF+FdhitifpPcxqcFL9QdykomAZrPK6mnqzaa+zz3fUP5+jJ1ry88z2ob+8bcvpbZ/AB/6+sRc1v6NrRV0G5Wt2lw3fFTr7zC1IkTrDv3XC85SSlZBTwI7AReNxySJKnslwZJkqRcW9/3syPAA5j+Z2UtOkd/5xXFYlcZVEoDFG3qLMrn326fgaJ+Na1MAKZOnGTipZfJsszrTFJqrgbeccfnj4ehkCRJRZwAkCRJZbZRS//j4MKy681AfvdtLNVbWUQ+/5ZiRXVFtfcXQTYzw+jzL5BNT3vJSUrNVmqrAFzZL0mSCjkBIEmSylwDXGcY+kAsQ0WLXmkQ1TburRu8j4gK/SiuK8o6HtX6NfHyAaaOn/Aak5SiB3GVniRJKuEEgCRJyrX1fT+7CniU2ibASkn0ZrYgup51qJ4GKPe85tdyB/LzTos2dZHTL5g+eZKx/ftNAyQpRVcB1xsGSZJUxAkASZJUZAe1OwtHDEU/6tc0QFHh5S4H+nPPb5cqqM3eAXNpgMaee55sasrLSlJqNgOP3fH546YBkiRJuZwAkCRJLba+72cDuJZaCiCtmOjvJqNC6p2ig5VWB1Qb6I+GvgTVJiEanXr1VSaPHfeSk5Ti3/QPAOcbCkmSVPTLgiRJUrMRanf/bzcUfaQXg/MdVrQcaYAi2vU7L4d/0Eman8YD0XJ8anSU8RdfNA2QpBRdCdx0x+ePh6GQJEnNnACQJEl5zgEeYkVuQVej3gzkd9/GUr2VaFOgZNKgpVibutrtiRABM7OMvbDHNECSUrR57jN7jaGQJEnNzBMoSZLyXA+8zTD0oQCyJa6okzYioOWu+YDI5urIq2zutQCy2vOIaL37vuXU4rrq/1v6nkv6derAK5x54xgbzjeThqTkPADsBF4xFJIkqZ4rACRJUoOt7/vZEeAxYKvRSFx0lDOo5MjSpwFq35e8TYKj4LSo9L6a+zU1Nsb43r2mAZKUoiuAmwyDJElq5gSAJElqthO4398TUhF9Wm2VjXgjp1iFgf6q7UVeGqCCvQMCmJlh7IU9zE5OellJSs0m4PE7Pnd8raGQJEn1TAEkSZIWbH3fzwa19D9XGY1+0rO8P0tTb24aoPrqS9IANTyv0J+8tuZeq2UUmj9eJcVRThqg115j8o03WH/hhV52klL7oLgHuBB40XBIkqR53tknSZLqrQYexvQ//a2jzD7RoyaXPg1QQ1djEZsEt5wSFfsF02PjjO9/0TRAklJ0OXDL7Z87HoZCkiTNcwJAkiTV20FtI0H1nejyWK/aWKq3UmGgv2gQv2U+oE1d7SZDImB2lrEXXjANkKQUbQQeAUwDJEmSFjgBIEmS6t0IXG0YEhDLUNGiVxpEzsa8OXfx1w3eRyxik+CFqtqtDoiCDYNrTr36GpNHj3qNSUrRvcAFhkGSJM1zAkCSJAGw9X0/txp4F7DFaPSrLlcBRHRwbpSUii76UHdO/cB8tEvnEzmvz70W9c+DtqmBoqSunOPT4+OM7dlrGiBJKboMuNUwSJKkeU4ASJKkeedD3FsbDZ0fEPUxOA+6OxY9qqdwAL6+HcgfmC84njthUDYhkJdOKOf4bMb4nr3MnjnjvwqSUrMBePftnzu+zlBIkiRwAkCSJAFb3/dzQS39zxVGIyHRZxUVpe+pT7cTVfsRHbQVrV862hOgtdzp11/nzBHTAElK8pPhTuASQyFJksAJAEmSVLOG2saBmw3FgIreDPJH15MFUeF5Tldz7/yn9PzcNqKsLC17AkyPTzCxfz/Z7KzXjqTUXArcdvvnjoehkCRJTgBIkiSAncB9hiEFXe4D0LM2elhf5H0TFcvnvV5hoH/hcMlkQgBZxtgLe5idnPSSk5Sa9cAuwDRAkiTJCQBJkgTAHcAPGoYELUcaoE7aqJIGaOFrFLYTpYP0RXsANH0XtC9bkgbo1GuvcebQYa8xSSm6C7jYMEiSpNWGQJKk4bb1fT+3BtgNbDQagyCArOBQQJYtup4gyMi671t91QFkeW3VvVbU74UiAZGdfd5YeVP5svjQUMfMqVOM7dnDhjdf0qsMSpK0XC6lNrm/x1BIkjTcXAEgSZIuAu6m93lftGQiwSY7ydVfUkdU6FCv0gDNZozt3cfM6VNecpJSsx549+2fO7bBUEiSNNycAJAkaYhtfd/PBXAzcJnRSFj0WUVV0gCVDtJH9T6VbBLcmgaooI2SNEBnDh4yDZCkVN1GbSWAJEkaYk4ASJI03NZS2yjQ9D/Doke5bKLryYKo/HpE0SB9dNlehU2Cm1YYzJyaYHzffrLZWa8dSam5BLjz9s8dc4WfJElDzD0AJEkabhcC9xiGFOXlty841ubUHhSseGp9rv66MjH3pCGff9F+AZwdpG8us5Djn1odzO0dUPQ26vcEqN9nIOrOA8b37GXHbbcyssFMGpKSMj/J//uAucwkSRpSTgBIkjSktr7/5wK4E3iL0Rgy9YPoLZpGy7OmQ5W1mzyYH2SvG/yP1v7VjuaVmZsoqH/e/L7mx/Xr+5N3XkObjYP/ZHD64EFOvX6QzZdf5rUjKTW3U0sD9KyhkCRpOJkCSJKk4bUWeBTwtuaBVJbmpoOR/JKyi04D1JLqv2qu/ip9LXheZRPhpsIzp08zvmcPWZZ5WUlKzcXAvbd/1jRAkiQNKycAJEkaXpcAdxiGlMUA9bnaprwLr5cO5NdPMFTM9x8ldWQZY/v2MzMx4SUnKTXrgHfhXj+SJA0tJwAkSRpCc+l/bqOWFkCDIpa/ouhmpUHLwHt5e9FudUDD8cgvVVgm73lrHWeOHOb0oUOuApCUopuBywyDJEnDyQkASZKG0zpqGwOuNxRDqkdpgBbRgQ5e72B1QBR9U5AGKKrVMXv6NOP79p3dKFiS0nERcPftnz3m3/+SJA0hfwGQJGk4XQLcbRgGQXR5bIX7nDvw3kkaIDpKAxSV4xj5dWQwtmcvM6dOeclJSs1qapP+7vkjSdIQcgJAkqQhs/X9Px/AvZj+Z4BE7tOCF5qORcVjXdYTVdrIezS2GVF0PJraKep3NJbJK184AVF7fubQYU699pqXm6QU3QpcbhgkSRo+TgBIkjR81kPsglhXPgDrI50H3Z0X7c6F4gHzs4+gg3paBveb9gEIKBzkbxnsp7WuljralKVCe3Pvf3ZykrEX9pDNzvqviKTUXAg8cPtnj4WhkCRpuDgBIEnS8LmU2gbAGhgxmO8lKqxAiHYb+9I+VVC7PQHmZRkTL77I9PiEl5yk1KwBHgU2GwpJkoaLEwCSJA2RufQ/d1DbA0CDqpP5gOjNHgKlWfajwuB9tG8vWsrkDfRHeQ8byrR57zntnTlylNMHD5K5GbCk9NwIXGEYJEkaLk4ASJI0XDYAu4G1hmKY9GiFQMTy9KfdQH+VvlQZ6I+i+oo3FZ49c4bxvXvBNECS0nM+cO/tnz3mOIAkSUPED35JkobLD1BbAaCBk2gaoHYpfKpMOnSQBihKBvfbxnHu0NjefUxPmAZIUnJGgF3AJkMhSdLwcAJAkqQhMZf+5wHgYqMxBKLPKqq8eiBKXo8u0gDlPG/YdDgKujC/+XFrHZNHjnDq1Ve9xiSl6CbgSsMgSdLwcAJAkqThsRF4GNP/DKkucvR3WDY623yg/KUKewK0TdsTFd9/5TK1CYHZqSnGXthDZhogSek5D3j49s8eC0MhSdJwcAJAkqThcTlwi2EYZDGY7yUqpOiJvONRXCZyKoiC582yjIkXX2J6bMxLTlJqVgOPAFsNhSRJw8EJAEmShsDW9//8KuAu4CKjMUQ6uiE/elJRdLPSoD6Hf4U7/6Nlg992aYCKehjV3l9eGqA33uDUa6+RZZnXmaTUXA9cZRgkSRoOqw2BJElDYQOw28/+YRBA1sWxTpoI6MnAd5v+BJDNl5kfgM86e0sRc8fn6oistXx9HQ3vLa/y2muzk5OM79nLliuuhJERLztJKdkJ3H/7Z449/Y2HzpkxHJIkDTZXAEiSNByuBG4zDOpbkXc3fuQ+zb9jPwrqKGiONu3lpglqLDa2bz9TpgGSlOY4wCPAZkMhSdJwfPBLkqQBtvX9Px/AO4HzjcYQij6rqMqGw21S+JytJjqoI+d5VOnXXIqhojRAB17xGpOUohuAtxoGSZIGnxMAkiQNvs3Aw8AaQyG6ydHfYdnobPOBCoejg75EmyZiUe9toY6AbHqasT17yGbMoCEpOTuAXbd/5phjApIkDTg/7CVJGnxXAjcahmESiXa7XRqgNgP9DWl72m0S3Fye/LajpL0sY+Kll5gaHfWSk5SaEeAhYLuhkCRpsDkBIEnSANv6/p9fBdyD6X+GW0c35EdPKorFrjSocOd/YxqgNnf+R1kPK+4d0NJeMHn8OKdefZWsJ5siS9Kyuha4xjBIkjTYnACQJGmwbQJ2U7vTT0OlNwP55U3EEvS1aCC/5I7+ltOKVhLUvZ53Z3/ungBRGq9saso0QJJStQN44PbPHPN3BEmSBpgTAJIkDba3AjcbhmEVizgWPWqj4Hg0H6vfmDdyHnOvtzvesmFvlD4P2tVX1Kez72F8/0tMmwZIUpofEg8D2wyFJEmDa7UhkCRpMG19/y8E8CBwrtEYVhkNg9hZwbHc86g7Xn9iFLfRpNZku3ai+PXI5pqOpvJnz4vIyLLI6XdeHVnOe5ovM3c8mHtOTvn6smfrmDp+nImXD7Bm+3YiwstOUkqum3t8wVBIkjSYXAEgSdLg2kptgz8n/JVjkTn6uym7mH62y/dfWiYKTovyuFTaqyDIpqdNAyQpVecAu27/zDHHBiRJGlB+yEuSNIC2fuAXArgauN5oDLNo/barzD7RUTMddS93DL4ujU/e9gAN50X+84UykZvVJ/+8nImCKOvT2fITLx9g6uRJLzlJKY4JPEBtPwBJkjSgH/aSJGkQP+OD+wh25qY39zG8D6qWjZ7UGaX1RPG5tCnL2T4GNN6tX5j2PxrfG/N9LChL03nkxGfO1MkTnHrlVbIs818fSam5Brj29s8cM4eZJEkDOTggSZIG0RZgt5/16n4j4A7K9iwNUJS/3nCXfpScXpIGqFKbeWmHyk6fTwP0Atn0tJecpNRsp7Zn0IihkCRp8JgTWJKkAZTBtcANRkJ9dl22ioC8u+YXXo+iM+sLU7+pbzb/fOHl+s2AC9rOaS+r1Kezz8dffImpEydYu8N9tyUlJajtGfRzwGHDIUnSYPGuQEmSBsyWD/zCqrk/5M8xGmrR0U3/vdoMOMgW08HcvP15r0WF9xftAxF5fcnZT6HptamTo4y/fAAwDZCk5LwNbxyQJGkgOQEgSdLg2Q68E5fyq5JYorJL2c8Kg/i5qYKKNvntURqgmWnG9uxhdnrGy0pSarYCu2/79DF/d5AkacA4ASBJ0gDZ8oFfCGqb+b3daOisRPd1jDYD/ZFXtqh8hT0AosrqgPL9BSZeeYWp48e95CSlODZwP7DTUEiSNHgf8pIkabA+2x8AdhgKFVqqNEClTS5yE+Eo63zjYHxEhTra3dm/kE2oszRA0ydPMvHKK2SZaYAkJecq4PrbPn0sDIUkSYM1SCBJkgbHdmAXyd7yraUTXR7roGzEEvc1Jy1P6Wh/+d36jS/1Kg3QDGMvvEA2Pe0lJyk1W4GHgdWGQpKkweEEgCRJg+W6uYdUrt+miIoG8quk5Wn3pnI3CS6YFOhFGqCXX2by2DGvMUkpeieuIpQkaaA4ASBJ0oDY8oFfWEXt7v9tRkOd69Gd/SVlY7ErDXIH8vNeq08DFIt433VpgIrqy0sDNDbGxEsvmQZIUoquBm4xDJIkDQ4nACRJGhw7qG3g5+e7CkSf1bPYtjtYHZC3SXDLS1GxvYKy9WmA9u41DZCkFG0Gdt/26WOmAZIkaUA4QCBJ0gDY8oFfCODtwDVGQwOnPuVO2zH6+kmBdoULXq+UBii38YVnp1591TRAkpL8Fxe4FzjfUEiSNBic1ZckaTCMUMvbu91QqFwAWcvTghfqDgU0pLQpKVtyLAiyrtpornP++/qvNJQ5W11T2QCy+VUA2dzzLL/emCuS205zfWfrmBodY+Lll1m3c2fv9kaWpOVxBXDjbZ9+49VvPvwmc5lJkpQ4VwBIkjQYzqWW/9+hRlUQizgW7ctGp/VUbWP+2Kra19yVAZHzoOlrwfMoKhtNx2lfx+wso88/z+zkpJebpNRsBh4B1hgKSZLS5woASZIGQlyP6X9UWd2d7C0369ff5Z53HrTeBd+mjbb11F/KzN2239RGw+tFKwHmyjesJCh4feF55PQpy1mNQHl9OasVTr36GpPH3mDDBRd4yUlKzf3AecABQyFJUtpcASBJUuK2fOAXR4Dd1O7YkxapLO99BwtMSspGRwtVouSlaLPmJeq6UbJyIcree+2u/ihtL3LqCKbHxxnf/yJZZgYNScn5QeAOwyBJUvqcAJAkKX07qW3Y5+e6Koo+q2exbUf1PkWbTYCj6vsq2Sh4/qXZWcb37jMNkKQUbQB23fbpN0wDJElS4hwokCQpYVs+8IsBvAO42mhoYBQN0ufm/C84L/Jy9LecUL0fUTDJEOX1nXr9dSaPHfP/qaTk/iUG7gYuMhSSJKXNCQBJktK2GngI2Goo1LWOMvJEj5qMHnUw2pYpTAMUBc9LWyqZTMipb3psnImXXjYNkKQUXQbcfNun3whDIUlS2oMGkiQpXecBDxsGda5l99+KxzooW7iR7mK6nbPxbsv+u3l9at2kt/C9NNTRvElw/en1ZQrqy2YZfe55tl9/HSPr1nvZSUrJRmAX8AngjOGQJClNrgCQJCltN1HbqE9anH67v7PtSoMKaX0KUwnltVOhLN2lATr9+uucOfqG15ikFN2HaYAkSUqaEwCSJCVqywd+cTWwG9hkNNR7JQPwnaQBirKUOotMA9SScqd4UqAwDVBRfXmNRV0aoKCwTGMdwfSpU4zv228aIEkpuhy487ZPmQZIkqRUOQEgSVK6zqe2QZ9/lKtL0Wf19KjtwsmACqsD5ss01NHlHgTzL83OMr5vH7NnzKAhKTnrqd1ssNZQSJKUJicAJElK0JYP/GJQS/9zpdFQyqKblQb1aXuK7sTPK9u2nU5SBjW3U3RCzemDBzlz9KirACSl6A7gEsMgSVKanACQJClNa4BHgM2GQj3TUUaeWJqyXXew/UB/T9IANf03t0xOaqLpiQnGX3yp95siS9LSuxS4zTRAkiSlyQkASZLSdCHwoGHQ4kWXxxZTthfdzhnEb3mpTRogOkgDFG32IGgXgyxj7PnnTQMkKUXrgV3AOkMhSVJ6nACQJClNt1DbmE/qrX67v7Pt6oFo/3pRip/c1D7RYZCiTX1nnT58mDNHjniNSUrRPcCbDYMkSelxAkCSpMRs+cAvrqW2Id8Go6Gl10WO/g7LxmJXGuSk3GnfjUWkAYq6NEDt9iCoWx0wc+o0Y/v2uQ+ApBS9GbjHNECSJKXHCQBJktJzIXAX/XevtpIVfVZPj9qukgYoOkgD1O0eBPMvZbOM79vP7OnTXnKSUrOOWhqg9YZCkqS0OAEgSVJCtnzwFwPT/2ipLdlmwGWHulhpUJ+2J/eG/rrXi8p2Ul+QU1/zc0pfP334MKePHHEVgKQU3UZtQ2BJkpQQJwAkSUrLfPqfjYZCS6p+sLvdjEBQcdIgerRIoGjAnbOD7nmD8kFjlqDI2+y3uZm8O/rj7Jdoc17TCoKZU6cY378fnACQlJ5LgDtMAyRJUlqcAJAkKbU/voP7FwZcffjo2SMav59X5dyGstG+bHRYL2XH69prHsSvf73dAH3eqoHmFQTtBvwjStqb/5ox9sILzJgGSFJ61gKP4h5EkiQlZbUhkCQpKbfj8nstmQCylqcFL5Qc66TsItqIrO6l+u/nyy4k358rEnN33tfXFTnHm54X9qu+nawghs1lgjNHjnDm0CFW/8BlXnKSUnMntTSEf2coJElKgysAJElKxJYP/tI6aul/3IBPSyg6P5abKqeTsvVnRBd9zVkaEGXLDSAib0lCled1j4izexcEbcqePT5zZpKxvfvcB0BSii4E7rvtSdMASZKUClcASJKUjksg7jAMWlr1d84v5lgP6gmacuVHa9mGO/Xry9Tddd9yJ/788bnyLSsHmp63WznQ3GbDygRay2cZ4y++yMypU6ze6HYekpKyFngY+G1g3HBIktT/XAEgSVICtnzwlwK4DdP/aDl1dDN+9KjJWERHo2Dj4qjwnvLu5C84Iaq879Y7/+udOXKE04cOuQpAUopuoZYGSJIkJcAJAEmS0rAeeBem/9GK6lHGh4jl6U+UlYm5NEAlZXIH+lt3KI6q76s+DdDp04zv29e0ekGSknARcNdtT77heIIkSQnwA1uSpDRcCtxlGLT0or/qqTJZUPmu/ajQ3eKB/vK319R+u5UIwNjevUxPTHjJSUrNauBRwBxmkiQlwAkASZLScBdwsWHQsosEOxxt3kgUDcpHwUtRUF/k1FfUdE4aoDfe4MyhQ15jklJ0G3ClYZAkqf85ASBJUp/b8sFf2gDsBtYZDa28srviO5gtKCnb2T4A3eXgX2gpqtTT/r23pgEqWEFQ15/ZyUlG9+whm531spKUmvOAB2578o0wFJIk9TcnACRJ6n+XArcaBi2fQUgD1K5M2ea+UXzTf8u5JRME7cpnGRMvvcSMaYAkpWcN8DCw2VBIktTfnACQJKmPbfngLwVwJ3CJ0dCK6eiG/OhRk7G4DrcbfI+iN1hxcL/5vUabFQQlaYBOHTxI5mbAktJzI6YBkiSp7zkBIElSf9sIPA6sNRTqH8t4Z3+lst3l4J8/2DYNUO5AfxT3oqRMc39mz5xhbO9eMA2QpPScD9xz25NvOK4gSVIfW20IJEnqa5dT22hPWmYBZH1UT9Wm5tubH3zPSsqUdbe+nqximznvt6W+1jLj+/czNT7Omq1bvewkpWQEeAz4beCE4ZAkqT85Uy9JUp+aS/9zD3CB0dCKi5VoMnrU56I0QG3S/bS8FOWBiaIel6cBmjx2jNMHD3qNSUrRTcBVhkGSpP7lBIAkSf1rI7AL0/+oL5UMzvcstU8v+lM++D5/sG0aoNxJhCoxqJAGaHKSsT17yEwDJCk9O4AHb33yjTAUkiT1JycAJEnqX5cBNxsGrZzor3qqTBZEhfYaykRJdyO/vmjXZhTXV1Bm4uWXmR4f95KTlJrVwEOAOcwkSepTTgBIktSHtnzwl1YB9wIXGQ31jU7G8Xt0Z//i0gBFhTRARW8wOghCVHjfbdIAvfEGp157jSzLvM4kpeZ64GpXAUiS1J+cAJAkqT9tAh6ndmed1KeiN2V7ljKoh2mAok3bJSl+okKZ5v7MTk0x9sILpgGSlKKdwH2OL0iS1J8cVJAkqT9dSW1jPWmFBZCtwLmLqCeAbP6cgnOrlGlou00fWuqjsfzC6cVlJl56iemxMdZu3eZlJyklq4BHgV8HjhkOSZL674NakiT1kS0f/OWgdifdTqOh/lCUMmf+hfZ3uLctW3Is6Lae+Tv/o+71aC0TFBxfNXe8vmxRXY31BRSXibz3EkyeOMHpV1/1cpOUoncAbzMMkiT1HycAJEnqP5shHoFYUzzQ6MPHcj5YxHFoHbDPKRc9qqdlc9+m8kFOXWe/RmHanpw+RNGkRFGZnHrqJkmyqWnG9uwlm5nxX0FJqTkHeOjWJ95wjEGSpD7jh7MkSf3nCuBGw6D+Ef1VT5U9A9rk+28tEyXdjTb1VWmT9nsCkDFx4ABTY2NecpJSMwK8E9huKCRJ6i9OAEiS1Ee2fPCXVwEPAOcbDfWtjvb+jR41uch6Km3Im/dN0cTAIstE85O5NEDHj3Pq1VfJsszrTFJq3g5cc+sTb4ShkCSpfzgBIElSf9kCPEbtTjqpj0SXxzoo28lkQXTSn3aD740Ho+XO/+ayUaEfdVMWUTQREC0vZdNTjL3wgmmAJKVoB7WbGBxnkCSpj/jBLElSf7ma2kZ6Un+LVPq4yDRAld94a07/8tOL65k48DLTo6NeY5JS/GR4DHiToZAkqX84ASBJUp/Y8qFfDmr5c3cYDSWh6iRARAdlyw5F5+1HUz/mX8y7Kb9h796cu/xb9vmN8n5EXZ+jvvLmvjX2Z+rkSSZeecXrS1KK3gZcaxgkSeofTgBIktQ/thI8RLB6YaDRh49+flD/fXRQtuwRXbbfrp4Kg/gLr0eH59WVp+h5Th31bdU9z2ZmGNu7l9npaf9VlJSabcCuW594w7EGSZL6hB/KkiT1j6uA6w2D+lf0Vz3RzbKCohz8UVxny536i0vxU9oWQJZx6pUDpgGSlKJVwP24mlGSpL6x2hBIkrTytnzol0eAR4CdRkPJCCCrWjYgy3rQZJCRLb6/lfrTcELrmw0gm399fjA/yzk9ILLyWC30p1bP1IkTTBx4mTXbt3e0N7Ik9YFrgLff+sTRz39r947McEiStLJcASBJUn/YRm0CwM9m9bno8lgHZTsZ8Y5O+hMd9CXqqo6CO/ujwtup37mgzUqEum+zmRnG9uwhMw2QpPRsBx4ERgyFJEkrz0EGSZL6wzXAdYZByYlU+li0YW9OGqB2b6o0DVAUbza8UCTynzfVM/HKK0ydPOE1JinFT4bdwLmGQpKklecEgCRJK2zLh355FfAQtTvmpMHVo1w2saiVBnk78RafEpG3g29z2eigz1VWPtS+To+OMnHggNeNpBRdjfsaSZLUF5wAkCRp5W3HpfIaGMu9wW/FstHutbwB+ujs/Rbe2R8FVVdIA7R3L7NTU7X9A3z48OEjncdmMnbf+smj/m4jSdIKcwJAkqQVtOVDvxzA24BrjYbSEX1WTzfttRugL7vbPyrf+V9p34GSNECnXn2VqRMnveQkpWYVcC+w01BIkrTyH8qSJGnljFDb/HeHoVCyOsrIsxJpgEr6G7H4N9iyf0AUnF5h4qApDdDU6CgTL79ElmVeZ5JSczXwjls/eTQMhSRJK8cJAEmSVtY5wMOksZWqVCe6PNZB2baD81GxbPPd/kX5+CN3MD9aBvBby+S/naZ6WvpcUs/8SzMzjO7ZSzY15SUnKTVbqd3ksNpQSJK0cpwAkCRpZb0duMYwKE1FA9/zL5Slv6maaz+oPtnQps36u+tbNvddRfHkQOQ/ok2Z+gH+3MH+5rL5x06/9hqTJ054uUlK0cPAeYZBkqSV40y8JEkrZMuHfmXV3B/G24yG0pRRPOA+n7KmIJd+Vn9uST0tZZsO0VwPbfoUTe1ltYH8hhQ7Ufd6rUxEFKThmR/gzyCLuj6Q21YQc30uqKelP8H0+DgTL7/MunPPJcLFQpKScgVwE/CKoZAkaWW4AkCSpJWzA3jAz2MNphUYqK4yOB5VC1TP059fRRT3qaM9ASCbmWFs3z6y6WkvK0mp2QTsvvWTR735UJKkFeKAgyRJK2DLh34lgOuAtxkNpSv6rJ5u2st53vJSSbqiaFdnlXbbt3X6tdeYPH7cS05Sih8UdwPnGwpJklaGEwCSJK2M1cBuYLuh0MDoaO/f6FGTi6gnqmwi3MHAfkvO/6YyUdfndhMHTf2ZGhtj/MUXC9IQSVJfuxK46dZPHjWHmSRJK8AJAEmSVsYO4J2GQemLLo91ULaTyYLoRX/yU/M07vkbHbz/qPDW27z/2VnG9u5ldmrKS05SajZTu+lhjaGQJGn5OQEgSdLKeAdwtWHQwIlU+phz137pG1hEGqDciYOCtsrSAL3+OpNvvOE1JilF7wQuNAySJC0/JwAkSVpmWz70KyPAI9TuiJMG3NLf2R+LWmlQIQ1Q3esRHaQBovh5YxqgKv0JpicmmHj5ZdMASUrRZcAthkGSpOXnBIAkSctvJ3C/n8NSsx4tH6gysRBVC1SZwIj2bZROHESFNEDU0gDt22caIEkp2gDsvvWTR9caCkmSlpcDD5IkLaMtH/qVAG4ArjIaGhxR+m3f97vorv2WlxaRBqiTADW0FZgGSNKAfFDchWmAJEladk4ASJK0vNYAjwFbDYVEZ2mAyqpZ1KxDhTRAdJkGKHLKRF2fO9k/AJgeH2f8xRfJZme9diSl5nLglls/eTQMhSRJy8cJAEmSltdO4D7DoMETXR7roGyP9gyo3p8qqXmig/ffyZ3/eX0JyDLG9u41DZCkFG0EHgfWGQpJkpbPakMgSdKyugm40jBo4AWQpdDHuY7WPy99AyVlFr4NiOzs8/kyDafWBvPPDvhnxX1rcvrQISaPHmXDhRd5nUlKzd3AxcAeQyFJ0vJwBYAkSctky4d+ZTWwC9hkNDR8lv7O/ljUSoMKaYCigzRAFZ8X3/Rf1J9g5tSpWhqgLPOykpSaS4HbDYMkScvHCQBJkpbPBcC9JLRFqtSZ6K96qkwsRNUCbVLzlJWJKn2a2+y3bRogYHaWsf37mT1zxktOUmrWA7tv/cujpgGSJGmZOAEgSdIy2PKhXwngVkz/o2ESiXW0ZfA9ZyPftnsCND+J4vLRyZ4AjWVPHzzImaNHvcYkpegO4BLDIEnS8nACQJKk5bEW2I3pfzTwouTbTtIAdZcyqCUNUJXNgBcG2uvuwG9Ku9NQZr6lyEvTU3duw/H69qLheSzUn9NW1L92tq1aGqD9ZLOzXnKSUnMpcMetf3nUFZGSJC0DJwAkSVoeFwD3GAYNh3aTACV3xEcU11NatqSNKmWLJgEWBuvrnrcM9je/Xtf3vPMXDjeVqW8vb0IgGuswDZCkRK0H3jX3VZIkLbHVhkCSpGUQcStwuYHQcMhoGIBv+HZ+49qcAfn5TW0XBtIzCicBWso2t1/XRpWyWUA0Pc/m6lh4PldlNlfXQr31Tcbc8axWD1nT8bn/zJdhrp7mMtn8wH/W1J+z7Z05fJgzR4+y8RIzaUhKzh3UVgI8aygkSVpaTgBIkrTEtvzQf1gD7AI2GA2pfqS7+VDdoHrbaorLBkFG1mV/6r5vaKNlhL5ubqBpgD6v6oW68t9/bcy/vMzCxMDcxMjMmTOMvbifDRdfXG3DY0nqHxcDd+EEgCRJS84UQJIkLb2LgLtJaEtUaXGiv+qpMjgeVY+X7VVQ5Xn9SyVlok09AczOMv7ii8ycPu0lJyk164Ddt/zlUW+OkCRpiTkBIEnSEtryQ/8hgDsx/Y+GWaxEk9F9RxsG53P2LIg2byx3c+CSoLQrE8VtnTl8mNOHD5NVXTkhSf3jVmppgCRJ0hJyAkCSpKW1DtiN6X+kapYqlU1pvSV39Uebcxb26412JzRuHlxUY5syzZMTM6dPM/7i/uqpkySpf1wC3HPLXx51XEKSpCXkB60kSUtrPsetNGSiy2MdlO31ZEGUtRclg/PR+nK7FD9VylRJA5RljO/fbxogSSlaCzyGN0lIkrSknACQJGmJzKX/uR2Xt0vp7YARbTrdLg1Qu8H/5tcjCkoWpQE6+/zM0aOcOXzYa0xSim7FNImSJC0pJwAkSVo6a6ml/1lvKKRmPbqzv6RsLGqlQVGO/pzn9WmA8iYOIq+/3acKaq5v9swZxvfvdx8ASSm6gFoaoDAUkiQtjdWGQJKkJfNmahsAS0MqgKx/6olonyu/tKmAyOaONxcsOrH+9ZwyAWQlZRa+LSmTZYy/9CJvmphg9cZNXnaSUrIW2AX8DjBuOCRJ6j1XAEiStATm0v/cDfyA0ZDmdHRDfvSoyei+o00b7ha/n8h/bxEV3k9nKw2KgnjmyBFOHzzkKgBJKboZuMwwSJK0NJwAkCRpaWyglv5nraGQemHpUwaVpwEqKhdNzxaf4qdxnD9K6jhbz+yZM4y/uB+yWS8VSam5CLj/lr846viEJElLwA9YSZKWxpupbQAsDbno8thKd7nkjv3Cwflofblk897KZdpOBtS+jL/4IjOnTnvJSUrNauAxwBxmkiQtAScAJEnqsbn0P3cBFxsNqUmk2N+o8H6i4O11lwaosJ6SyYLJY29w+tBBrzFJKboJuNIwSJLUe04ASJLUe+upbWi3zlBI7Sx9ap/O9gEoSwNUJUf/3JOo+t4WUSYay85OTjK+bx/ZrGmAJCVnJ3DfLX9xNAyFJEm95QSAJEm9dxmm/5HqRH/VU2ViIdocbJcGqLTCXqQBitYyWcb4yy8xPTHhJScpNWuAR4DNhkKSpN5abQgkSeqdzT/0q6sysnuBS4yGVC+ArOVpwQt1hwKyrFrZjo4FWduyc18jmqrNGssFkNWtAsiyuvqj4bXWLs63U/d8oXxjX7L5MvUxWehbrcyZN97g9Ouvs/qKK4jwRlpJSbmRWhqgZwyFJEm94woASZJ6awPEbog1Z+/Q9eHDx7I8YonKAq05+EvKVKmnoQ/klImKZRqfz05OMbZ/P5gGSFJ6zgcevOUvjo4YCkmSescJAEmSeuty4BbDIA2A3DQ/kfs0b3+A1peiQnvFKYSiMO1QYx8mTAMkKU0j1PZQMg2QJEk9ZAogSZJ6ZPMP/WoA9wIXGA2pjbJsPX3b36JO179eoUxDWqP69D9V26uvrildETB5/BinD77Omi2OoUlKzjuAq4FvGgpJknrDFQCSJPXORuBhYK2hkDpVcnd8J7nsS8tGF/1ps2FvREkz83ftR8UuFa00iPIyTS/NTk0xtm8fmWmAJKVnB/DOW/7iiJuYSJLUI04ASJLUOz8I3GYYpCLRV/VU2iS3XRqgwn61mThoyOFf9/pi0wBR2xR4/OWXmR4b85KTlJrVwEPAVkMhSVJvOAEgSVIPbP6hX11FLf3PhUZDqqijG/L7YPKgzeB8w2RBJ/sHVGqvfKVBc98mjx/j1GuvkWWZ15mk1FxPLQ2QJEnqAScAJEnqjU3Abmob2Ekq1OsUPXmHqtcTlVIGRUEbUanf0XbioE2Kn5bT269GyKamGdu/3zRAklK0E3jklr844u9UkiT1gBMAkiT1xhXAjYZBGkDt0u40jMcXpfipL9smhVAnaYDyis0VmDhwwDRAklK0itqeStsMhSRJvflglSRJi7D5h341gAeo3bEmqRORWAdbBuejwzdTsLlvlE0uVFlp0Fpm8sRxTr/+uteYpBRdB1xjGCRJWjwnACRJWrzN1O5UW2MopC4UprdpLhfVJwxKy0ZT0Qr1Rk46noYsQEXHa4Ui6sq0nT8o2E8givqTX282Pc3Yvn1kMzOQ4cOHDx8pPbaT8dAtnzjimIUkSYu02hBIktS9zR/+1QDeCtxsNKSqgtoIz5yM6gP7DWWb6ikt20m9bfqeZWcH3bOs9bwsILLWevP6ns0P8Gdzx6Pgef35QWQZWdT3p7mt2gvjB15m6uQoa7dv97KTlJIR4EHg54E3DIckSd1zNl2SpMV/lt4PnGcopC51tPdvrECjJadGzsGiO/nzTqq6+mGhriqbH58tM3XiBKdee5Usy7zOJKXm7cC1t3ziSBgKSZK65wSAJEmLsxnY5Weq1Kno8lgHZTuYLIjoLL9+47F2OfqjrjslZYpS/FTaTDhyu5zNzDC2f38tDZAkpeVNwCPUVgNIkqQuOVghSdLiXAVcbxikIZB7N3/ecXLvxm8tG1SoqLBMtLSVf+7EK68wPTbm/z9JKf6r+xBwjqGQJKl7TgBIktSlufz/DwI7jIa0SEuV4CGWaKVB6R34UXBqURqgKO9vS0qhqNDNujRAoyeZeNU0QJKSdA21VECSJKlLTgBIktS9bcDDwGpDIfVaJ6l9ejN7EJVSBkX5S7HINEDFFecWjyppgKanGdu/1zRAkpL9XeuWTxxx7EKSpC75ISpJUhc2f/jXArgWuMFoSN2qz59fdLzqsWXYU6DhDvzmB01f8443lYm64y1pfJraCnLaaq6ruO2JA68wdfKkl5yk1KwCHsDVlpIkLerDVJIkdfUZGg9A7MgfcPPhw0e1BzQOghcca350UrblWL1u6pn7GkV9h5ZB/Wg3IUCFvufUm1cmZzJhemyUU6++YhogSSl6G/COWz5xJAyFJEldDV5IkqQubAMeYekyl0tDYhnu3I/q9USlPQOiTfvlqxOi7Z4AVfrevDKgoMx8GqCZGcb27yObnvaSk5Sa7cAuTLkoSVJXnACQJKk711BLASQpOdGj06PCXECbfP+d7AlQUFfjfELRJEUw8eprTI2O+r9fUooewDRAkiR1xQkASZI6tPnDv7YKeAg4x2hIPRZtX6g71MFAfsRSdZDylD55fYiSqqOgv031drKKYO6b6bFRJl45YBogSSm6GniHYZAkqXNOAEiS1LlzqE0AjBgKqReir+qJSpMFkXdi/vOc8m3TAHXyvgKiUhqgWcb275/KZmZmveYkJWYz8Mgtnzji716SJHXICQBJkjr56/PDvxbA9cB1RkNKWQ/TALWrr5M0QHkrIHJTCkV+m1Hel9OHDn0T2Of/f0mJWQXcD+w0FJIkdf4hKkmSqhsB3kltQzpJS6GjvX+jv/obuS/k9LebzYaj4NuiNEAtr09Oj419LEZGPgeYB0hSat4K3HzLJ46EoZAkqTonACRJ6sx8+h//+JR6Kro81kHZDiYLytMAlQ3il6X0KUkDlDeY38vNhAOIeHV2avpzEfFJ4JTXnKTEbAZ2AWsMhSRJ1TkBIElSZ64FrjEM0hKLBBppGcCP4uqjSn7/TjcTLu5OwSTFt4h4EfgrYL8XmaQE3YdpgCRJ6shqQyBJUjWbP/xrq6jdebbNaEjLLSjMWhMBWcWMNp2U7bY/LcebngdzfSioo6F4c3+b68rmvi1o7+zTMxCfIFadJuN14EvA27yuJCXmSuAm4BVDIUlSNa4AkCSpunOp5f/381NaEtFX9USVlEF5ZSLKj+cWbbO5b2ldZ9MARXEaoJeJ+Oqpz/ybWWASeAKY8JqTlJhNwK5b/vyINzNKklSRAxiSJFWw+cO/FsCNeMesNGB6PelQdQ+CnOdl2wd0uplwcxqgiG8Qq14G+Kt3n5sB3wSe8/+/pAT/0b4XuMBQSJJUjbPmkiRV/8x8ENhqKKRl0i7LTkPZXqX2WUQHW7LwFKUBqv+26E3OD97npQqqUldDGqDTEE9GrDpTV8nBDL4CvAM3NZeUlh8Ebrv5z4+88lRtQlOSJJVwBYAkSdXsoDYBIGlJRZfHOigb1euplAYot62iNECtKX6iZTPhkuorpAHKqeQAEV+b+PS/Whgo+6t3nztNLQ3QuNecpMRspLYn01pDIUlSe04ASJJUzfXAVYZBWmaRQCMtA/jRRVPR4XMK0wA1bisQQHwVOJDT6NPAHi8ySQm6B9MASZJUiRMAkiS1sfnDvzYC7AY2Gw1pOXS5CqDl7vjerAKo1p8oOFS0uW80DOC3bgZMyWbCORsFF20mHJwi+ESsGjmd0/nDwOe93iQl6HLgVsMgSVJ7TgBIktTeBcA7/dyUllP06FjVslFYNqJCPVFfRzTVF00D9AVlqj4vbCsWOny2t/EirPrWxKf+ZV6e7ClqaYBOer1JSswGYNfNf35kjaGQJKmcmwBLklRi84d/PYCbqG04J2nZzG9+u9hjS1U271jz17xzs6YNi6O1TGRnN/WNbG4z4fky0LjBb/Pmxw3tZ8BXI1a9ktfrp959bnbznx95BngW76SVlJaglgbozcBewyFJUjHvZJQkqdwa4CFM/yOtnI6y9cTSlO2kgy1p+6vsCVBh5ULkVp7zfmL+v6chnpz49L+cLOn8YeBLwKwXmqTEXA7cfvOfHwlDIUlSMScAJEkqtxN4wDBIy63bFECLKVtSS6XJgih/rXRPABr3AYg29bfb7yCAiP0R8c2yHj/17nNnqKUBGvOak5SY9cAuYJ2hkCSpmBMAkiSVuwm4wjBIKywSaKRlAL9kkD6K2s05p+0qgsLzvwS8WqHn3wGe8yKTlKC7gIsNgyRJxZwAkCSpwOYP//pqYDewyWhI/abqgHi7amIZ+lN2vHGD4Ig2dbZNA7TwZBziL1k1Mlmh80eBz3pNSUrQpZgGSJKkUm4CLElSsYuA+1mme48lNavb7Dbn2+qndn1i45EIsqxNPQub8kbOZr7z1c+1Ud9US7P159cfL9gAuL7emr1EPDXx5D+v8sanyXgC+O+B7V53khKyntrNGn8EnDEckiS1cgWAJEk5Nn/k1wO4FXiL0ZD6SHRQMDqos5dlG27Qz9kDIJqeN/c3onGrgPlv5uuq70P++RkRXyZWvV7lLT317nMz4G+A73qBSUrQncAPGAZJkvI5ASBJUr61BI8QbFwYbPPhw8fKP6j/PjooW/aI6mUpqzfy9/jNHfCnYMC/bMKgoK5o2Rx4Anhy4sl/PtXBv3lHgS8As/7zLykxPwDcefOfmQZIkqQ8TgBIkpTvAuBewyCttOireqLSngFR/lreXf0NbdQVjHb1R95Le4j4q07e11PvOXcWeBI44TUnKTFrqaUB2mAoJElq5QSAJEn5bgEuMwxSn4kEGmkZwI+K9Zds7ltYV9758TmIQ130/O+A73mRSUrQ7cCbDYMkSa2cAJAkqcnmj/z6WuAxvJNMSkDJgHh0MJAfy7DSoHQAv3E/gMbuRHFd0VwmRiE+yaqRqS46fwz4NNV3TJakfnExcJdpgCRJauUEgCRJrd5MLf2Pf0RKfWEl0gAVl62UBigip56CNEDt7uqvmgao5nngryc++c+6GcSfoZYG6KjXnKTErKOWBmi9oZAkqZETAJIk1dn8kV8P4DbgUqMh9amOxvGjT/pbkgYoivqbs+tw2SqCiIzgi6waOdxNN596z7kZtRRAf+tFJilBdwBvMQySJDVyAkCSpEbrgF14B5mUkB4N8vdDGqBO3lNDGqAAGIN4cuKT/2x6EZ0/DnyO2moASUrJxcDdN//ZEcc5JEmq4wejJEmtfzzeZRikfhN9VU/P0wDl1BctmwmX1FX7/jmIby/mfT31nnNngc9Q2w9AklKymloaIPdwkiSp6QNSkiSddTum/5H6VLCwP23d04IXSo5VLVtWrmo9c18DyJrrpuD8+nNpfZ5bV5YBnyLiyOLjnH0P+Dvgfq85SYm5BbgcU5lJkrTAFQCSJM3Z/JHfWA+8C9P/SH0sOj/WLgd/adnors2GY9H4PJqf1z9W1b02X7S5npy6Ik4Q8SmC6R4E+QTwBDDr9SYpMRcA9978Z4fDUEiSVOMKAEmSzvoBiDsNg9TP6u+GX8yxxZeNgCxrU0+tEK13/OetNMhbqVDXfmR1h1tWE3wf+NuJv/xfsx4EeT4N0D8Bzveak5SQtcAjwG8D44ZDkiRXAEiSBMDmj/xGAHcClxgNKRGd3N8Z0Uf9LdsToF1/51YANNY1C3yeWHW0F9186j07M+BZ4DteZJISdBtwlWGQJKnGCQBJkmrWA7uo3TkmKUk9GuTvYLKgfDPgkk2Ao6y/0UEbQHCS4NMTf/lPZ3oYzJPUVgFMe11JSswFwD03/9lhxzskScIJAEmS5l1KbQNgSX0t+qyeTpqqsO9AlO1V0Hzn/8IEw3dhVU/v1p9bBfBZ4KjXnKTEjAC7gU2GQpIkJwAkSZpP/3M3cLHRkBITiTXSLg1QJ+3WDmfAEwTHluCNP4dpgCSl6UbgCsMgSZKbAEuSBLAReBewzlBIqWveSLf+0PyGvFWq6aBspf7kbPobQFb/vOm8uk1/I6Jpw+GFut4APjfxF/90KVL1jJLxCeBBanfUSlIqdgIP3PxfD//1U+/dmRkOSdIwcwWAJElwGXCrYZBSsRJpgIrLRpU9A6JKm1FQJorrCr5L8N2liPJT79k5C3wROOg1Jykxa6jt7bTFUEiShp0TAJKkobb5I7+xilr6n4uMhpSojsbxo4/6G/kTA1GlvwEwA/FZiGNL2NsXgGe8yCQl6CbgrTf/18NhKCRJw8wJAEnSsNtA7Q4x0+JJA6NHYz0dTBaUrwLIu7O/0+e5bRwHPjPxF//v2SUM5hjwaWDK60pSYnYC9+G4hyRpyPlBKEkadpdj+h8pQf2VBqiz06N99VGWBmhh5cDfQPzdUkZ5Lnf254HDXnOSErOK2k0emw2FJGnYPxAlSRpKmz/yGwHcA1xgNKTEpZwGaOFrdNLfWSL+kogTy9DbPcDTXmSSEnQ9cJVhkCQNMycAJEnDbDPwOLDWUEiDZvnTAFXrT06KnyjrdlEaoDgC8YWJT/wvM8sQzHHgE8C015WkxOwAHnQfAEnSMHMCQJI0zK6gtkGcpCT1VxqgqDJZ0C4NUMNKgLI0QPwN8OxyRPmp9+6cBb4MvOo1Jykxq4FHgO2GQpI0rJwAkCQNpc0f+Y1VwL3A+UZDGhAppwGKNu+nob8xDXwmYtWJZeztPuCvvMgkJegdwNtcBSBJGlZOAEiShtUmahvDjRgKaVD1aIPfDiYLylcBlKQBqvwcIngjIj47/uf/z2wZgzkBfBqY9LqSlJgdwAM4/iFJGlJ+AEqShtWVmP5HGgBR+m35qdGbNrs+PfJTAkXZ8wB4Cvj+ckb5qffuzIAvAa97zUlK8IPiEWCboZAkDSMnACRJQ2fzD/9mULsT7DyjIQ2C+rz5NI3PB9Xv7i8pG5FTloplc/oTdasB5p8vnBf1g/2Nz4kZiCcgRlcg0PuAb3q9SUrQtcA1hkGSNIxWGwJJ0hDaSsRjfg5Kg2I+E06c/TaajxcMyGdZ3WB8Uz1ty5aUg5JJgAyy+bv/855nc9XHXJey2vHasUMQXxz/s/95dgUCPQF8AngvsNbrTlJCzgEevvm/Hv7a3MbmkiQNDVcASJKG0VXA9YZBGhSxAvUUl40qqYWiXT1RUC6egdizElGeSwP0NeCA15ykxIxQSwP0JkMhSRo23vkoSRoqm3/4N0eA+4GdRkMaUMHZm/nblo2zd+yveH/r7v7PKxBMA58my0ZXrK8ZL1FLA/QWLzRJiXkbcN3N/+Xw5596387McEiShoUrACRJw2YztTvA/AyUBkp0eayDsh1sGly+CiBy2mp6nrtCIA5DfGH8z/7nlRy4Og08CZzxmpOUmO3AO6mtBpAkaWg4+CFJGjZXA+8wDNKAiwQaqR/kj5ICZ499A3h+JcM6d9fsV4FXvMgkJfjJ8BC1/QAkSRoapgCSJA2NzT/8m6vm/vDbYTQkLViRNEBFeYrmX28+HtOQPQExvtLhyuAlansBmAZIUmquAa4FPm8oJEnDwhUAkqRhsh3YjRPg0hDq0ZKA6PHSgshJA9SSISgAXoP48vh//X/M9kEwTwOfmPsqSSnZBuy+6b8cNg2QJGloOAEgSRom83d9SRpIsQL1FJeN6EU9C5MCTxHs64coP11LA/RNaisBJCklq4AHgXMNhSRpmD78JEkaeJt/+DdHgAcw/Y80PDoaf48+6u/8ngALL0xBPMnI2ok+iu4B4OteZJIS9Fbghpv+y+EwFJKkYeAEgCRpWGwDHmaZtgaVtFKiy2MdlO1gsqB8FUDktBV5RV4DvjT+x/9j1keBngSewDRAktKzldoqAFNCSpKGghMAkqRhcQ1wnWGQhkwk0EjLnf/Nx+NrROztp7DOpQH6BqYBkpSmB3FVqCRpSDgBIEkaeJt/+DdXAY9S2wRYkvKtSBqgktz/tTRA83fan+rDiL0CfMELR1KCrgKuNwySpGHgBIAkaRjsoHan14ihkIZdjwb5WyYLFrkZcBSmAXoF4mvjf/qPsz4M5hngk8CE15WkxGwGHrvpvxw2DZAkaeA5ASBJGuy/7n74NwO4lloKIElDIfqsnkW0GXyL4MV+jPJcGqCngP1ec5ISswp4ADjfUEiShuFDT5KkQTZC7e7/7YZCGlId7f0bfdTfOAPxxPif/N9P9XF0XwW+AmReaJIScyVw003/5XAYCknSIHMCQJI06M4BHmJlbuWVtGKiy2MdlO1ZGqDI+RoAB6gNrvetp9+3cwp4kv7co0CSymye+x1xjaGQJA0yJwAkSYPu7Zj+RxpSkfv07AvRQT1R8Vh0Wc/8obnjEUB8GeLFBAL9LWCf15ukBD0A7DQMkqRB5oY3kqSBtfmHf2sEeBewzWhIwyijeMB9PmNNNH1PbfA9KytbJ4Asa6qnizZbzs/OEPEktY12+91rwOeo7bciSSm5ArgJeMVQSJIGlSsAJEmDbCe1O7v8vJPUpHr6nl6lDIoq+wsslIkXgW+M//H/mEJu/SkyniBjjAx8+PDhI6HHJjIeu+lPD6/1c1GSNKgcEJEkDaTNP/xbAVwPXGU0pGEVpd/2Xf8afQPiQApRfvp9OzPgGWCP15ykBD8o7gMuNBSSpEHlBIAkaVCtBh4GthoKSR1b2cmC08AT43/8j84kFLGDwJdoSp4kSQm4HLjlpj89HIZCkjSInACQJA2qHdTS/0gaakuf2oeoXk9UK7sf+FpKUX76/TungSeBca85SYnZCDwCmAZIkjSQnACQJA2qG4GrDYOkBtH1wV41UqXsF0hzQ8qngee9yCQl6F7gAsMgSRpETgBIkgbO5h/+rdXAu4AtRkNSuejqUGvZHk0eZJyC+DQwmWAwDwGf9pqSlKDLgFsMgyRpEDkBIEkaROdTu5PLXK6S6Fmqnx7V0yYN0D7gW+N//I9SzKU/TW0C4KTXnKTEbAAev+lPD68zFJKkQbPaEEiSBsmmv/dbkWXcCFxhNCTlCqpvVbssZYOs9k1G8NXIeC3FsD79/p3ZTX966DvAc3gnraT0PhnuBi4B9hgOSdIgcQWAJGnQrKG2kdtmQyGpUPRl2VPAE+N//D9MJhzZw9T2MJj1IpOUmEuB227600OuIJUkDRQnACRJg2YnwX0E+PDhw8fZRzR+T8mx5kflstFUls7Kwh7IvpHyP8BPv/+8GeBTwJgfR5ISsx7YBZgGSJI0UJwAkCQNmtuAKw2DpFLR9cFeNdJUMiD4HBEHByC63wa+50UmKUF3ARcbBknSIHECQJI0MDb9vd9aAzwGbDIakjoTXR1qLdv15MEYxKeBqQEI5lHgSarviCBJ/eJS4A7DIEkaJE4ASJIGyUXUNnAzd6ukHL1K5t+jeuomC7LappNPT/zh/zAIg+YzwGeB415zkhKzHnj3TX96aIOhkCQNCicAJEkDYdPf+60AbgYuMxqSKumfqcIM+DIwCOl/ePr952XA32EaIElpuo3aSgBJkgbCakMgSRoQa6lt3LbRUEjquWBpEtpEQJaNAZ+c+MP/6/QARewoGZ+nlkrDm44kpeQS4M6b/uTQc09/4DxTmUmSkucv45KkQXEhcI9hkFRueVP7VKz3WeCpQYry0+8/bxb4NHDCa05SYuZvKllvKCRJg8AJAElS8ubS/9wJvMVoSOpIdH2wh32Iz0XEkQGM7neAv/Eik5Sg2zENkCRpQDgBIEkaBGuBRwE3bJNUQSerAKLktJ6sAjgJfAaYHsBAHweeZGmSJ0nSUroYuPumPzkUhkKSlDonACRJg+ASanmmJamiLicBOq4n2pV9Dvjr8Y//9wM3SP70B86bAT4PHPV6k5SYdcDjuLeUJGkAuAmwJClpm/7efwzgNlymLakjGQsD8i0b/NYdy/2eDo5Rd7yl7CzwReDwAAf6e8DfAfd7zUlKzC3AZXP/hkmSlCxXAEiSUrcON2qTtFwWlQaoxSjwxPjH/+HMAEfsOPBZYMaLR1JiLqKWBshxE0lS0vwgkySl7mLgLsMgqTO9SgG0qDa/CzwzyFF++gPnzVLb4+CY15ykxKymdpOJe0xJkpLmBIAkKVlz6X/uw/Q/khZr+bd5zBiegfG/A77tRSYpQbcClxsGSVLKnACQJKVsPab/kbQkoqtDrWULC59geFLjjAJPUNvzQJJSciHwwE1/cigMhSQpVU4ASJJSdim1DYAlqQvRo7Jd1fM94G/HP/4Ps0GP8tMfOG8G+AKDvdmxpMG0BngU2GwoJEmpcgJAkpSkufQ/dwCXGA1JPRFLVLbVLPB54OgQRfc54DteZJISdCNwhWGQJKXKCQBJUqo2ALuBtYZCUvd6fmd/zqGWY8eAT45//B8OU0qck9T2PJj2mpOUmPOBe2/6k0OOn0iSkuQHmCQpVT9AbQWAJC2TnqWA/tu5x9B4+gPnZdT2PDjidSQpMSPU9pzaZCgkSSlabQgkSamZS//zAHCx0ZDUUwEsaVb+LAM+RW0T4KGSwfeBp4DHvdAkJeYm4ErgGUMhSUqNKwAkSSnaCDyM6X8kLbno6lBr2YXCbwBfgJgdwmCOA08AM15XkhJzHvDgjX9yKAyFJCk1TgBIklJ0OXCLYZDUG73a/bdKPfG3wHfHP/7fZcMW5Wc+cN4s8CXgoNecpMSsprb31FZDIUlK8UNMkqRkbPp7/3EVcBdwkdGQtCQ6SQPUWcqgGeBzwPGhjW3GHmopNPw3XFJqrgeuAr5lKCRJKXEFgCQpNRuo3YHlJLakHlrsnf2Vyh4Bnhj/+D+cHeJAj1HbA2HKa05SYnYC99/4x4dGDIUkKSVOAEiSUnMFcKthkLRyuk4B/R2I7w9z5J754HkZ8AXgkNeRpMSsAh4BNhsKSVJqH2CSJCVh04/8dgAPAhcYDUm9F7lP81/opCwAs0Q8CdmoceZ54OuGQVKCbgDeahgkSSlxAkCSlJLNwMPAGkMhaWk0DexHwbGOy3IE+CIja2aNMaeAJ4FpQyEpMTuAXTf+8SHHUiRJyTB/siQpJVcScaNhkLR0MhYG7+c3942cY52WzbK/Bp4d/89/Pxv2CD/zwfNmb/zjQ18BXgUu9ZqTlJAR4CHgF4A3DIckKQXOWkuSkrDpR357FXAPcL7RkLQserb3L9NEfJpYddKgLtgPPGUYJCXoWuAawyBJSoUTAJKkVGwCdlO780qSlkh0eay07CHgU+O//w8y47tggloaoElDISkxO4AHbvzjQ/5OKklKghMAkqRUvBW42TBI6h+VJwSeAV4wXnUB+eB5GfAF4BWjISnBf/wfBrYZCklSCpwAkCT1vU0/8tsBPAicazQkLatYdA0zwBPAuMFssR/4umGQlKDrqKUCkiSp7zkBIElKwVZqG665eb2kFRYdHAqAg8CXx3//v501di1OYxogSWk6B9h94x8fckxFktT3/LCSJPW1ubv/rwauNxqSlkf0sqzpf4oCU0sD9DXggNGQlJhVwDup7QcgSVLff2hJktTvn1X3ATsNhaQV0f18wBS1O9zHDGKhl4BvGQZJCboGuPbGPz4UhkKS1M9MpSBJ6ndbgF04aS1pWQWQdXGswWsQnxv//X+QGc98z3zwvFM3/tGhJ4D3A+uMiKSEbKe2R9WXgWnDIUnqVw6mSJL63duAGw2DpP5VePPnXwF7jU9bX6K2EkCSUvvH/yFq+wFIktS3nACQJPWtTT/y26uAh/3DStKKi7YvNB+aBp4AThm8tg4AXzEMkhL0NuAGwyBJ6mdOAEiS+tl2ahusjRgKSYl5Ffjq+O//g1lD0dYZanslnDYUkhKzFdh94x8d8ndVSVLfcgJAktSXNv3Ibwe1zdXebjQkrYwud/+tZfz/K2CfMWzvmQ+dlwHfxDRAktKzCrgf2GkoJEn9/GElSVK/fkY9AOwwFJL6QuX5gGwSsk8CEwatsgPA1w2DpARdBVx/4x8dCkMhSepHTgBIkvrVdmAXnd2CK0k9Ft0cOwB8cfz3/0Fm/Kp55kPnnQE+iXsmSErPVmp7Vq02FJKkfuQHlCSpX10395Ck/hHMp/jJeWH+eXwTspcNVqeyr1JLm/Q2YyEpMQ9QW7X6uqGQJPUbVwBIkvrOph/5nVXU7v7fZjQkrbyg+kqAmIR4gsw72bvwOvAlwyApQVcDNxsGSVI/cgJAktSPdkDcD7Hq7MCbDx8+fKzkg6rHXiHia+N/8N+a/qdzk8CncO8ESenZAjx64x8dNMuCJKnvOAEgSeorm37kdwJ4O3CN0ZCUoG9AvGQYOvfMh87PgL+ilgZIklISwL3A+YZCktRvnACQJPWbEeCd1DYBlqT+U5wN6DTwF0ScNkhdew34Kk07LUhSAq4Abrzxjw6GoZAk9RMnACRJ/WYH8AjlCbclaZlV2gPgJeCr4//pv3HwukvPfOj8SeCTmAZIUno2z/0Ou8ZQSJL6iRMAkqR+8w7gbYZBUl/Lnw/4KvCKwVm0bwIvGAZJCbofOM8wSJL6iRMAkqS+selHfmcE2E3tDipJSslp4EngjKFYtEPA5w2DpAT9IHCHYZAk9RMnACRJ/WQntQ3U/HyS1IdKM5O9BHxz/D//fdP/LN4U8BlgzFBISswGYNeNf3TQNECSpL7hAIskqS9s+pHfCWrpf642GpISk1FL/3PAUCzeMx86PwOexjRAktITwN3ARYZCktQvVhsCSVIffSY9BGw1FJKSENSG/slOAZ8gVk0alJ45SMZXqE0Muym8pJRcBtx84x8efOmZHzrfVWGSpBXnCgBJUr84D3jYMEjqb9H6bbAP+Nb4f/pvHOjpkWc+dP408Alg1GhISsxGYBew1lBIkvqBKwAkSf0huInaxmmSlJYsvkzwuoHouWeA54BbDIWkxNwLXAjsNxSSpJXmCgBJ0orb9NHfWQ3sBjYZDUlJyZgAniTC9D+9dxT4rGGQlKDLgbtu/MODpjCTJK04JwAkSf3gfGobpvlHkqQENPxTtR94avxjpv9ZAtPUJgBOGgpJidlA7eYW0wBJklacEwCSpBW16aO/E8BNwJVGQ1JSMjLgS8CrBqP35jbP/GvgWaMhKUF3AJcYBknSSnMCQJK00tZQ2/x3s6GQlJhx4BPj/+n/NGUolsxh4IvArKGQlJhLgdtMAyRJWmlOAEiSVtqFwIOGQVJaAuAF4GljsXSe+aHzZ4C/BE4YDUmJWQ/sAtYZCknSSnICQJK00m4B3mIYJCUn4otEHDYQS+47wPcMg6QE3QO82TBIklbSakMgSVopmz76u2upbZC2wWhISswY8CnA9D9L7xjwGeBO3CxeUlreDNxz4x8efE0ggbgAAG7XSURBVGFuXxNJkpadEwCSpJV0IXAXDuhISs8e4Jnxj/2YAzpLbyaDzwH/E3CO4ZCUkHXU0gD9Z+CU4ZAkrQRTAEmSVsSmj/5uUEv/c7nRkJSYWWoD0gcNxdKbu2v2bzENkKQ03UZtQ2BJklaEEwCSpJUyn/5no6GQlJgx4JPjH/uxaUOxbI4Cn6U2+SJJKbkEuOOGPzzoildJ0opwAkCStJJ/DN1vGCQl6Fngrw3D8vn2D50/CzwBvGE0JCXGPa8kSSvKPQAkSSvldlwOLSlNn6d2R7qWU8Z3gb/DyWNJ6bkTuAz4rqGQJC03VwBIkpbdpo/+7jpqd0KtNxqSEnMS+DRg+p/ldwL4FODGy5JScxFw/w0fNw2QJGn5OQEgSVoJlwB3GAZJCXoO+M74x37MQejlN4urLySlaS3wMO59JUlaAU4ASJKW1aaP/m4At2H6H0npmaV29/9hQ7H8vv3h8zPge8DfGg1JCboFuNwwSJKWmxMAkqTlth54FNP/SErPCeDJ8Y/92IyhWDHHgc8A/j+QlJqLgLtu+PhBx2EkScvKDx5J0nK7FLjHMEhKkHefr7Bvf/j8WeAJ4IjRkJSY1dRugjENkCRpWTkBIElabncBFxsGSYnJqN15fsxQrLjngO8YBkkJug240jBIkpaTEwCSpGWz6aO/uwHYDawzGpIScxz4LKae6QdjwJPU9mSQpJScBzxww8cPhqGQJC0XJwAkScvpUuBWwyApQd8F/m78Yz+WGYoVNwt8ETdjlpSeNcDDwGZDIUlaLk4ASJKWxaaP/m4AdwKXGA1JiZkBPgUcNRQr79sfPj8DngX+2mhIStCNmAZIkrSMnACQJC2XjcDjwFpDISkxx4FPj3/sx0w50z9OUtsMeNpQSErM+cA9N3z8oOMxkqRlsdoQSJKWR1xObeMzSUrN3wDfMwz949sfPj+74eMHPwscAi4yIpISMkJtT6z/SG0yU5KkJeWMsyRpyW366O8FcA9wgdGQlJgM+DRwwlD0nT3AM4ZBUoJuAa42DJKk5eAEgCRpOWwEdmH6H0npOQp8fvxjPzpjKPrOOLU0QP6/kZSaHcCDN3z8YBgKSdJScwJAkrQcLgNuNgySEvQ3wHcNQ//59ofPnwW+DBw0GpISsxp4CNhqKCRJS80JAEnSktr00d9bRS39jzmaJaVmmtod5scNRd96AXjaMEhK0PXA1a4CkCQtNScAJElLbRPwOG48Lyk9R4HPjX/sRzND0bfGgL8EJg2FpMTsBO7DcRlJ0hJzMEaStNSuxPQ/ktL018CzhqF/ffvD52c3/MHBLwKvA5caEUkJWQU8Cvw6cMxwSJKWihMAkqQls+lHfy+o3dm002hISsws8Clqd5irv+0D/gonACSl5x3A24CvGApJ0lJxqZkkaSltBh4B1hgKSYk5DHxh/Pd+dMZQ9L1T1PZqmDYUkhJzDvDQDX9w0LEZSdKS8UNGkrSUrgBuNAySEvQMpv9Jwrc/cv4s8FXgVaMhKTEjwDuB7YZCkrRUnACQJC2JTT/6e6uAB4DzjYakxEwBnwRGDUUy9gHfMgySEvR24Job/uBgGApJ0lJwAkCStFS2AI9Ru7NJklJyGPji+O/9aGYokjEBfAI4YygkJWYHtZtmHJ+RJC0JNwGWJC2Vq6ltbCZJqXkaeMEwpOPbHzk/u+EPXv8q8ArwFiMiKSEB7AZ+BThiOCRJveYMsySp5zb96O8FtXymO4yGpMTMAE8C44YiOS8D3zAMkhL09rmHJEk95wSAJGkpbAUewpVmktJzEPjS+O/96KyhSM4p4Alg0lBISsw2YNcNf/C6YzSSpJ7zw0WStBSuAq43DJIS9C1M/5Okb3/kggz4OnDAaEhKzCrgflw9K0laAt6ZKUnqqY0/+rGRjOwhYKfRkJSYSeCTYfqflL1EbRLAfQAkpeYa4O03/MHrn5+b0JQkqSecAJAk9do2iN24ykxSel4Hvjz+ex914CVdp4G/AD4IrDcckhKyHXgQ+BIwbTgkSb3i4IwkqdeuAa4zDJIS9C1gn2FIV10aoJeMhqTEBLAbONdQSJJ6yQkASVLPbPzRj62itvnvdqMhKTHTwJPUNpJV2l4B/v/t3WmYJFd54Pv/qa2rqlutFk0jIQkJGQ0aLSWBEIsFYhFIQuBl/OV6bGMwm2UDnnlsPB7N2J47c++1XeN7fWe8zB0jQICH3WBjNiN2sxkMBiSx72iXumvfqzIz7oeo6s7KisitIqvyZP5/zxPqqoqTESdfRWZlnTfOez5nGCRF6CJcR0uSVDATAJKkIh0hnbo8aCgkReZe4LPLb/nFiqGI3hppMmfVUEiKzCHghse98wE/S0uSCmMCQJJUiPFfemsALgEuNRqSIvR54AeGIX6bZYD+CcsASYrPAHANcMxQSJKK4iLAkqSiDALXAUcNhaTIrAG3Lb/lFy3/0zvuJuHTwL8grastSbG4CLjice944MGv/vxZLkovSdo1ZwBIkopyBvAcHGiRFB9rxveYr/5vZ60DH8I1HSTF5zDpmlresClJKoQJAElSUS4DLjYMkiL0BSwX04u+CPzQMEiK0HXAIwyDJKkIJgAkSbs2/ktvHSC9+/90oyEpMuu4YGyvegD4jGGQFKELgSsNgySpCCYAJElFOAo8098rkiJ0N/C55bf8onWWe89WcmfZUEiKzEHghse94wHLAEmSds2BGknSroz/0lsDlv+RFK/PAj82DL1nc/HMf8YyQJLiE4CnAmcaCknSbpkAkCTt1hBwA3DEUEiKzCpw2/JbfnHNUPSs+4B/AJzhISk2FwJXPu4dDwRDIUnaDRMAkqTdOgpcS3qnkiTF5C7SBYDVo77682dtJPChBJYS0iyAm5ubWyTboQRuSGDYd3NJ0m6YAJAk7dYVwEWGQVKEPgfcaxh63peB7xkGSRF6FvBIwyBJ2g0TAJKkto3/0lsHgeuAQ0ZDUmRWSReItfxP7zsOfMowSIrQo4GrDIMkaTdMAEiSduMY8Ax/n0iK0A+Azy+/5RetDd/7NoCPAIuGQlJkxoAbrnjHAyOGQpLULgdsJEltGX/B2wLwOOCxRkNSZBLgs1j+py/c/vNnJcBXgO8aDUmRCcDVWAZIkrQLQ4ZAktSmYUK4EThsKCRFZgW4bfnNv7BuKPrGA8AnSNet8SYoSTG5ALjqinc8cNdmQlOSpJb44VeS1K5jwNMNg6QI/Qj4kmHoH7f//Fll0jUfLAMkKTbjwI2AZYAkSW1xBoAkqV1XAhcaBkkR+jTpHeHqJwm3A98GnmgwJEXmGuBc4PuGQpLUKmcASJJaNv6Ctw0B1wMHjYakyCyTLghr+Z/+MwV80jBIitB5wJMNgySpHSYAJEntOJP0TqRgKCRF5rvAPy2/+Reso9x/SsBHgXlDISkyo8ANV7z9gQOGQpLUKhMAkqSWjL/gbQG4Csv/SIpPAnwGuN9Q9J/b//VZCXA78C2jISlCTyEtAyRJUktMAEiSWjVCuhCZ5X8kxWYJuG35zb9QMhR96zjpLICKoZAUmfOAp1zx9gecgStJaokJAElSq84CnmYYJEXo+8CXDUP/uv1fn1UhTQDMGQ1JkRkFnrf5ryRJTTMBIElq1ROBCwyDpAh9kvQOcPW3rwHfNAySIvQU0pkAkiQ1zQSAJKlp4y942zBwPTBmNCRFZpH0zu8NQ9H3ZoCPka4JIUkxOQe42jBIklphAkCS1IqzgacC1h6VFJtvAV9efvMvOOirMvBxYNZQSIrMAeCGK97+gDfjSJKaZgJAktSU8Re8LQA/ieV/JMWnAnwKeNBQ6PZ/fVYC3Lm5SVJsnohlgCRJLTABIElq1gHgBiz/Iyk+i8Bty2/+hbKh0KatMkBeE5Jicy5w9RVvf8DxHElSU/yFIUlqljVHJcXqO8AdhkFbbv/XZ1VIEwCzRkNSZEaA5+NNOZKkJg0ZAklSI5vlf56M040lxenjwJRh6FEve08ABkgStq3rW6mk31fKA0A4uW+z3eLUzPcOnnHkG2EgXGMQJUXmiaRlOb9mKCRJjZgAkCQ1Y4S0/M+ooZAUmTngo0CpL57t73xlEBg+uVZ7Ukm3VEj35cwCTpIAjBBC2DGYnhoEhtJ92x64+djkEISRk4/dOm/6/RBJchokpwbqk5OPhSQ5AMnBU8fe/DmVrXaHSCqD2x679XWldICEo5BU9Ts5tT9JTgMObvaRrXN8//NfHDj7kose/vBHn0cIrm0vKSpnAU+74u0PfH1zXRNJknKZAJAkNeNc4CmGQVKr0lGJ3Qyuhl3sDiQDAz8oHXzY/aXDxx7BzXfWPnKMdFA7y+Dm/rwzjJCujZJlADhCOtieZRg4o86xD0NyqrTD9gH3rWMPZe9PDgAHITl17BCqx/IPQTJSp9+nnYpJoCYJcAAYr/M/Ynh7PLc9fmBzf6i9OqriPXzq59UJiAQShtMnUvW4UN2sasB/++D/qRglNfsqCbP33McZZz+SoQMjvlglxWQEuB74X8CS4ZAk1WMCQJJU1/gL3h6ApwKPNhrS7jQcDA+N9oc6xw519xMCSaiz/FMYqPP4QDIwUL9fOcdOAAYG0/7lPXZgMP951etXCCR1HguBZHDoJ5LB4bcAlYxo10sADJAOdtdLAIzU+T8Z6v/PrLsW18C2x4aQlQSoc+pk589C9f+RrXH0JP/6OnnOsO3qzelP9mmzL/CqhnkPymgXkqqmNY8LVU8rCbmvvJ2nC6wuLrIyP8+hhx91FoCk2Dxh8/P51w2FJKkeEwCSpEbGgOeSP9AlRWNrAD4ZHISBIZKBwcwB5PRn9Qad88ZfAwwM5D42qTNQnu6vPwjPwED+GGuDYxNC/iD81uPrqbs/NH78/jkduLxvL/qswfpm9mX9P869+raNwFddE8n2gfmTg/hZSYWtQ1T3qV47ao6V025HP9nsR9qfykaJheMnOHT0Yd18DUtSlrOBZ1zx9ge+ubmwuSRJmUwASJIaeRTpAsBStBICydAI5QPjVA4cpDJ8gGRgaPOu96xH7HIg0IFE7VpTt9Sfut6SpHu6vGP2ANQfnM9pl/u6bGZmwObXuYmFU+dZPDFNaX2D4QMHvOwkxWQIuJG0DNCC4ZAk1fuFIUlSps3yP1cD5xgNxSgBkuFRSgePUB49jWRw2MF5xamwQf4WEgtF9KfeYH/VnfiZd+sH0nO0NIOAmoQA29tmzCBYW1xidW6e4Ucc8zqTFJsrgQuBrxgKSVKeAUMgSapjlHSBMW+LVFQS0jI+pUNHWTv6KEoHH0YyNOLgv/pEC9d52EVZqMxzhpqfhaofh5quhZxD5Bwj9+mFjK2Z2KT9qZTLLByfIumGWRSS1JpjwNOveNsDfsCRJOVyBoAkqZ5HY/kfRSYBkqERNg4/gvLYafXr4ktdraAyQHs5e6DjtfybnUFQ1Yfc0kSbD0oSFqemKa2tMTxqvltSVIaB64BbsQyQJCmHfxFLkjKNv+DtA8A1wLlGQ7FIS/4cYP2MsymPHXbwX72lrTvyW93XwjnbnlFTe5d+yJ5A0PYMgtpvas6341yBtaVFVubmnAUgKUaPBx5jGCRJefyrWJKUZwy4gfTOIqnrJUAyOMz66WdRGRm33I96REHXceGlfurtqx3czxvEr1Oup9kyQDuOFRp3aVu7zTJApbQMECYAJMXnTODaK952/6ChkCRlMQEgScpzAXCVYVA0wgAbhx9B5cBBB//Vp6+BLrnuW63l3+wgfu6xQs7d/xkPDvn7FqemKa2vex1Jis0g6U07hwyFJCmLCQBJ0g7jv/z2QFr+5yyjoRgkQGn89M2yPw7+q4cVdn13amZBqH+63MH+kPPQqnYtzSCoPWnjMkDry8ssz817jUmK0RXARYZBkpTFBIAkKcs4gecQGNk2buLm1qVbMjRC6dDDYMCPNtIp+1nrv97d//Vq+YecGQQZz6duUiE0CMPOc1bKFRYfOkFSqXjpSIrNUeBZV7ztfu+CkCTt4F/JkqQsFwJPNAyKwdbd/8nQAYOhHrXfi/a20Z+2ywA1267ZGQRVbXf0qeY8ScLi9Awba2tecpJiMwQ8GzhsKCRJtUwASJK2Gf/ltw8ATwfONhqKQTIwRGX0NAOh/lH4or27PGez/cmt5Z8xiF83IdDsDIKMfbllgNJ9a0vLLM/OkbgYsKT4XI5lgCRJGUwASJJqHSRdSGzQUKjbJUAyPEplaMTa/+pxnarZ3+S+lvqTNYpfr5Z/nePtagZBaLLdqW+TcpnF41MmACTF6Bhw3RVvu9/P8JKkbUwASJJqPQZ4vGFQLMoj4xD8SCOdtB/JsKxztlXLP6eOf8bDmp9BkHXOkLMvsDg9Q2nVMkCSojMAPAc43VBIkqoNGQJJ0pbxX35HgOSZpHcQSd0vBCojo979r7689inkLvVAOpemieO2dM6a49b++OTu6tduktOmpl1IIAmb/2adL9Qcq/qAjc+1vrzC8uwcI2NjXmeSYjMBXAx81lBIkrZ4u5wkqdoh0juHhg2FohAGSQa8n0Fq8ELZx+PWK+HToJb/yS9bnUFQfa7QoLs7ZxAklQoLx0+QVCpeOpJicwR49hVvvd+xHknSSf7FLEkCtu7+519CeILRUCySMAAD/o2rfpFzV31m06Lu5C+oy9vOuTXgnmS0I+Ou/3rtmp1BUNV2a+bAjj4lJw+zND3D+uoqB8bHvewkxWQQuBb4C2DacEiSwBkAkqTtvxOeATzCUCgulv9Rv176RS/au8tzNtufurX8qxcKpv6ivTva5c0gyNqXt0Bw+s368grLM3MuBiwpRpcCl1zx1vv9gCRJAkwASJJOOQRc7+8GxccBOvWTgsZzihjIb9ifrFH82kH+UOcQeWWAQv55MxMGoX6XMtpYBkhSxI5ufqYfNBSSJHCQR5J0ymOByw2DYhKSClRMAEjZL5CiBvJ3ec6Qt6+VWv557arbNJpBkHXOkHHO9OvlmVk2Vte8jiRF9+4PPBs4w1BIksAEgCSJk/X/ryW9Y0iKR1IhVErGQf2rU4P8nZ4hUHcQP69NVrtGMwiyBvgzzpXR3fXVFZZnZy0DJClGFwOXGQZJEpgAkCSlTie9U8jF4RWXJGFgY3XvFjSVekkoqjx0aLFNu7X825lBkHG+homFtD9JebMMUJKQgJubm1tM2+kJPOfyt97vmI8kyQSAJPW7zbv/LwUeZzQU5YeZ9RUTAOozBd3Jvx9dbqmW/27KANGgDFBoIkaBpelZ1pdXvOQkRffxCHgmzu6VJGECQJJ06g+EhxsKxSaQJgBCad1gqI9fCEUv2rvLczbbnx137Dc7iN9oBkHOc2ppZkD6zcbqKkszlgGSFKVLgCsuf+v9wVBIUn8zASBJOh24jsJWgJT2VqiUGFqddxaA+u3KL+gwHa71v21f1uB7aOIQ1QmB3cwgaHF9gQBJpcLi8RMklYqXnKTYHAGuxxKfktT3TABIki4mLQEkRSkAgyvzzgJQn78Q9mIgf5f9CXn72lgPYNvxtv5TQBmgjHbLs7NsrKx6jUmK0TOxDJAk9T0TAJLUx8Z/+R0DpIv/nmE0FLNQWmdoaRq8S1dq5hXTQtMOJxaavBO/YZu6T6v2WE3MIthqF2BjdY2lmRnLAEmK0UXAFYZBkvqbCQBJ6m9HgGcBg4ZCMQvA0PIcg6sLlgJSn135RRwm7F1/Qr0yQM3W8t/NDIIWywCRlgFasAyQpDgdAq67/K33+1lfkvqYCQBJ6lPjv/yOQHpHkHcFqSeEpMLwwnEG1pdNAkg7XiChy/uTU+qn6k78zLv1255BkHG8emWAZuZYX172OpIUmwHgGcAxQyFJ/f3LQJLUnwZJ7/4/YijUK0JpnZHZBxhYXzEJoD58ARS9aO8uz9lsfzLv2M8o8bOjaxl1/5uaQVDboEEZIGBjdZWl6VnLAEmK0UXAlZe/9f5gKCSpP5kAkKT+dQZp/X//GFDPCEAorTEye78zAdRHV30Rh9mLRYSzRufr1PKvd8d+aDKBkTmDoMUyQAFIkrQMUNkyQJKicxpwAzBsKCSpPw0ZAknqW5cCFxsG9ZoAsJkEWD/9LCoHDnZf+ROpYy+AkJ/4qrcv85WUdKY/W4fesa/6nFVfByDJ2bfteNXtql/zSZ2nVdNuq08Z7Vbm5lhfWWb00GleZ5Ji83TSMkD3GgpJ6j/OAJCkPjT+y+8cAK4HTjca6kXpTIC0HNDgyrwzAaTcV0qzTTs8Q6DtWv7tziDIalCnDFCA0to6S1MzJPh+Iik6FwJXGgZJ6k8mACSpPz0cwrMgDGTWUHZz64EtEAjlDYbnHmJweQ4SS3eoV+1BGaCi+xPyygC1Usu/xYWEd5yvpmmDxEJSqaRlgEplLzlJsTkIXH/5W+63CoQk9SETAJLUZ8Zf+M4APB64xGio1wVgoFJiZP4hhpZm0ySAswHU1y+KsPfHbXv2QMYd+6Hm59VNq9tte3y9GQRZ7UJuu+W5OdaWlr2OJMX4kega4CxDIUn9xwSAJPWfIeBa4LChUN+olBleOM7Q4owJAPW+whftLbyD9X/c6I79HYeonUFAkzMIshrUKQPEZhmgmRkS30ckxedfAE+6/C33uzCSJPUZp39JUv85SuBaw6B+EgCSCsOLJwhJmY1DRzcrYPk3sHrpKu/Qor3N7GurP7UL+1ZLahb33fGKZtuivfmv/KpjBQjJ5kLBVeep7sq2c4WM/iQsHD/BGeeew+CQf0pJiso46RpgHwDWDIck9Q9nAEhS/7kceKxhUD8KSYWhpWmGF05AxTre6uWLvcOL9hbRn9BMfxrV8q/6up0ZBKG2TeMyQCvz86xbBkhSnJ6GZYAkqe+YAJCkPjL+wncOAjcAh4yG+lVIEoaWZhhZOA7lkiWBpFYG+TudWCi0ln+jdnl9ydhXtQZBaW2dxelpywBJitEFwBMNgyT1FxMAktRfzgSe4fu/+l0gYXB5jpH5BwmVkgFRz1zZxRwm7F1/QvUd963W8g9N9DdjBkHIOEaz5wJIEhaPn6BSdhaRpOiMAddf/pb7hw2FJPUPB4AkqU+Mv/CdAXgCcJHRkDaTACvzDM89QCitOxNAffYC6FAZoMJmCNSef+ed+Jl9q51BEKofHxo8rZoERIMyQGuLi84CkBTfxx94KnCOoZCk/mECQJL6xzDwbCz/I237K3hwdZERkwDqyQt8Hwb5W34FZvysrVr+OTMIck+VkVRoqrubZYDWN1ianvEakxSjnwCecvlb7g+GQpL6gwkASeofx4BnGgZpuwAMrC0xMnc/obRmEkA9cEUXcZg9LAOUWYO/nVr+9Y5fbwZBnTJAISepkCQsHD9BpWQJMUnRGSVdE+yAoZCk/mACQJL6x5XAYwyDtFMABtZXGJm9n4H1FZMA6qGLu8OL9hbRn9BMfxrV8q/6uq0ZBLVtGs8gWF1YYG1p2WtMUoyuxjJAktQ3hgyBJPW+8Re+c4j0Tp+DRkPKFoCBjVVG5h5g/fQzqYyMF3gXtBTLq6DJ5FcI+YmyevuaOmeAkKQ/DkCy9X316zGpc4iadlv7c9slOQcKO/dV9ae0vsHi1BRjpx8m4HuFpKicBzz58jff/4M7XvBI73qQpB7nDABJ6g9nA88ARyikegIQSmuMzD7AwNqiMwEU8ZXcbNNOLNrbRn9OLrhbfUt+iwv37moGQZ0yQOS02ywDVN6wDJCk6GyVARoxFJLU+0wASFKPG3/hOwPwRNIFvyQ1EIBQXmdk7gEGVxZMAqgHLuqiSv3sd2KhXi3/mna1ZYBC9eNbSCpUJxbyygAtLpL4PiEpPj8JnG8YJKn3mQCQpN43AlwHjBsKqTlpEqDE8PyDDC7PQlIxKNKOF0onZwi0W8t/NzMI8vqS1d20fXmjxNLUtNeCpBidD/zk5W++3xnCktTjTABIUu87C7jGMEitCUColBhZOM7Q8ixUTAIotiu4iMPsYRkgGpQBaliaJzTzqq46Ru0MgrDzeW9LLGScJ0lYODFlGSBJMRohLQM0ZigkqbeZAJCk3ncV8GjDILUuAFTKDM8fZ2hp2iSAIr6YiyrJ08HEQmjx/K2WAdr2wLwZBDTXruoHq4sLrC0teo1JitGTgUcZBknqbSYAJKmHjb/wnSPAc/HOHqltAQhJheHFKYYXT0Cl7LoA6oOrvtmmRScWagbqQ9Yd+w3K++x6BkGoE4+d/SlvlFg8MeU6AJJidA5wtWWAJKm3DRkCSepp55KW//FDvbRLIamkswCShI1DR2FgsMDyKFJHrlqgyUHpEPITW/X2Fd2frSbbzrn1Oksy2m39uPq1mDQ4wWabACQBQlL1kKo+1p7jZJ9q+pMkLJw4wdHzz2NoZNjLTlJMDgDXA28HVgyHJPUmZwBIUo8af+FfB9JpvecbDakYIUkYWpphZOEEwZkAiu4CLqrUz37MEKg9f+1MgZx2Ia/mfzNlgHLq/mfMIFhbXGJ1YcG3BEkxegrwE4ZBknqXCQBJ6l0HIFwPYXTnIIabm1u7WwAGl2cZnn+IUCmZBJAKXyg4Z3C/pUH8Vmv+55QBCnX6ua0M0AaLU9M0PeNCkrrHucBTL3/zfY4PSVKP8g1eknrXOcDVhkEqXgAGV+YZnn2QUN4wCaAuv1qLOEzoTH/qLQacV8s/96nltCOvXdX3Ie/AoUGfTlk8MUV5Y8NLTlJshoAbcM0wSepZJgAkqXc9GTjPMEidEYDBtUVG5h4klNZNAiiSC7foRXv38AW34wd55X1q2rU1gyDnXLntAmtLS6wuLHqNSYrRVcAFhkGSepMJAEnqQeMv/OtR4HnAqNGQOicAA2tLjMw9wMDGmkkA9eAV3mzTohMLOSV82ioD1M4MgqyZBCH/6wDlUomF4ydIfB+QFJ+zgGsuf/N9wVBIUu8xASBJvel84CcNg9R5ARhYX0mTAOsrJgHUpVdps007sWhvG/0prJZ/3imr2tWdQZBxjrwyQEnC4tQUpfV1LzlJsRkBrgPGDYUk9R4TAJLUY8Zf+NeBdPD/XKMh7Y0AhI1VRuYeZGBtySSAuvyCLarUz34nFhrV8s9olznYXy+pUGdWQEZSYW1pmdX5BWcBSIrRk4DHGgZJ6j0mACSp94wC15PeySNpjwQglNZMAqiPXwRFJxZyBvfbKgPUqF1tm9BEd3fOIKiUSixOTfn6lxSjs4CnXf7m+xwnkqQe4xu7JPWe80gXAJa0xwIQyhuMzD3A4MqCg4DqsquziMN0qDx01nELqeXf8BW7/fsdd//XnCQ3sXDq68WpaUobG15ykmIzCNwAHDQUktRbhgyBJPWWBK4GzjES0v4J5RLD8w9BUqE8fhiC91yo2y7SkJ+gqrdvZ+P0N89uz0m7p6suyZNAEjb/zXjg1s8DNe3Cqd+gdc8Xtv+2rd5f1W6rDNDQww94nUmKzeOBxwBfNRSS1Dv8a1SSesjYC/96HLgRcNRB2mehUmJ44ThDS7NQqTgbQDFfzS00LXqh4JwSPg1r+YfWZxBklgFqNJMgbD9AgEq5zPzxEyRJxUtHUmyOAc+c+F/3BUMhSb3DBIAk9ZYLsPyP1D0qZYYWTjC0NAMOBmrf7feivW30p+1a/s22qx3kD/ndCo36tClJWJqeprS27iUnKTbDwHOA0wyFJPUOEwCS1CPGXvjXA8BTgbONhtQdAhCSCkOLJxhanIJK2ZkA6qILtOhFe3d5zrYTC3UG8esmBJqdQVB7jprjZCQV1peWWZmfJ/H1Lik+VwH/0lkAktQ7TABIUu8YA67H9V2krhOShKGlGYYXTqRJACn6i7qogfxmEgu1A/PNlgHK61ORMwhq250qA7R4YsqEn6QYHQOejuNFktQzHCSSpF4RuAB4ooGQuvUlmjC4PAtJhY3THg4DQwWWUpGavxI7s2hvC8dt9ZwnF9qt3pexcO+OBXkzFu3N7Xt1u4wFg0myn+eOPp36eml6htL6OsOjo152kmIyQHpT0WuBOcMhSb3xxi5JitzYi/46AE8DzjIaUvcKJAyuzDE8/xChUvLuYHXBRVnU3fqdOmeDrrRcy7/dGQS1J21UBgjWl9MyQJIUocuBxxoGSeoNJgAkqTccAp4PjBgKqbsFYHB1geG5BwnlDZMA6tELveiFguuV8Gm2ln8rZYDq1PzP7WfVFqBSqbDw0HGSiguAS4rOUeBa1wGQpN5gAkCSesNjgCsNgxSHAAysLaVJgNKaSQDtwxXYbNNOLNrbRn/aGsRvpV2du/ozn3deYqFKkrA0M8vG2pqXnKTYDAHXAUcMhSTFzwSAJEVu7EXvGoBwDYQzs+9YdHNz68YtAAPry2kSYGPVJID2T+GL9u7ynG0nFjJea00lBJqdQZCxL7cMULpvfWWFlbl5El/fkuJzBXCJswAkKX4mACQpfgdJF+oaNBRSXAIwsLHKyNyDDGysmATQHl99RRymqIH8ZhILtQPz1YP8obmntKsZBKHJdqe+TcplFk+cMAEgKUZHgWfiuJEkRc83ckmK34VY/keKVgBCaY3huQcZWFs2CaB9uhD3YiB/l/3JLbnTSi3/hq9GGs8gyDpnyNkXWJqZpWQZIElxfkS5DjjdUEhS3EwASFLExl70rgA8AzhmNKS4/8IOpXWG5x9kYG3RJIAiuGKLOEworivN1PKvvVu/rRkEtQdsfK60DNCcl42kGF0KXGwYJCluJgAkKW6HgRuBYUMhxS0AobzByNxDDK4uQFIxKOqBC7vghYLrlvBpVK8/r0+NjtFgFkFuuaBwsgzQwkPHqVR8TUuKzhnAcyb+132OHUlSxIYMgSRF7bGkC3RJ6gEBSColhucfgkqF8vhhCP7NrY5ecU02DfkzU+rt25P+bI3AJw0OmdFua3+9dplttvpQ3S4/Dkuzs5RWVhkZH/eykxSTQeDZwP8AThgOSYqTf1FKUqTGXvSuQSz/I/WcAFApM7xwnMGlWfCuYe3ZxVf0or27PGez/albBqheLf/au/qbnUGQtS+vDFC6b2NlleW5ORcDlhSjy4CJib+6LxgKSYqTCQBJitch0oW5fC+XekwAQlJheHGKoaUZqJQNijp4tRVxmL1YRDhrFL/OIH69YzdaSHjbj1ur+Z/VJqlUWDxxgsSEnqT4HAGeRTobQJIUIQeNJCleF2H5H6mnhaTC0NIUQ4vTaRLAu4fV8YtuLwbyd9mfkLevmfUAMur4N5xBQM5Af8bxQsg4Z/r10uwsG2trXmOSovvNQFoG6AxDIUlxMgEgSREae9G7BjY/iB81GlKP/9WdJAwtzTC8cAISkwDqqquzoMMUkFho8k78/DatziCoPVC9BYLTn2+srLI8O+tlIylGFwOXGgZJipMJAEmK0xHgBlzMXeoLgYTB5TmG548TKiWTAIrwIi549kBosgxQ3Vr+u5lB0GJiYbMM0MLx41TKlvSSFJ3TgRsm/uo+ywBJUoRMAEhSnLwLR+ozgYTBlXmG5o8TyiYBVOzV1XzTokoE0aFztlLLP+NhLc8gyGoXcuO8MjvHxuqql5yk2AwA1wIPNxSSFOebuCQpImMvetcg8Ews/yP1nQAMri4wPP8gobxhEkAdutCKXrS36HM2ON3Jwf5ma/lntG1qBkHWvlCnP7Cxtsby7CyJr11J8fmXwOMm/uq+YCgkKS4mACQpPqcDz6Gw4suSYhKAgbUlhuceJJTWTAKowCuriMPsxSLCWaP4dUrzZD4+tNanrUH80OBcDWYQJJUKCydOkFQqXnKSYnOYdBaAJUglKTImACQpPhcDE4ZB6l8BGFhfZnjuQQY2Vk0CqAMX2V4M5O+yPyFvXzO1/DP61swMgtynVTvTIOSe0zJAkiJ2Lc5ClqTomACQpIiMvejdA8D1pIsAS+pjARjYWN1MAqyYBNA+X43NNu1wYqHJBXkbtsltR8axmliHoGoGwcbaGkszM5YBkhSjxwKXGwZJiosJAEmKy1EIz4EwmH13opubWz9tgUAorTM8+yADa0smAdQdClsMOLR4rka1/HOO3WgGwbYvm635n9WnVFKpsHD8uGWAJMXoEPDcib+6zzJAkhQREwCSFImxF707AJeSlgCSJGBzaLG8wfD8cQZWF00CaJdXU7NNu6QMUKv9yazln9HVlmcQZBwvhNx2K3PzrC+veMlJis0A8CzgTEMhSXG9eUuS4jBIWnfziKGQVC0AA5tJgMGVBUi8s1hFXFhdNsjfbD/aruXf6gyC/Dr/dcsAsVkGaNYyQJKidCFw5cRf3RcMhSTFwQSAJMXjDODZFDbKIqnXhEqJ4YXjDC7PmwRQu1dRQYfZi0WE80bn26nl384MgmbPlTGDIElYPDFlGSBJMTq0+TfJsKGQpDiYAJCkeFyG5X8k1RGAUCkzvHCCoaXZNAngHcba1UW1FwP5u+xPyNvXSi3/qq/bnkHAznZ1ywDNsb687DUmKUbPBI4ZBkmKgwkASYrA2IvePQg8DzjdaEhqKKkwtDjN0OKMMwG0hwpaQ6CIxMKOQfytf9up5d9Eu5DVoE4ZoAAb62ssTk9bBkhSjB4DXGkYJCkOJgAkKQ7HSO+08X1bUkMBCEmFoaVphpamoVJ2JoBavIKabVrUQP4u+xOyavC3ONi/qxkELZYBAqikZYAqpTIkuLm5ucW0HSThuRNvus8yQJIUgSFDIEndbexX3h2Ay4HHGg1JrQgkDC3NEioVNg4dhUE/+qmdCykUlEAKpCNHHexP3b5WnT8ASYCQbP6opm9b3261O/nNlqSmTe15qDrXZp8y2q3Mz7O+vMzY4cNeZ5Li+ogBzwDOBn5sOCSpu3knqSR1vyHgOYCjA5La+As9YXBljuGF44TyhjMB1PErrpjDhN33o5kyQLXdDjk1/xvOIAiNZwZQ058ApfV1lmZmLAMkKUYXAFdNvOm+YCgkqbt5G5gkdb+jpOV/JKktARhcXSCQsHHo4SSDwwWWZ1HvXjX7ebd+K/3Z3LfjeLV34tPcHfvN9GHHDIKs/bXnqplBAJAkLE5NccY55zA4NOhlJykm48B1wPuBNcMhSd3LGQCS1P0eB1xkGCTtRgAGVhcZXnjImQBq4wLq8KK9He1Pg1r+IaddWzMIyG4XQs7T3yoDtOQ1JilG1wBnGQZJ6m4mACSpi439yruHgOcBpxkNSbsVgIG1ZYbnHySU1kwCqINXWrNNO5xYqB3EPzmYX2cQf9sPWlxIOLNBxr6aMkCLU1OWAZIUo0cDVxkGSepuJgAkqbudCTydwm6ZlNTvAjCwvsLw/EOEjVWTAGpwtTTbtKiB/F32J1TfcZ9Ryz/3UNW1/EODdtVfhoy7/muaNkoYJAmLU9NUSiUvOUmxGQOeP/Gmew8YCknqXiYAJKlbP03/yrsD8HjgMUZDUpECMLCxysj8Qwysr5gEUJMXzh4O5He0P7V39YfGXSpkBkF+GaDVhQXWlpe9xiTF+JHiqcC5hkKSupcJAEnqXsOkC2sdMhSSOvEXeyitMTz/IAPrSyYB1IErrIjDtFMGqJla/idfBTmH2M0MgqoGoU48qssAbWywND1jGSBJMToPeNLEm+51xrIkdSkTAJLUvY6Rlv+RpI4IQChvMDx/nMG1RZMAyrlKijjMHi4iXFgt/7qvnKpj1M4gCPl9CjlJhSRhcWrKMkCSYjQKXA9YBkiSupQJAEnqXk8CLjQMkjppWxJgdQGSikFRnQtmDwfyi+xPvcH+zFr+VV+3NYOgtk3jGQSrCwusLS15jUmK0dXAOYZBkrrTkCGQpO4z9it/MwzcCBw0GpI6LQBJpczwwglIKpTHDkPwPhEVcmU12TTkz0Cpty/3nDnnDkASICSbu7dG4pM63a4erU/qnKL2WLUNws59Vf0pbWywMDXF2OmnE4KVNCRF5TzgycD3DYUkdR//spOk7nQ26YJajgBI2hMBoFJmeGGKoaVZqDgTQNuujiabFjVDYJf9KaSW/25mEGQ8tlHJoSRhaWqasmWAJMVnFHj+xJvuHTMUktR9nAEgSV1m7Ff+JgBPAB5tNCTtpQCQVBhamoEkoXTwCAwMGhjVXCihoPUi9mOGwI4rnto78Xd2qaqfrcwgOPmwjKRDkmTOIFhdXGRtcZHBM87wOpMUm6eQzgT4tqGQpO7iDABJ6j4jpAtpjRsKSfshbCYBhhenoVJ2cWDt5mpqoWlRawhk3XLfbi3/UNOmhRkE1Q1CnX5WzSAol0osTs+Q+JqTFJ9zgZ+87E33OoNZkrqMCQBJ6j5nAU8zDJL2UyBhcHmO4YUpSEwCaA8W7e1Ul/MG8ZstzVP3BHllgHJiltunTUnC0vQUFcsASYrP1k1Mo4ZCkrqLJYAkqYtslv/5SeACoyFpvwUSBlfmIKlQOu0oycDQ3g7gqosvjqIX7e1gf+qerrpWf5JR3qdq0d6tnxdRBmhbSaHt7VYXFlldWOSgZYAkxefJWAZIkrqOMwAkqbuMADdi+R9JXSIAg6sLDM2fIJQ3nAmgNq+iZpsWtYhwThmgbV82uGN/12WAmnn+O8sUlUslFqdOWAZIUozOAZ562RstAyRJ3cQEgCR1l3NJF9CSpK4RgMG1RYbnjxPK6yYB+vpKaLZpUQP5u+xPq4P4gebakdFuR1Kh5vGhUZ82JQlL0zOUNza85CTF5gDwfLyZSZK6igkASeoSm+V/nkQ6bVaSukoABtaXGZ57iFAyCSA6sGjvLs/ZdmIh44790KBdSzMIqh+bkVjISCqsLS2xtrjoLABJMboKeLRhkKTuYQJAkrrHAVw4S1IXC8DAxioj8w8ysLFqEkC7uJiKLvVTb1/O4H6jO/a3HaK2pE9RMwiq2lb1p7yxweL0tNeJpBidTVoGyPEmSeoSviFLUvc4B7jaMEjqZgEIG2sMzz/EwMaKSYC+vAKabRq6q8tt1/IPzbwqtn+fOzMg5PRpZweWpqctAyQpRkOkNzWNGQpJ6g4mACSpC2yW/3k6lv+RFIEAhNI6w3MPMbC+ZBKgry+GPaznX2R/WqrlX9OurRkEOefKbRdYXVxkdWHBa0xSjJ4IXGAYJKk7mACQpO4wiuV/JEUkAKG8wfD88YVQXv8SUDIqanzVNNu06BJBOSV8Wqrlv9sZBM2ug5D2p1Ius3DihOsASIrRI4GnX/bGe4OhkKT9ZwJAkrrDeaQLAEtSNAIwUC7dObC28nLgjcC6UemX//PNNu3Eor1t9KfjtfwbzSAIO593bmJhU5KwPDNDad2XlaToDAM3AocMhSTtPxMAkrTPNsv/PAU412hIikwF+Ifhxak7gN8FXgesGJY+U/iivbs8Z9uJhTq1/ENOu5ZmENR+07gM0NryMmsLC84CkBSjK4HHGAZJ2n8mACRp/40BNwAjhkJSZGaB21bf8K8qTE48BPwe8KfAkqHpdXtQs7/wxELt4H7eIH6dhX87NoOg9nibZYBKJRanp11nQ1KMzgSuueyN9zruJEn7zDdiSdp/5wFPNgySInTn5rZlFvgjYBKYNzwCCiz1s9t+ZPVnF4P4mSeoN4Mg7DxJbp9OWZqepryx4XUkKTaDpGucHTQUkrS/hgyBJO2fsRf/bQCeieV/JMUnAT4CzJ38yeREAsxz853/DVgG/gPwcEPVB0Io6C71sHlp7VF/tk538rSh5hIPEJKMLoWqxyaQVLcLVY+v9/Rqz5Xdn7WlJZbn5zl87JjXmaTYXAlcCHzFUEjS/nEGgCTtr3HgOiz/Iyk+U8AnSdcBqLUM/H/A7wMPGCpttx+1/nPKAOXdsZ/Vz5B33lZmENSuH1AvNptlgCoVFk+cIEkqXjqSYvMI4NrL3nhvMBSStH+cASBJ++sC4CrDIClCXwO+ufKGn9t5m3M6E2CVm++8lbQs0P+NM516UAt369e7I38vZw+cvMO++pwZd+w3nBnQbLu8GQRVbbf2n+xTTX+ShOXZWUpr6wwfGPWykxSTIdK1zl5H9YxBSdKecgaAJO2TsRf/7QBwNXC20ZAUmTLwCdLB/XyTE+vAu4F/A3zPsPW4whft3eU5m+1PyPpBvVr+TbTb0bjRegBh58PCqX3ry8uszC+QuBiwpPhcDjzWMEjS/jEBIEn7Z4z0jhhnY0mKzQngwytv+LnGNUkmJzaA9wKvAr5OIQXe1T0KqupQeKmfevuyBt/DqQH3HaV7GvWpmYWEa87VVLtT31bKZZampgqaKSFJe+oY8IzL3nDvoKGQpP1hAkCS9s9jgCcaBkkRugP4ZtOtJyfKpAsG/zrwVUwC9KcQuuOcbdXyz6jhn/Owne3yZhBknTPk7AsszUxTWl/3OpIUmwHSNc8OGQpJ2r83YknSHht78d8G4FrgLKMhKTIV4MPAYkuPmpyoAJ8FfhX4HNmLByt2hQ3yhw6dM9T/cebCvfUeWm8GQaPzhcbnqvrR2soKy3OW0JYUpccBFxkGSdofJgAkaX8cAp4DDBsKSZE5DnyKdgbw0yTAPwOvBD6GSYA+t8eD/Llt2q3lv5sZBM0mFk6dMymXWZw6QVLxZSMpOkeB6y97w72OQUnSPvDNV5L2x4XA4w2DpAjdAXx75Q0/114Zn8mJZPMYrwQ+AJQMaez2eNHeIru8q1r+9do1W++/qm1un059vTw7y8bampecpNgMkt78dMRQSNLeMwEgSXts7MV/OwA8DTjTaEiKTIn0zv35XR0lTQJ8j3Rh4HcDG4a2hxS+aO8uz9lsf9qu5d/iDIJtX9ZJQISd7dZXV1mZnydxMWBJ8bkUuNgwSNLeMwEgSXvvIHAD6Z0wkhSTh4CPtn33f7U0CXA38FvAGwFva45aQXfvFzZDoJnEQtbgezO1/ENOn1qdQRCabHfq26RcZnF6ygSApBgdBZ552Rvu9W8gSdpjJgAkae9dBFxpGCRF6CvAdwo7WpoEuB/4PeAWYNkQ94HC6/m3ec62a/lv/dtKGaDaMj8NnudWnzJmCSzPzFCyDJCkCN/9ScsAnW4oJGlvmQCQpD009uK/DcCzgWNGQ1JkysBtwFKhR52cSJiceAj4feDPgAVD3QM6Ncjf6RkCbdfyr1MuqN65M5MKoe5D1ldWWJ6ddRaApBhNkJYCkiTtIRMAkrS3DpMmAIYMhaTIPAh8ZuUNP1fpyNEnJ+aAP9rc5g13HytsMeDQYps6tfwz6/Xn9beVGQStJBbS/iSVCotTlgGSFKUzgBsue8O9jkVJ0h7yTVeS9sjm3f8XAZcbDUkR+grpwr2dMzkxTzoL4PeB44Y8NgXdyb8fXW5Uy39b+3bLAOW1yTlvbowCy3OzlFZXveQkxWYAeBbpegCSpD1885Uk7d177tOx/I+k+GwAHwYWO36myYkl0vUAfo90fQDFqvBFe3d5zmb707CWP80t2tv0DIKsfXkJg/SbjdVVlufnnAUgKUYXA5de9oZ7g6GQpL1hAkCS9s5pwPW+90qK0P3Ax1fe8HN7M9o4ObEKvBF4NXCX4Y9JBxftbWZfS/3JGsVvtZZ/yOhTqzMIWlxfoLoMUKXiJScpNkeAa4FBQyFJe8NBKEnaM+ESCI/feSehm5ubW9dvX4Lwwz19y5ycWAfeBbyKTpceUgd/9e3FQP4u+xPy9rVxN/+245HzeqL1MkAZ7ZZnZtiwDJCkCH8zkK6JdoahkKS9YQJAkvbA2IvfMwA8xw+6kiJUAm4DVvb8zJMTG8AHgVcCd/i/otftcamfeuds8k78hm3qPq3aYzUxi6C6DNDaGsuzs5YBkhSjS3BdNEnaMyYAJGlvHCFd8MqprpJicx/wuZU3/Kv9qTUyOVEGPkaaBPgy4Ghn19uDMkCF96fJMkChzuN2NYNgl2WAEtzc3Nxi2g6TcONlt97r30aStAdMAEhSh429+D2BdLGry4yGpAh9CfjhvvYgTQJ8Dng58FlMAvSO0CVrQDZVBqj2x6GmzE/W8Wp/uIsyQBmdWJ6fY2PFMkCSojMAPAM4ZigkaW/edCVJnX+vfSZw1FBIisw68GFged97MjlRAb4K/DrwEcDVT2NR+KK9uzxns/1pppZ/ZtfanUFQ26DezID0m9LaGstzlgGSFKXHApdfduu9wVBIUmeZAJCkzjsCXE9hNREkac/cA3xy5Q3/qjtGF9MkwNdJFwZ+H+n6BOpKe1AGqPDEQr0yQDR3x36jMkDbvgwZyYV652pQBsiaIm5ubnFthyF5DiRD/s6UpM4yASBJnTeB5X8kxekLwN1d1aPJiQT4HvAbwLtIZymo2+3JQP4u+9NUGaBGd+xnHa/2m0YzCDLahZDbbnlulvWVZa8xSTF6Js6SlqSOMwEgSR009uL3DJDe/X/EaEiKzDpwG7DSdT2bnEiYnLgb+E3gVmDN/129ZI9L/dQ7Z9u1/NudQZDVIC9Zkc4gKK2vszw7YxkgSTG6CHiCYZCkzjIBIEmddZR0gSvfbyXF5h7g811T/ifbg8B/Av4n3bBOgWrsQRmgovsT8soAbW5N1fLfzQyCFssAsVkGaHp6swyQJEXlNOC5l916j2WAJKmDHJCSpA4Ze8l7Amnpn4uNhqQI/RNwV1f3MJ0JcBz4L8B/Bxb83xapELrrnKHJxYgza/lnNG15BkHG8eqUAVqZn2d9ZcXrSFJ07/7ANcCZhkKSOscsqyR1ziCBZ2H5H0nxWQU+uPlvDOaAPwIWgd/xfbdLhQBNl6kJpItEtrqvA+fc+nEAkupvtiQ5h8gq3ZNUHSvn3NvOU32cJKNfabuNtTWW52Y5cPAgYT+SKZLUvscAj7/s1nvu+9pLzrWWmSR1gDMAJKlzjgLXUVgNBEnaM3cBn1u59V/F8Yd4OhNgEfhT4PeAE/4v7BZ7UAao8EWE65UBosla/o1mENTU/A/Q/LoBGf1JEhZPnKBSLnvJSYrNoc2/mYYNhSR1hjMAJKlzrgAuMQySIvQ54N7oej05sczNd76OdAHj/x04x/+VXabeHfmFzRDYZX9O3uRfrz+N7tjPmBXQzJ39mTMDONVuq08Z7Zbn51lfWWb0tMNeZ5Ji83TgWJSfPSQpAs4AkKQOGHvJewaBG0jvaJGkmKwCHwbWouz95MQa8Ebg1cCP/d8Zsxbu7O/0DIFtd+JXf9NoZkC7MwiyGmQsJlw1g6C0vs7SzAxJYgUNSdH5F8BTDIMkdYYJAEnqjGOkC1r5PispNncB/xRN+Z8skxMbwN8AvwF81/+l+20PygAV3Z9QXcqnU2WAqr8MVT9qpgxQRrskYXF62jJAkmI0Dtxw6a33WAZIkjrAEkCSVLCxl/xdgOQK4CKjISlC/wjcE/2zmJzY4OY7PwgsAf8NmMA1Wbpfp8oAFVZ6qPb8pH3YKu+ztchvU2WAmllIGFopA7S6sMD6yjJjhywDJCmud3/gqcDZOHtPkgrnnamSVLwh4FrAv74lxWYZ+ABpDf34TU6UgU8CrwK+SCFF47VrhS/a285xWz1nyCkDtPV1yD7ErmYQZDUIOd09VQZoeWbWMkCSYvRo4AmXvv4ek/WSVDATAJJUvGMQnrPzD343Nze3rt9+CCHu8j+1JicqwGeBm4DPABV/Te2HCMsAZQ6+tziI3/D4O2v5Zx6j9lwhI6kAaRmgqROWAZIUo3HgemDEUEhSsUwASFLxngA81jBIitBngAd67lmlSYDbgV8nXeDYJMB+6/SivUX0JzTTn0a1/Ku+bmsGQW2b0ODpB1YWFlhfXvIakxSja4BHGgZJKpYJAEkq0OhL/m4ogRsSOJiQ1ppwc3Nzi2RbTtLB8fWefIOenEiAb5AuDPweoORvrVgUVAZo14mFjEH8k4P5zQ3OtzeDoF4ZoJ0zCMobGyxOz1gGSFKMLgCutgyQJBXLBIAkFetM0gWs/NAqKTY/Av555daf7d1RwzQJ8H3gN4F30qvJjq61HwP5u+zP1rlC9Wh9i4P9u5pBUKcMEDntkoSlmWnLAEmK0RhwA5YBkqRCmQCQpIKMvuTvAnAlcKHRkBSZBPg0cF/PP9M0CXA38FvAG4FV//fHILS5r7ZpJxIL9Wr517QrbAZBVWIho93q4gJry0vOApAUo6cA5xoGSSqOCQBJKs4w8BzgkKGQFJkl4AOrt/7sRl882zQJ8BDwu8BfAMteAvsghC4/bpNlgLa1z6vlv5sZBHl9yeruqTJAyzMzXmOSYnQe8CTLAElScUwASFJxHglcaxgkReh7wJf76hlPTiRMTpwA/i/gT4B5L4O90MFFezvWn6wa/O3U8q93/HozCMLO570tsZCRVEgSFqdOUCm51IWk6IwC1wMHDIUkFcMEgCQV5yrgJwyDpAh9Cjjel898cmIO+GPgD4FZL4U91tFFewvqT2imP41q+Vd93dYMApprV/WD1cVF1paWvMYkxeipWAZIkgpjAkCSCjD6kr8bIV2wasxoSIrMIvARYKNvIzA5sQj8GfAf6ddESBT2o9Z/1gh8bf39Jmv555UBajiDIK9B2Pl1dRmgUonFmSnXAZAUo/OAaywDJEnFMAEgScV4JHA1hd2CKEl75vvAV1Zv/dn+HiWcnFgB3gD8e+BeL4tO2u9Fe9voT+YsgGbu2M9JCtTrQ8MyQHnd3lkGaGlmxjJAkmJ0gLQM0KihkKTdMwEgSbs0+pK/C6Tlfy4wGpIikwD/ADxoKIDJiVXgzcCrgR8akD1SWKmf/U4s1A70h5wutTuDoPY8IeNY2x+4tlkGyFkAkiL0JNKZAJKkXTIBIEm7NwJcB4wbCkmRWQA+uHrrz3qL8JbJiQ3g3cCrgO8YkIgVPkOgQS3/HQP0WYfY7QyCJhIgNWWAlmamvRYkxehc4CmWAZKk3TMBIEnFfDh9pmGQFKFvA7cbhhqTEyXgNuAm4KsGpBM6uGhvp/rTqJZ/7qFaKQNUbwZB2Pm8c/u0KUlYnJqivLHhJScpNq6xJkkFMQEgSbv3ZOB8wyApQp8EpgxDhsmJMvAp4JXA50nLJalTCl+0t4P9qXu62sV965UBIqddMzMDmm0XWF1aZG1p0WtMUox+Eni0YZCk3TEBIEm7MPqSvztAemeKC1RJis088FHA8j95JicqwD8Cv06aDKgYlG6wH7X+c8oA5Q72N1MGqJ0ZBFkzCUL+1wEq5TKL09OuAyApRmcDz7AMkCTtjgkASdqdc4GnGAZJEfoOcMfqrT/rqGA9kxMJcAfwa8CHgbJBKcp+L9rbRn8Kq+Wfd8pmZxBknKNOGaClmem0DFCCm5ubW0zbCAnPIXGtNUnaDRMAktSm0Ze8NwBPAs4zGpIiUyG9+/+4oWhCOhPg26QLA78bZ010RmGlfvY7sdColn9Gu5bLANWZFZCRVFhbWmJtcZHESlaS4nMVcIFhkKT2mQCQpPaNQnguhNHsP8Td3Nzcunabg/Dh1Vt/1rvZm5XOBPgB8NvA24F1gxKJwhMLOYP7bZUBatSutk1ooruhqh+bZYBKJRZnpl3JQlKMzgauvvR19zh+JUlt8g1Uktp3HvA0wyApQt8EvmYYWjQ5kTA5cTfwauBWYNWg7NYeL9pbxHELqeXfKCb1ZhBk1PzPTSycsjg1RXndvJWk6AyRrrk2ZigkqT0mACSpfVcD5xgGSZFJgI8BM4aibceB3wP+HFg2HAUqfNHeXZ6z7dNVDfbXreXf7gyCnHPltgusryyzurTgNSYpRk8CLjQMktSeIUMgSa0bfel7x0jvRDlgNCRFZhb4OC5m2760HNAUN9/5B8ACaVmgwwZmrwWarmkTAiRJgeesPvfWKHuy+eMAIanqWk3brX0n+1Q9mp/UOVVWBiFpIjbpOSvlMotTUxw84yihUzMmJKkzzgSedenr7rnj6y8712JmktQiZwBIUnvOA55oGCRF6JvA11df/zP+Ab1788D/C/whMGU42rXfi/a20Z+2a/k3aLejTdUBQqO+1Pap5jxJwvLsLOUNywBJis4w8BzgkKGQpNaZAJCkFo2+9L0B+EngXKMhKTJl4CM4WF2MdE2AJeBPSUsCHTcoBSh80d5dnrPtxEKdQfy8hEBmuaAGiw7v2GoeVlUGaG1lmdWFBZLE/J+k6DweywBJUltMAEhS68aBG4ERQyEpMrPAR1Zf/zMVQ1GgyYlV4A2kiwPfY0D20Z6sIZA1ih9OHb/hIH5enwqYQZDbLu1PpVRicWa6oHJIkrSnzgSedunr7nEcS5Ja5BunJLXuAuAphkFShO4kLQGkok1OrAFvB34T+L4BaVXo7uNmJQ/aLgMUsttlnqDeDIKQ/zxD3r7A0vQ0JcsASYrPIOkabJYBkqQWmQCQpBZslv95GnCW0ZAUmQT4KDBnKDpkcmIDeA/wb4FvG5BdaOlO/tD5czZ9jNouNVvLv90ZBLUnbVQGCNY3ywBJUoSuAi4yDJLUGhMAktSaceB6LP8jKT5TwCdXX/8zZUPRQZMTJeBDwK8Ct5MmXtQtCl8ouN7d/83W8m9lBkGdmv+5/azaAlQqFRanp0gSK4FJis5R4NpLX3dPMBSS1DwTAJLUmkcDTzAMkiJ0J/ANw7AHJifKwGeAXwP+EZMATdrvRXvb6E/bZYCabVfnrv685x0axCFJWJ6dpbRuGSBJ0RkCng0cNhSS1DwTAJLUpNGXvneAtPzP2UZDUmRKwG2kiwBrL0xOVIAvAK8APgF4u3WrCl+0d5fnbDuxkHHXflMJgWZnEFTva1QGKN23VQYocTFgSfG5HLjIWQCS1DwTAJLUvIPA80nvPJGkmEwBn1h9/c842reXJicS4A7SJMCHAMsvNbQH9fwLTyzUDsxXD/KH5p5Sx2YQZLQLUCmXWZg6kSYAEtzc3Nxi2o6R8HQSx7MkqVm+YUpS8y7E8j+S4nQ7Lkq7P9IkwHeAVwLvJp2NoWbtyUD+LvuTW3KnlVr+jfpebwZBqHPOvH2B5dkZSmtrXmOSYjMA3ACcZigkqfk3TklSA6MvfW8Ang4cMxqSIlMBPgIsGop9kiYBfgz8NvBmwOLrHbEHswda7Uoztfxr79ZvawZB7QEbn2t9dZXVhXkvG0kxehxwqWGQpOaYAJCk5hwCrgOGDYWkyBwH/mH19T9j+Zn9lCYB7gF+B7gVWDYo+6johYLrlvBpUMs/t0+tzCBocRZBgKRcZnFqiqRSwZoibm5ukW1nQPLsS197t2NaktQE3ywlqTmPAR5vGCRF6KukJWi039IkwAngd4G/wCRAjv1etLeo/hRZy7/ZGQTUzCCoH4fl+Vk21i0DJCk6g8CzgCOGQpIacyFLSWpg9KXvGwCeAZxpNCRFZgP4e8A6H90iTQJMc/OdfwAskJYFOt3A1BECJM2uXx1I7w5tdV8L52ypP9WnzVo/YHMR3m1dq263uXNbu+rGVV9n7qNmf3U7WF9ZZXV+juEDBwiFJUwkaU9cBlx86Wvv/tzXX/6oxHBIUj5nAEhSY6cBN5LeaSJJMTkOfGr19T/tH8bdZnJiHvjvwP8JTBmQWntQz7+wRYSzbsWvquV/8vt2+hua6E4L6wvUtEkqZRamp0gS3yIkReco8Ewc15KkhnyjlKTGLiJdaEqSYvNl4HuGoUtNTiySlgL6XeABA1LHngzk77I/uSV3ctYDyKzln3W86h/srOWf/bRqB/tDzTlPtVuenaW0tuo1Jim63wzADcAZhkKS6jMBIEl1jL70fYG0vuRRoyEpMmXgw8CSoehikxNrwBuBVwP3GpAi7MHsgWbP2eSd+PltmplBUHusBusQ1LTbWFtled4qYZKidNnmJkmqwwSAJNV3GHg2rpkiKT4PAp9eff1PVwxFl0uTAH8N/BvguwZkDxU9eyBzEeCMQfzMgfq8PjWaQZB1LppLLARIKhUWp6eoVHyrkBSd04HrL33t3Y5tSVIdDmhJUn2PBS43DJIi9EUs/xOPyYkNbr7z74AV4E+Aiw3KPi3a23T3WjlnznPZtnBvzaK91Q/LXCQ4qdMmq11efwMr83NsrK0yMjbuZScpJgPAM0hnax83HJKU/2YpScow+tL3DZLe/X/MaEiKzDrwISz/E5fJiTJwG3AT8BWaHv3uE4Uv2lv0ORucLrPmf8hoU/3AejX/82YQZO0LdfoDG6urLM/NuRiwpBhdDFx2yWvvDoZCkrKZAJCkfKeTLizle6Wk2DwAfGb19T/taF5sJicqwGdJkwD/SN8nAfagnn/hiYV6ZYBospZ/aKE77ZYBOvVtUqmwOHWCxDJAkuJzhHTNtkFDIUnZHNSSpHwXAxOGQVKEvgj80DBEKk0CfAn4deAjgKOyW/ZkIH+X/Ql5+1qp5Z91vOr9zcwgIKNdyDhn+vXK/Dwba6teY5Ki+80AXA883FBIUjYTAJKUYfSl7xsgLf9zxGhIikwJ+DBpLXnFanIiAe4EfgP4+83/r2pJQaV+ikgsNLkgb8M2dZ9W7bFC475ttQtQWl9jZW7Oy0ZSjC7GddskKZcJAEnKdgS4FqeSSorPfcBnV1//0941Hrs0CfBd4JXAu4ANg9INmkgIhLwyQFm1/HOO3dYMgurz1TysQWIhqVRYnJ6iUi77v1hSbA4BN1zy2rv9202SMpgAkKRsFwOXGgZJEfo8lv/pHWkS4C7gt4G/Il3guc906k7+LlpfoOpO/MZlgKp/2EoZoJo+ZbSzDJCkSA0A1wDHDIUk7TRkCCRpu9GXvm8IeA5w1GhIiswa8KHV1//0sqHoIWkS4F5uvvM/AsvAS4Hxvo1HCJA0uzZyoJB1lFs6Z4OuBCDJSgwkOd3OKt2TVB0r5/mePE9Sc5wko19pu9L6Gsuzs4yMjROKSpBI0t64CLjiklvufvAbv/qoxHBI0inOAJCknc4gXUjKv3wlxeZe4HOGoWcdB/4T8BfAUn899S66W79hf7Juxa9Ty7/eHfu7mkHQYhmgsFkGaGqKpGwFMUnROUy6hps3ukpSDRMAkrTTZaQlgCQpNl8gLRejXjQ5kTA5MQv8webWvyu27slA/i77E/L2heyvQ519mTX/a7d6T6t2sL9OGaCFedZXXUNcUpSuAx5hGCRpOxMAklRl9GXvHyAt/3O60ZAUmXXgw4AFvHvfAvBnwH8GThiORjq1hkAb5yy0ln8T7UJWg7xkRZpkKK+vszI3S5JYQUNSdC4ErjQMkrSdU6MkabujhPBMTJBKis/dwOdWX/dTjtr1unRNgCVuvvN/kq4J8J+BRxqYKvVq9hdRzz89EA3XF9h2rlZr+ZP+cEd/a+v6N1nzf9saBGT0Kf1hklRYnJ7i9DMfSRgc9FqSFJODwA2X3HL333/jVx9VMhySlHKAS5I2jb7s/QHL/0iK12eBHxuGPjI5sQa8EXg1aQKox9WWuQmdOW7bh2l39kBGGaCQ95xr2p38pp0ZBPXKAC1YBkhSrL8ongqcaSgk6RQTAJJ0yhBwA3DEUEiKzCpw2+rrfmrNUPSZyYl14F3Aq4DvGZA8ezDI32w/mhnEz+x2Rs3/tsoABeqWAQJK62ssz85YBkhSjC4ErrzklruDoZCklAkASTrlKHBtcaMEkrRn7iJdAFj9aHJiA/gA8BvA13r7ye733fqt9CdvdL6dWv67mUHQ6FwZSYUkYXF6ikq57OtLUmwOkS4GPGwoJCllAkCSTrkCuMgwSIrQ54B7DUMfm5woky4C/evAl2lYnL5H7MlA/i77E/L2heyv65YBanMGwY6EQE1iISP5sLqwwMaKZYAkRelaXBtHkk4yASBJwOjL3j9IeqfIIaMhKTKrpAO/lv/pd5MTFdJk0E2b/1q/ZZsWBvk7nVhouwwQtDWDILNBnTJAAUob6yzNWQZIUpQuAK4yDJKUMgEgSaljwDN8X5QUoR8BX1h93U85SqetJMA/k84E+DBQ6b0nuR8D+bvsT6i+476dWv5hlzMIWiwDBJAkLM1MWwZIUozGgBsuueXuEUMhSQ50SRKjL3t/IC3/81ijISkyCfAZ4B5DoZMmJxLStQD+DfA+oLdHcPdyIL+j/clYuDc06Oq2dq3OILAMkKTe/c0AXI1lgCQJMAEgSZAuEPU84LChkBSZFeBDq6/7qXVDoW3SJMB3SRcG/mvAawTYn0H+rFvu82r5b32dV8s/ZwZB7tOrnkFQ1SDUiUdtGaDZacsASYrRBcBVl9xydzAUkvqdCQBJSsv/PN0wSIrQj4AvGQZlSpMA9wCvBt5ETyUB9mAgv+hFhBveid+oXTMnqDeDoNECxdllgBanp9IyQAlubm5uMW3jJNxIgmWAJPU9EwCSBFcCFxoGSRH6NPCAYVCuNAlwP/C7wP8HLPXk89zLgfwi+xPqnD+zln/V123NIKht03gGweriIutLS76WJMXoGuBcwyCp35kAkNTXRl/2/iHgeuCg0ZAUmWXgI1jaRY2kSYATwH8B/gxY7O+A7MciwqH+uQup5d+oXd6BMvZV9adc2mBpdsYyQJJidB7wZMMgqd+ZAJDU784kvTPE2pCSYvN94Iurr/spR+XU2OREwuTELPCHwB8As/E/qf0YyN9lfwqp5R+aaEfODIKMxzZKGCQJS7PTVMolX0eSYjMK3HDJa+4+YCgk9TMTAJL699Pgy94fgKuw/I+k+CTAp4D7DIVaMjmxCPw58J9IZwX0jr0cyG/mnG33p1Et/4x+Nhrsz3xaNQmIEHLbrS4usr687OtHUoyegmWAJPU5EwCS+tkIcCOW/5EUnyXgttXX/ZS35Kp1kxNLwC3AfwDu7c8ghH04btYt9+3W8g81bVqZQVDVoF5ioboM0MY6izPTlgGSFKPzgCdd8pq7nfEtqW+ZAJDUz84CnmYYJEXo+8CXDYPaNjmxBvwV8NvAXfE+kT1etLfILucN4jddy7/eCerNIAgt9OmUpdlpKiVzjpKiMwo8b/NfSepLJgAk9bMnAhcYBkkR+iRw3DBoVyYn1oF3Aa8EvtMTz6nwRXs72J+6p2tUy7/q67ZmENS2adxubWmRteUlXzeSYnQ16UwASepLJgAk9aXRl71/GLgeGDMakiKzCHwU2DAU2rXJiRLw98CrgDv768nvR63/nDJA275sspb/rmcQhDrx2JlkKJdKLM1aBkhSlM4hTQJIUl8yASCpX50NPJXOFQGWpE75FvDl1df9lKNwKsbkRBn4GPAK4Iuki0xHZL8X7W2jP63W8m/2jn0y2jVKKoRGfdqUJCzNzFgGSFKMDgA3XPKau735S1JfMgEgqe+Mvuz9AXgylv+RFJ8K8CngQUOhQk1OVIDPATdt/luJ9rkUVupnvxMLGXfshwbtmqn5v6NkUO2W9/QDa8uLrC0tOgtAUoyeiGWAJPUpEwCS+tEB4EYs/yMpPovAbauv+6myoVDh0iTAV0mTALcRcxKgXXuyhkBOGaDagfmWygA1alfbJjTR3Z0zCMobGyzOTvtakRSjc4GrL3nN3Y6DSeo7vvFJ6kPhHAhXZ9/15ubm5tbV23cg3OH7uDpmciIBvgH8W+DvgEjqvRR0t/5+dLnZMkDbfhCaeM6NZhBk1PzPTSycsjQzTbnkEiSSojMCPB9vApPUh0wASOoroy/7wFb5H6d/SorRx4Epw6COmpxImJz4LmkS4B3AenTPYS/r+RfZn5Zq+de0a2sGQc65ctsF1paXWFta9HUiKUZPxDKwkvqQCQBJ/WYEuAEYNRSSIjNHulCrK3Bqr9wDvBp4I7DWu09zP2r955QBaquW/25nEDS7DkLan0q5zNLMtOsASIrRWcDTLnnN3cFQSOonJgAk9ZtzgacYBkkR+gbw1dXXPd9RN+2NdCbAg8DvAX8OLHd3h/d70d42+tPxWv6NZhCEnc87N7GwKUlYmp2hvGEZIEnRGQGuB8YNhaR+YgJAUt/YLP/zVODRRkNSZCrAJ4EThkL74ATwB8B/B+aj6XXhi/bu8pxtJxYa1fLPaNfSDILab3LKAFX9YG15idWlBWcBSIrRE/x7UFK/GTIEkvrIGPBc0js/JCkmc8CHV1/3/Iqh0J5LFwae5eY7/4g0AXAzcKQ7OxuAAgalQ4C8we16+1rqz9a+6jabg/ZJsvlvgJBs7t4aiU8yDlHdp3rtqDlWTrsd/WSzH2l/KqUSSzPTHDz9DF8fkmJzNnDNJX951ze/8Wvn+blKUl9wBoCkfvIo0gWAJSk23wS+bhi0z5ZISwH9Pr0wGyV0SQnoossAZZ4gZwbBtrv/q77O7VPVxTA7Q3lj3VeFpNgMAc8HDhoKSf30xidJPW/05R8IwNXAOUZDUmQS0sV/ZwyF9lU6E2CZm+98LWky4P/s+t+rLd2tX/dAdHxmQd3T1d6xXz0zoKZdKzMIMs+XMTsgYwbB+vIyq4uLHHrYAV8bkmJzJXAh8BVDIakfOANAUr8YJV3wyb9SJcVmBvg4UDYU6gqTE2vAm4HfBn7YO09sP2r9h4xzt1vLfzczCBrNJNg5g6BSKbM0O02SJCTg5ubmFtN2LIGnX/yXdwV/qUvqByYAJPWL87H8j6Q43QHcsfra57vaprrH5MQG8C7gVcB3u6tz+71obxv9KboMUMN2Ib9bIWzfH0J2f5KEpdkZSpYBkhSfYeA64JChkNQPTABI6nmjL//AAHANcK7RkBSZMvAJYNZQqOtMTpSA24BfA27v2n62dUd+q/taOGez/QlZP6hXy7+JdlkHrrseQMhpl36xvrLMysICSWJ+UlJ0Hg88xjBI6gcmACT1gzHguaR3ekhSTGaAj62+9vkVQ6GuNDlRBj4JvAL4AoUUyi9CQXfvF17qp96+rMH3kFEGqE65nl2XAarTpYwZBJVymaWZqYLWWZCkPXUmcO3Ff3nXoKGQ1OtMAEjqBxcAVxkGSRH6OvBNw6CuNjlRAT4P/DrwGSCuhFUI3XHOkLev0R37DcoAbftBThmgQINzhpx9geW5WcsASYrRIHADlgGS1AdMAEjqaaMv/0AgLf9zltGQFJkE+AgwZyjU9dIkwFeBXyUtC9Rdi1bvZT3/Io/bTM3/kPfAvBkEjc4XGp+r6kfrqyusLi74GpAUoyuAiwyDpF5nAkBSrxsHngOMGApJkTkBfJzY7qZW/5qcSIBvA/8W+Fu6LQnQtE7V+g8tnruVWv6hoBkEzSYWTp0zKVdYmpl2HQBJMToKPOviv7wrGApJvcwEgKRedyHwRMMgKUJfBb6x+trnO6qmeKRJgO8Bvwm8FVjbv87s8aK9RXa55Vr+zbZrdqC/qm1un7YkaRmg9TWvf0mxGQKeDRw2FJJ6mQkAST1r9OUfHACeDpxtNCRFpgR8DJg3FIpOmgS4F/h3wBuB1a7oV+GL9u7ynM32p+1a/u3OIMjYl1sGKN23vrLCysK8swAkxehyLAMkqceZAJDUy8YhXA9hMHuKu5ubm1vXblMQPu7d/4pWmgR4CPiPwJ8DS/vTkYLu3i9shkAziYWswfdmavmHnD61OoMgNNnu1LdJpczSzDSYAJAUn2PAMy7+y7sGDYWkXmUCQFIvezTpwk6SFJs7gO8YBkVtciJhcmIa+EPgT+j2GS2FDeTv8pxt1/Lf+jc06GpG0jHUa5vR34xZAivzc5Q2NrzuJcVmgLQM0EFDIamX3+gkqVc9HniEYZAUmQpwG7BoKNQTJidmgT8G/gCY3te+dKqef6dnCLRSyz/vrv7MGQQ5585MKoS6D9lYXWV9ecnrXVKMLgHOMwySepUJAEk9afTlHxwErgZGjIakyDwAfII0ESD1hsmJJdJSQL8HnIij0zl3vxd93IZt6tTyz6zXn9ffVmYQtJBY2OxPpVJmZWHOdQAkxegRpGsBSFJPMgEgqVedTnonRzAUkiLzFeC7q699nqNo6i2TEyvArcCrgXv27sQFLdq7lzLLAAUazhDIa9f2DIKM4+XFKIHVxUWSxNylpOiMAE+4+C/vcoxMUk8aMgSSetTDSdcAkKSYbAAfxfI/6lWTE2vcfOfbgDXgj4AL9rwPIbSwWG0Akjb2tXDOZvuzdbqTp80qyZPUtKlul5z6flu7sH3f1teZ+6jZv73d+soylY0SAyOupSkpKgG4CBj3M5ikXmR2U1KvejRwhmGQFJnjwCe9+189bXJiA3gX8CrgW3tz0g4u2tvMvpb6k3Urfu0d+41q+YeMPjWaQbCbMkDpP6WNdUrr617jkmL0E6SzyCWp55gAkNRzRl/+wQA8CjhoNCRF5ivA9w2Det7kRJl0setfA27vqr4VNpC/y3OGvH3N1PJv1G7ri52D+NlPK2c9hJofV8plNtZWvb4lxego6VoAktRzTABI6jkJDCTwqM1/cXNzc4tkKyfwIWDJd3L1hTQJ8GnSJMDnaLqeTgE6Ncjf6RkCbQ/itzuDoPaAObMINtsllQql9XUXApYUo3HgkYZBUi8yASCpFw0C5xgGSZG5D/iH1dc+zxU01T8mJyrAPwGvBP4B6OD1vwdlgArvT5NlgOrdsV93BkFoMIOgxTJAQGl9zetaUoxGSWcBSFLPMQEgqRcNki4CLEkx+SLwA8OgvpMmAW4nnQnwIaC8730qbJB/t/3I608rtfyzjlf7w2bLAIWGMSqXNlpYZFmSusYQcPTi/3mX42SSeo5vbJJ6UcAFgCXFZR34KLBsKNSXJicS4DvAbwB/A5Q6/2mh6EV7d3nOZvuz4479AsoA1Z1BUNug3syAQHmjhMP/kiJ1GoVNF5Ok7mECQFIvCr6/SYrMA8Cn1177PMfN1L8mJxImJ34A/BbwZtLEWAc+IhRxmA7X+t+2r14ZIJqs5d/iDILQ4Fx1EgvW/5cUscP+HSmpF/nGJkmStP++BPzQMEgA3Av8e+BWYKWjZ9qTgfxd9qepMkCNavlnHW/rPxkzCHKfVk4ZoFB8KCRpH4z7LiapF5kAkCRJ2l8bwN/T6YFOKRbpTICHgN8F/pSuKY21x6V+6p2z7Vr+zd7VT8ax6pQBaiNEktSFnMIkqSeZAJAkSdpf95CW/6kYCmmbGWAS+K/AfHGH3YMyQEX3J+SVAdrcmqrl32AGwbYvm635n9UnSYrWEuDnMUk9Z8gQSOo5ISRA2UBIisQXgLsMg1QjXRh4jpvv/BPSWQA3A0f3+DMFdFNN+7r9CZy8eTUASYCQpP8C225s3Woaqn9cPXif5LSpbpds79NmuxBMAkiK1iLOApDUg5wBIKkXVYBpwyApAmvAh4FVQyHlWgb+Avh94MHCj174or27PGdLC/ZSc8d+M7X8251BUNsg+47/waFh5wFIitUczgCQ1IOcASCpF1WA44ZBUgTuBT63dsuN3m0m5UlnAqxy8523kg7O/Ffg3N0ddMdt7W0eps4d+S3NHmimP9Vtau7Wr95d7479Xc0gaHSutN3gyMjmebx0JUWlBMx88xXn+e4lqec4A0BSLyoD9xkGSRH4AnC3YZCaMDmxBvw18FvA9wo9dqcX7S2iPyFvXyu1/LOOV/tNoxkEGe3CqX+Hhg94rUqK0QrwkGGQ1ItMAEjqRRXSATXXAZDUzdaAv9/8g1NSMyYnNoC/AX4D+Cb7cp95p0r9tHHOZgbxGy7aW68dGW3yExBhYIChkRGCRYAkxWeZTpSZk6QuYAJAUs/ZLKVxD7BkNCR1sR9j+R+pdZMTZeAjwK8Bt9N2EqCDd+t3qj8hqwZ/s4P4zfS3hZr/GecaGBxieMQZAJKiNIVlZCX1KBMAknrVj4FZwyCpi32eNFkpqVVpEuAzwK8Cn6PTMwFC2Pvjtj17IOOO/VDz8+qm1e22Pb7ZmQFV5X9GRhgaHvH6lBSjH5CuMyNJPccEgKRedXzzQ5wkdaNV4DZg3VBIbZqcqABfAl4FfIy0BGD7Cqv1H3Zx3FbPGXIG8be+zhvwr509UEwZoANjYwwMDXltSopNhbSs3LKhkNSLTABI6lXzwJ3sS21gSWroLuALlv+RdmlyIiEtA/QK0jU1Sq0dIMIyQJmD7y0O4jc8ftYMgoxjbJs0EBg9eIgQrP8vKTrrwJe++YrzKoZCUi8yASCpJ63dcmMZ+ALeXSupO30OuNcwSAVIkwDfI10Y+N1Aue1jdXrR3iL6E5rpT0Yt/5DVt3ZnENS2CQwMDjJ66DQTAJJi9BDwNcMgqVeZAJDUy74M3G8YJHWZZeCDwJqhkAqSJgF+BLwaeNPevL5aGOjuaGIhYxB/W83/0OAQ7c4g2N5gZHSMA6PjXouSYvQ14G7DIKlXmQCQ1MvuIk0CSFI3+RHwT5b/kQqWJgHuA/4D8HpgpbkHRlgGKISac7Y62M8uZxDsLAM0dugwg9b/lxSfCvAJrP8vqYeZAJDUy1aADwEbhkJSl0iAz5AOUkoqWpoEOA78LvBnwGKhxw/Zi9/mNN7FcZvcV/+g1K/lX/X1LmcQDAwOcfDIkQKTIJK0Zx4C/uGbrzivbCgk9SoTAJJ61totN1aAT5POBJCkbrAIfGDtlhtNTEqdMjmRMDkxC/wh8EfAfEuP79QgdkdnCLRby7/dGQRh23lGxsYZcwFgSXH6J+BbhkFSLzMBIKnX/QD4OOldt5K03+4EPm8YpD0wOTEP/CnwvwMn6jeOsAwQWbMR2qnlX+/4eTMIqg4cAqcdOYPBoWGvOUmxWQX+hqJni0lSlzEBIKmnrd1y4zrwLmDGaEjaZ6XN96MpQyHtkcmJJeAvgd8DHmz6cR1dtLcNWecMzfSnUS3/qq/bmkEAwyMjHDrjDO/+lxSjbwKf+OYrzvNmMUk9zQSApH7wBeBThkHSPvsu8L61W260xqy0lyYnVoE3AL8J3F38Cfaj1n9eGaCsO/bbKO9Tvb/uDILAoSNnMDI65nUmKTZl4J24LpOkPjBkCCT1vjAPvBG4FjhsPCTtg627/39kKKR9MDmxzs13vou03MMfAxdmfF6g6YqBIUCStL6vtc8vjfuzda5t59wanE/qHKpmZkBuf6seGIAkQEg2fxQYGhnm9KPHvPtfUoy+B7yHNBEgST3NGQCSet7aLc9NgH8APmE0JO2TbwNvXrvluSVDIe2TyYkN4L3AbwBfa9i+sFI/+zFDoPb89Wr5V7VraQZB4LQzHsaB8XETAJJisw68Cfie5X8k9QNnAEjqF3PA/wSeCjzccEja4z8ybyVdlFzSfpqcKHPznR8BXkG6QPDjKKxQf5M6OkOg6g79rTv2aWJmQLMzCE4eLjB8YIQjD0/v/k8Sx88kReUO4G3feuX53pghqS84A0BSX9icBfBp4B1AxYhI2kP/CLzdu/+lLjE5UQY+C7x889+ake4CFHZHfGj+XKG6aH8rtfxDE33YvihwGAiccewYI6OjXk+SYrMI/Dlwl6GQ1C9MAEjqJyvA/wC+aSgk7ZETwH8D7jcUUheZnKgAXwFeCXyUvJsDOrpobxv2pAwQOe3Cye/HDp3G4Ycd9TqSFJsE+CDw3m+98nxvCpPUN0wASOobm7MAvg38CbBgRCR1WIm0vuxHNt9/JHWTNAlwJ/Aq4AObr9ld2I9a/1m39+fV8t/6Qcg5RM4Mgpp2Q8PDHD3zTAaHhqz9Lyk23wP+n2+98vxZQyGpn5gAkNRX1m55bgV4N/AWoGxEJHXQZ4G/IJ19JKkbTU4kwHdJkwDvBjb2f9HeHQdqvkmoSQTkDvbXtgkNTpm2CQMDnHHsEYwfOuTgv6TYLAB/TDr7S5L6igkASf384a+m7q8kFeaHwH8Gfuzd/1KXm5xImJy4C/gt4A2kC3efUlipn/1OLOys5Z9bBiirXFAInHbkCEeOHiUM+GekpKiUgL8C3u7Cv5L6kZ/cJPWdzcG4HwG/TzoNVJKKNAv8IfBZB/+lqNy/+dngNcByx89WeGIhZ3C/rTJAO9uNHRzn6JlnMjA46JUiKSYJ6Vov//Vbrzx/0XBI6kcmACT1pc1Buc8Bvws8aEQkFWQZ+HPgrWu3PHfDcEgRSWcCPAT8Jwh/Cux+oKhTZXKyjttiLf/tPwjkJhkCjBwY5RGPfCQjBw5Y+kdSTBLgy8DNwD2GQ1K/MgEgqW+t3fLcEvBe4P8AZoyIpF1aB94I/Le1W567bDikaM0Bf7S5zQEdWLS3maYFDLTXG+zfMTOgpt3mz4eHR3jE2WcxOj7u4L+k2HwHeDVw57deeb6zMiX1LT/BSep7B2760BjwG6SzAQ4bEUltWAPeBPwecGLtNZb+kaJ38x3jJMlLgd8nhGMkdV7WO/Ylze3L3J+3L2l8zmTr36TqZ5Wd+5Kkql3tv5z8fmhoiEc88kxOO/2wg/+SYvM94N8AH/7WK88vGw5J/cwZAJIEq8D/IK3ZPWU4JLVojfTO/9/HwX+pd0xevgzcAuHfka4dlK8ji/buOFDzTerU8t/errbNqXbDIyMO/kuK1XeAf4uD/5LU7KdISeoPB2760CjwQuA/A480IpKasEi6YOgkMOXgv9SDbr5jCHgmSTIJPJ68m6janQWQNHjbaHoWQLL9Z7l3+VP1faXm+/TfAwdGeMRZj2D80EEH/yXFJAG+AvwW8BkH/yUp5ac5Sapy4KYPjQA/DfxfwL80IpLqOA7838Br1l7z3HnDIfWwm+8YIEkuIS3z9bPA6I42e1IGqInj7igDVMke/M8p/zM+PsqxM48xOjbq4L+kmJSBjwH/Afjqt155fsWQSFLKT3SSVOPATR8aBJ5AmgR4JjBsVCRVSYCvA/8FeN/aa567ZkikPnDznYGkchR4OfAq4Ozt7wytDvI3OQugpeM2Owtg56yAEAKHDx/k6LGHMTw8TPBPRUnxWCDwZtLF2+9xwV9J2s5PdZKU4cBNHwrAucBvAi8GjhgVSaRrhrwf+APgzrXXPNep5VK/+fe3HwCeDvx74Bpg5OS+bi0DVDvoX1P2Z3hokIc97AiHTz+NgcEBB/8lxSIBfgD8CfAWAgsO/kvSTn6yk6Q6Dtx02zjwPODfAVcCQ0ZF6ksV0kVA/wfwV2uvueGEIZH6WDob4CzgBcCvAj8BDOxNGaAmZhbsKAOUQFLZsS8EOHhwjKMPO53RUUv+SIrKMvBB4I+Br3zrVeeXDIkkZfMTniQ1cOCm2waA84GbgF8CzvH9U+ors8B7gT8HbgdKa6+5wbvLpH6XJgGGgMtIkpuAnwMesb1RE3frZ+6jwb4mEgt1ywDBgQNDnHH6aZx22kEGBgYc/JcUizLwNeAvgXcCM996lXf9S1I9fsqTpCYduOm2EdJZAC8Hnr/5R77vo1LvmgM+Cbwe+ASw5MC/pEy/89Ux4InAizY/IxwDBtKdXVQGCBgZGuTwaeMcPu0gw8NDDvxLikUJ+D7wNuAtwA+/9arzLcUoSU3w054kteDATbcFYJx0keAXAdeTLgI4YHSknjENfAp4E2kCYM6Bf0kN/c7tAZIx4EpIfh64kXQG4fbygXs1C6Cm1M/I8BCnHRrltEPjjDjwLykeG8B3gHeTDv5//1uvOn/DsEhS8/zUJ0ltOnDTbWPAxcDPkK4TcDFw0PdWKUqrwI+BjwB/C3wJWHDgX1JbfuerIyTJY4DrCPw0CY8jcAYw2PYsgJbWEEi/HhwIjB0Y5tDBUQ6OHWBoaNCBf0kxKAMzwJeB9wC3AXdZ51+S2uOnP0napQM33TZEOtX/KtIZAT9Juhjg6TgzQOpWCbAI3AN8cfMPy89vfr/hwL+kQvzOVwaAwyRcCjwdkmuAS0nLCI6eejvaemfaXRmgEGBwcIADI8OMjw4zPjrCyMgQAyE48C+p220AJ4Bvk5Ze/BjwdWD+W686v2J4JKl9fgqUpAJtJgMeDjwWeBxpqaCLN//QPwoMA4Obm+/BUmclQIX0LrIS6WK+DwHfA/4Z+CrwTeCBtdfcsGa4JHXU73w1kFQOQXgUJBennxOSy4FHk95IcDpJMlT1GSH7JoIkST9AhPQO/8HBAYYGBxgdGebAyBAHRoYYHkoX9XXQX1LXfChLE5iVEMLWZ7MV0gH/e0kX9f0icAfwI2DOQX9JKo6fCCWpQw7cdNsA6YD/aaRJgTOBcza3o8AR34eljloApkgH/e8CHtz8eg5YByre6S9pX/z2lwJhYBCSEQhHIHk48AiS5GzgLOCMzS0ADA0OMBACBBgeHGB4aJCR4XQbHhpM9w+kHykc9JfUjZKkkpAwHQYGHgDuJ511+RBpEmAF2PjWq873c5kkSZIkSZIkSZIkSZIkSZIkSZKkPvX/A5Sxi4l70+w5AAAAAElFTkSuQmCC;aspect=fixed;" vertex="1" parent="1">
          <mxGeometry x="100" y="360" width="71.09" height="40" as="geometry" />
        </mxCell>
        <mxCell id="xdCx_uDlr330pJW8t3d0-8" value="" style="shape=image;verticalLabelPosition=bottom;verticalAlign=top;imageAspect=0;aspect=fixed;image=data:image/svg+xml,PHN2ZyB4bWxucz0iaHR0cDovL3d3dy53My5vcmcvMjAwMC9zdmciIGZpbGw9Im5vbmUiIHZpZXdCb3g9IjAgMCAyNTYgMjU2IiBoZWlnaHQ9IjI1NiIgd2lkdGg9IjI1NiI+JiN4YTs8ZyBjbGlwLXBhdGg9InVybCgjY2xpcDBfMTI2M18xMjQ1OTApIj4mI3hhOzxwYXRoIGZpbGw9InVybCgjcGFpbnQwX2xpbmVhcl8xMjYzXzEyNDU5MCkiIGQ9Ik0xMC40OTYgMTc2LjYzNEw2Ljc0NjY5IDE5MC4zNTZDNS4zNDkzNyAxOTQuNzQ2IDMuMzkyMDUgMjAxLjE5NCAyLjMzNjA2IDIwNi45MzJDMC44MzIwNjkgMjEwLjkgMC4wMTA3NDIyIDIxNS4yMDQgMC4wMTA3NDIyIDIxOS43QzAuMDEwNzQyMiAyMzguMjM5IDE0LjAxNiAyNTMuNTAyIDMyLjAyMTIgMjU1LjQ5N0MzNy4wODc4IDI1Ni4yMjggNDIuODIxMSAyNTYuMTkgNDkuMjQ3NyAyNTUuMjQ2TDc4Ljc3MjggMjUxLjE3MkM4Ni4xOTY3IDI1MC4xNDggOTIuMjkyNyAyNDQuNzg4IDk0LjI2NiAyMzcuNTU2TDExNC41ODYgMTYyLjkyMkwxMC40OTYgMTc2LjYzNFoiIGNsaXAtcnVsZT0iZXZlbm9kZCIgZmlsbC1ydWxlPSJldmVub2RkIi8+JiN4YTs8cGF0aCBmaWxsPSJ1cmwoI3BhaW50MV9saW5lYXJfMTI2M18xMjQ1OTApIiBkPSJNMzkuMjk0MiAxODAuMTdDOC4xNzQ0NCAxODQuOTkxIDEuNzg1MTYgMjA4LjQ3NCAxLjc4NTE2IDIwOC40NzRMMzEuNTg3NiA5OC45NzA4TDE4Ny4zMTQgNzcuOTA0M0wxNjYuMDc3IDE1NS4wNEMxNjQuOTczIDE1OS4xNzMgMTYxLjUwMSAxNjIuMzQxIDE1Ny4xOTcgMTYyLjk5N0wxNTYuMzI4IDE2My4xNDFMMzguNDE5NSAxODAuMzJMMzkuMjk0MiAxODAuMTdaIi8+JiN4YTs8cGF0aCBmaWxsLW9wYWNpdHk9IjAuOCIgZmlsbD0idXJsKCNwYWludDJfbGluZWFyXzEyNjNfMTI0NTkwKSIgZD0iTTM5LjI5NDIgMTgwLjE3QzguMTc0NDQgMTg0Ljk5MSAxLjc4NTE2IDIwOC40NzQgMS43ODUxNiAyMDguNDc0TDMxLjU4NzYgOTguOTcwOEwxODcuMzE0IDc3LjkwNDNMMTY2LjA3NyAxNTUuMDRDMTY0Ljk3MyAxNTkuMTczIDE2MS41MDEgMTYyLjM0MSAxNTcuMTk3IDE2Mi45OTdMMTU2LjMyOCAxNjMuMTQxTDM4LjQxOTUgMTgwLjMyTDM5LjI5NDIgMTgwLjE3WiIvPiYjeGE7PHBhdGggZmlsbD0idXJsKCNwYWludDNfbGluZWFyXzEyNjNfMTI0NTkwKSIgZD0iTTU2Ljk1MzIgMTEwLjMwM0wyMjkuMzUyIDg0LjgzNjdDMjMzLjQ1MyA4NC4yNzY3IDIzNi43NzYgODEuMjc0IDIzNy44MjEgNzcuMzQzNEwyNTUuNjEzIDEyLjk1NDZDMjU1Ljg1OCAxMi4wNzk5IDI1NS45ODYgMTEuMTU3MiAyNTUuOTg2IDEwLjIwNzlDMjU1Ljk4NiA0LjU3MDYzIDI1MS40MjEgMCAyNDUuNzc4IDBDMjQ1LjM0MSAwIDI0NC45MDQgMC4wMjY2NjY1IDI0NC40ODIgMC4wNzk5OTk0TDc5Ljk4MjQgMjQuMzg5MUM2Mi4xMTU4IDI3LjI1ODUgNDcuNjg5MyA0MC40MzcgNDMuMDA2NyA1Ny42MjYyTDE5LjI4NDIgMTQzLjYwNEMyNC4wNDY4IDEyNi4yMTIgMjYuOTc0OCAxMTUuNzI3IDU2Ljk1MzIgMTEwLjMwM1oiLz4mI3hhOzxwYXRoIGZpbGw9InVybCgjcGFpbnQ0X2xpbmVhcl8xMjYzXzEyNDU5MCkiIGQ9Ik01Ni45NTMyIDExMC4zMDNMMjI5LjM1MiA4NC44MzY3QzIzMy40NTMgODQuMjc2NyAyMzYuNzc2IDgxLjI3NCAyMzcuODIxIDc3LjM0MzRMMjU1LjYxMyAxMi45NTQ2QzI1NS44NTggMTIuMDc5OSAyNTUuOTg2IDExLjE1NzIgMjU1Ljk4NiAxMC4yMDc5QzI1NS45ODYgNC41NzA2MyAyNTEuNDIxIDAgMjQ1Ljc3OCAwQzI0NS4zNDEgMCAyNDQuOTA0IDAuMDI2NjY2NSAyNDQuNDgyIDAuMDc5OTk5NEw3OS45ODI0IDI0LjM4OTFDNjIuMTE1OCAyNy4yNTg1IDQ3LjY4OTMgNDAuNDM3IDQzLjAwNjcgNTcuNjI2MkwxOS4yODQyIDE0My42MDRDMjQuMDQ2OCAxMjYuMjEyIDI2Ljk3NDggMTE1LjcyNyA1Ni45NTMyIDExMC4zMDNaIi8+JiN4YTs8cGF0aCBmaWxsPSJ1cmwoI3BhaW50NV9saW5lYXJfMTI2M18xMjQ1OTApIiBkPSJNNTYuOTUzMiAxMTAuMzAzTDIyOS4zNTIgODQuODM2N0MyMzMuNDUzIDg0LjI3NjcgMjM2Ljc3NiA4MS4yNzQgMjM3LjgyMSA3Ny4zNDM0TDI1NS42MTMgMTIuOTU0NkMyNTUuODU4IDEyLjA3OTkgMjU1Ljk4NiAxMS4xNTcyIDI1NS45ODYgMTAuMjA3OUMyNTUuOTg2IDQuNTcwNjMgMjUxLjQyMSAwIDI0NS43NzggMEMyNDUuMzQxIDAgMjQ0LjkwNCAwLjAyNjY2NjUgMjQ0LjQ4MiAwLjA3OTk5OTRMNzkuOTgyNCAyNC4zODkxQzYyLjExNTggMjcuMjU4NSA0Ny42ODkzIDQwLjQzNyA0My4wMDY3IDU3LjYyNjJMMTkuMjg0MiAxNDMuNjA0QzI0LjA0NjggMTI2LjIxMiAyNi45NzQ4IDExNS43MjcgNTYuOTUzMiAxMTAuMzAzWiIvPiYjeGE7PHBhdGggZmlsbD0idXJsKCNwYWludDZfbGluZWFyXzEyNjNfMTI0NTkwKSIgZD0iTTU2Ljk1MzIgMTEwLjMwM0wyMjkuMzUyIDg0LjgzNjdDMjMzLjQ1MyA4NC4yNzY3IDIzNi43NzYgODEuMjc0IDIzNy44MjEgNzcuMzQzNEwyNTUuNjEzIDEyLjk1NDZDMjU1Ljg1OCAxMi4wNzk5IDI1NS45ODYgMTEuMTU3MiAyNTUuOTg2IDEwLjIwNzlDMjU1Ljk4NiA0LjU3MDYzIDI1MS40MjEgMCAyNDUuNzc4IDBDMjQ1LjM0MSAwIDI0NC45MDQgMC4wMjY2NjY1IDI0NC40ODIgMC4wNzk5OTk0TDc5Ljk4MjQgMjQuMzg5MUM2Mi4xMTU4IDI3LjI1ODUgNDcuNjg5MyA0MC40MzcgNDMuMDA2NyA1Ny42MjYyTDE5LjI4NDIgMTQzLjYwNEMyNC4wNDY4IDEyNi4yMTIgMjYuOTc0OCAxMTUuNzI3IDU2Ljk1MzIgMTEwLjMwM1oiLz4mI3hhOzxwYXRoIGZpbGw9InVybCgjcGFpbnQ3X2xpbmVhcl8xMjYzXzEyNDU5MCkiIGQ9Ik01Ni45NTMyIDExMC4zMDNMMjI5LjM1MiA4NC44MzY3QzIzMy40NTMgODQuMjc2NyAyMzYuNzc2IDgxLjI3NCAyMzcuODIxIDc3LjM0MzRMMjU1LjYxMyAxMi45NTQ2QzI1NS44NTggMTIuMDc5OSAyNTUuOTg2IDExLjE1NzIgMjU1Ljk4NiAxMC4yMDc5QzI1NS45ODYgNC41NzA2MyAyNTEuNDIxIDAgMjQ1Ljc3OCAwQzI0NS4zNDEgMCAyNDQuOTA0IDAuMDI2NjY2NSAyNDQuNDgyIDAuMDc5OTk5NEw3OS45ODI0IDI0LjM4OTFDNjIuMTE1OCAyNy4yNTg1IDQ3LjY4OTMgNDAuNDM3IDQzLjAwNjcgNTcuNjI2MkwxOS4yODQyIDE0My42MDRDMjQuMDQ2OCAxMjYuMjEyIDI2Ljk3NDggMTE1LjcyNyA1Ni45NTMyIDExMC4zMDNaIi8+JiN4YTs8cGF0aCBmaWxsPSJ1cmwoI3BhaW50OF9saW5lYXJfMTI2M18xMjQ1OTApIiBkPSJNNTYuOTUzMiAxMTAuMzAzTDIyOS4zNTIgODQuODM2N0MyMzMuNDUzIDg0LjI3NjcgMjM2Ljc3NiA4MS4yNzQgMjM3LjgyMSA3Ny4zNDM0TDI1NS42MTMgMTIuOTU0NkMyNTUuODU4IDEyLjA3OTkgMjU1Ljk4NiAxMS4xNTcyIDI1NS45ODYgMTAuMjA3OUMyNTUuOTg2IDQuNTcwNjMgMjUxLjQyMSAwIDI0NS43NzggMEMyNDUuMzQxIDAgMjQ0LjkwNCAwLjAyNjY2NjUgMjQ0LjQ4MiAwLjA3OTk5OTRMNzkuOTgyNCAyNC4zODkxQzYyLjExNTggMjcuMjU4NSA0Ny42ODkzIDQwLjQzNyA0My4wMDY3IDU3LjYyNjJMMTkuMjg0MiAxNDMuNjA0QzI0LjA0NjggMTI2LjIxMiAyNi45NzQ4IDExNS43MjcgNTYuOTUzMiAxMTAuMzAzWiIvPiYjeGE7PHBhdGggZmlsbC1vcGFjaXR5PSIwLjQiIGZpbGw9InVybCgjcGFpbnQ5X2xpbmVhcl8xMjYzXzEyNDU5MCkiIGQ9Ik01Ni45NTMyIDExMC4zMDNMMjI5LjM1MiA4NC44MzY3QzIzMy40NTMgODQuMjc2NyAyMzYuNzc2IDgxLjI3NCAyMzcuODIxIDc3LjM0MzRMMjU1LjYxMyAxMi45NTQ2QzI1NS44NTggMTIuMDc5OSAyNTUuOTg2IDExLjE1NzIgMjU1Ljk4NiAxMC4yMDc5QzI1NS45ODYgNC41NzA2MyAyNTEuNDIxIDAgMjQ1Ljc3OCAwQzI0NS4zNDEgMCAyNDQuOTA0IDAuMDI2NjY2NSAyNDQuNDgyIDAuMDc5OTk5NEw3OS45ODI0IDI0LjM4OTFDNjIuMTE1OCAyNy4yNTg1IDQ3LjY4OTMgNDAuNDM3IDQzLjAwNjcgNTcuNjI2MkwxOS4yODQyIDE0My42MDRDMjQuMDQ2OCAxMjYuMjEyIDI2Ljk3NDggMTE1LjcyNyA1Ni45NTMyIDExMC4zMDNaIi8+JiN4YTs8cGF0aCBmaWxsPSJ1cmwoI3BhaW50MTBfbGluZWFyXzEyNjNfMTI0NTkwKSIgZD0iTTU2Ljk1MjcgMTEwLjMwOUMzMS45ODc2IDExNC44MjcgMjUuNzkwMyAxMjIuODY5IDIxLjY2MjMgMTM1LjQ3MkwxLjc4NTE2IDIwOC40OUMxLjc4NTE2IDIwOC40OSA4LjEzNzExIDE4NS4yNDIgMzguODc4MiAxODAuMjcxTDE1Ni4zMzMgMTYzLjE2MkwxNTcuMjAzIDE2My4wMThDMTYxLjUwNyAxNjIuMzYyIDE2NC45NzkgMTU5LjE4OSAxNjYuMDgzIDE1NS4wNjFMMTgzLjU1NCA5MS42MDU1TDU2Ljk1ODEgMTEwLjMwOUg1Ni45NTI3WiIvPiYjeGE7PHBhdGggZmlsbC1vcGFjaXR5PSIwLjIiIGZpbGw9InVybCgjcGFpbnQxMV9saW5lYXJfMTI2M18xMjQ1OTApIiBkPSJNNTYuOTUyNyAxMTAuMzA5QzMxLjk4NzYgMTE0LjgyNyAyNS43OTAzIDEyMi44NjkgMjEuNjYyMyAxMzUuNDcyTDEuNzg1MTYgMjA4LjQ5QzEuNzg1MTYgMjA4LjQ5IDguMTM3MTEgMTg1LjI0MiAzOC44NzgyIDE4MC4yNzFMMTU2LjMzMyAxNjMuMTYyTDE1Ny4yMDMgMTYzLjAxOEMxNjEuNTA3IDE2Mi4zNjIgMTY0Ljk3OSAxNTkuMTg5IDE2Ni4wODMgMTU1LjA2MUwxODMuNTU0IDkxLjYwNTVMNTYuOTU4MSAxMTAuMzA5SDU2Ljk1MjdaIi8+JiN4YTs8cGF0aCBmaWxsPSJ1cmwoI3BhaW50MTJfbGluZWFyXzEyNjNfMTI0NTkwKSIgZD0iTTM4Ljg3OTggMTgwLjI3MkMxMi45MDEzIDE4NC40NzUgNC4zNjgwNCAyMDEuNjggMi4zMzYwNiAyMDYuOTIzQzAuODMyMDY5IDIxMC45MDEgMC4wMTA3NDIyIDIxNS4yMDUgMC4wMTA3NDIyIDIxOS43MDFDMC4wMTA3NDIyIDIzOC4yNCAxNC4wMTYgMjUzLjUwNCAzMi4wMjEyIDI1NS40OThDMzcuMDg3OCAyNTYuMjI5IDQyLjgyMTEgMjU2LjE5MiA0OS4yNDc3IDI1NS4yNDhMNzguNzcyOCAyNTEuMTczQzg2LjE5NjcgMjUwLjE0OSA5Mi4yOTI3IDI0NC43ODkgOTQuMjY2IDIzNy41NTdMMTEyLjc4OSAxNjkuNTFMMzguODg1MSAxODAuMjc4TDM4Ljg3OTggMTgwLjI3MloiIGNsaXAtcnVsZT0iZXZlbm9kZCIgZmlsbC1ydWxlPSJldmVub2RkIi8+JiN4YTs8L2c+JiN4YTs8ZGVmcz4mI3hhOzxsaW5lYXJHcmFkaWVudCBncmFkaWVudFVuaXRzPSJ1c2VyU3BhY2VPblVzZSIgeTI9IjE2Mi45MjIiIHgyPSI1Ny4yOTU2IiB5MT0iMjU2LjAwNCIgeDE9IjU3LjI5NTYiIGlkPSJwYWludDBfbGluZWFyXzEyNjNfMTI0NTkwIj4mI3hhOzxzdG9wIHN0b3AtY29sb3I9IiMyQUFDOTQiIG9mZnNldD0iMC4wNTYiLz4mI3hhOzxzdG9wIHN0b3AtY29sb3I9IiMyMzlDODciIG9mZnNldD0iMC4xNTUiLz4mI3hhOzxzdG9wIHN0b3AtY29sb3I9IiMxNzdFNzEiIG9mZnNldD0iMC4zNzIiLz4mI3hhOzxzdG9wIHN0b3AtY29sb3I9IiMwRTY5NjEiIG9mZnNldD0iMC41ODgiLz4mI3hhOzxzdG9wIHN0b3AtY29sb3I9IiMwOTVENTciIG9mZnNldD0iMC43OTkiLz4mI3hhOzxzdG9wIHN0b3AtY29sb3I9IiMwODU5NTQiIG9mZnNldD0iMSIvPiYjeGE7PC9saW5lYXJHcmFkaWVudD4mI3hhOzxsaW5lYXJHcmFkaWVudCBncmFkaWVudFVuaXRzPSJ1c2VyU3BhY2VPblVzZSIgeTI9IjkwLjcwNDIiIHgyPSI4NS4wMzI1IiB5MT0iMTg4LjQ2NSIgeDE9IjE3NC45MTYiIGlkPSJwYWludDFfbGluZWFyXzEyNjNfMTI0NTkwIj4mI3hhOzxzdG9wIHN0b3AtY29sb3I9IiNBQkU4OEUiIG9mZnNldD0iMC4wNDE3NDc4Ii8+JiN4YTs8c3RvcCBzdG9wLWNvbG9yPSIjMkFBQTkyIiBvZmZzZXQ9IjAuNTQ4OTI2Ii8+JiN4YTs8c3RvcCBzdG9wLWNvbG9yPSIjMTE3ODY1IiBvZmZzZXQ9IjAuOTA2Ii8+JiN4YTs8L2xpbmVhckdyYWRpZW50PiYjeGE7PGxpbmVhckdyYWRpZW50IGdyYWRpZW50VW5pdHM9InVzZXJTcGFjZU9uVXNlIiB5Mj0iMTU0LjU0MiIgeDI9IjM5LjU3MTEiIHkxPSIxODMuNzEyIiB4MT0iLTQ1Ljk2NiIgaWQ9InBhaW50Ml9saW5lYXJfMTI2M18xMjQ1OTAiPiYjeGE7PHN0b3Agc3RvcC1jb2xvcj0iIzZBRDZGOSIvPiYjeGE7PHN0b3Agc3RvcC1vcGFjaXR5PSIwIiBzdG9wLWNvbG9yPSIjNkFENkY5IiBvZmZzZXQ9IjEiLz4mI3hhOzwvbGluZWFyR3JhZGllbnQ+JiN4YTs8bGluZWFyR3JhZGllbnQgZ3JhZGllbnRVbml0cz0idXNlclNwYWNlT25Vc2UiIHkyPSI3MS44MDIxIiB4Mj0iMjQ2Ljk2OCIgeTE9IjcxLjgwMjEiIHgxPSIxOS4yODQyIiBpZD0icGFpbnQzX2xpbmVhcl8xMjYzXzEyNDU5MCI+JiN4YTs8c3RvcCBzdG9wLWNvbG9yPSIjMjVGRkQ0IiBvZmZzZXQ9IjAuMDQzIi8+JiN4YTs8c3RvcCBzdG9wLWNvbG9yPSIjNTVEREI5IiBvZmZzZXQ9IjAuODc0Ii8+JiN4YTs8L2xpbmVhckdyYWRpZW50PiYjeGE7PGxpbmVhckdyYWRpZW50IGdyYWRpZW50VW5pdHM9InVzZXJTcGFjZU9uVXNlIiB5Mj0iMTE0LjYxMiIgeDI9IjE1NS43NDciIHkxPSI5LjkwOTI2IiB4MT0iMTA2LjkyMSIgaWQ9InBhaW50NF9saW5lYXJfMTI2M18xMjQ1OTAiPiYjeGE7PHN0b3Agc3RvcC1vcGFjaXR5PSIwLjYiIHN0b3AtY29sb3I9IiNGNEUwODQiLz4mI3hhOzxzdG9wIHN0b3Atb3BhY2l0eT0iMCIgc3RvcC1jb2xvcj0iI0Y0RTA4NCIgb2Zmc2V0PSIwLjUzNCIvPiYjeGE7PC9saW5lYXJHcmFkaWVudD4mI3hhOzxsaW5lYXJHcmFkaWVudCBncmFkaWVudFVuaXRzPSJ1c2VyU3BhY2VPblVzZSIgeTI9IjQ1LjgzNSIgeDI9IjI1My45OCIgeTE9Ii01NS4yNjQxIiB4MT0iMTg4LjE2MiIgaWQ9InBhaW50NV9saW5lYXJfMTI2M18xMjQ1OTAiPiYjeGE7PHN0b3Agc3RvcC1jb2xvcj0iI0FCRjVFMiIvPiYjeGE7PHN0b3Agc3RvcC1jb2xvcj0iIzRFRTZCRCIgb2Zmc2V0PSIxIi8+JiN4YTs8L2xpbmVhckdyYWRpZW50PiYjeGE7PGxpbmVhckdyYWRpZW50IGdyYWRpZW50VW5pdHM9InVzZXJTcGFjZU9uVXNlIiB5Mj0iMTQzLjYwNCIgeDI9IjEzNy42MzUiIHkxPSIwIiB4MT0iMTM3LjYzNSIgaWQ9InBhaW50Nl9saW5lYXJfMTI2M18xMjQ1OTAiPiYjeGE7PHN0b3Agc3RvcC1jb2xvcj0iIzFGOTM3RSIvPiYjeGE7PHN0b3Agc3RvcC1jb2xvcj0iIzlFRTA5RiIgb2Zmc2V0PSIxIi8+JiN4YTs8L2xpbmVhckdyYWRpZW50PiYjeGE7PGxpbmVhckdyYWRpZW50IGdyYWRpZW50VW5pdHM9InVzZXJTcGFjZU9uVXNlIiB5Mj0iMTQzLjYwNCIgeDI9IjEzNy42MzUiIHkxPSIwIiB4MT0iMTM3LjYzNSIgaWQ9InBhaW50N19saW5lYXJfMTI2M18xMjQ1OTAiPiYjeGE7PHN0b3Agc3RvcC1jb2xvcj0iIzFGOTM3RSIvPiYjeGE7PHN0b3Agc3RvcC1jb2xvcj0iI0MwRUNDNyIgb2Zmc2V0PSIxIi8+JiN4YTs8L2xpbmVhckdyYWRpZW50PiYjeGE7PGxpbmVhckdyYWRpZW50IGdyYWRpZW50VW5pdHM9InVzZXJTcGFjZU9uVXNlIiB5Mj0iMTM1LjIxNiIgeDI9IjIyNC4zODIiIHkxPSIzOS45NzgzIiB4MT0iMTkuMjg0MiIgaWQ9InBhaW50OF9saW5lYXJfMTI2M18xMjQ1OTAiPiYjeGE7PHN0b3Agc3RvcC1jb2xvcj0iIzZBRDZGOSIvPiYjeGE7PHN0b3Agc3RvcC1jb2xvcj0iIzYwRTlEMCIgb2Zmc2V0PSIwLjIyOTUwMSIvPiYjeGE7PHN0b3Agc3RvcC1jb2xvcj0iIzZERTlCQiIgb2Zmc2V0PSIwLjY1MDcxMSIvPiYjeGE7PHN0b3Agc3RvcC1jb2xvcj0iI0FCRTg4RSIgb2Zmc2V0PSIwLjk5MzU0Ii8+JiN4YTs8L2xpbmVhckdyYWRpZW50PiYjeGE7PGxpbmVhckdyYWRpZW50IGdyYWRpZW50VW5pdHM9InVzZXJTcGFjZU9uVXNlIiB5Mj0iODIuNDY2IiB4Mj0iMTQ5Ljc4MSIgeTE9IjU3LjgiIHgxPSIzOC4yNTgiIGlkPSJwYWludDlfbGluZWFyXzEyNjNfMTI0NTkwIj4mI3hhOzxzdG9wIHN0b3Atb3BhY2l0eT0iMCIgc3RvcC1jb2xvcj0id2hpdGUiLz4mI3hhOzxzdG9wIHN0b3AtY29sb3I9IndoaXRlIiBvZmZzZXQ9IjAuNDU4NTExIi8+JiN4YTs8c3RvcCBzdG9wLW9wYWNpdHk9IjAiIHN0b3AtY29sb3I9IndoaXRlIiBvZmZzZXQ9IjEiLz4mI3hhOzwvbGluZWFyR3JhZGllbnQ+JiN4YTs8bGluZWFyR3JhZGllbnQgZ3JhZGllbnRVbml0cz0idXNlclNwYWNlT25Vc2UiIHkyPSI3NS4xMzI4IiB4Mj0iNzcuODcyMiIgeTE9IjE1My4zNDEiIHgxPSI3NS4yMzciIGlkPSJwYWludDEwX2xpbmVhcl8xMjYzXzEyNDU5MCI+JiN4YTs8c3RvcCBzdG9wLW9wYWNpdHk9IjAiIHN0b3AtY29sb3I9IiMwNjNEM0IiIG9mZnNldD0iMC4yMDQ2NDIiLz4mI3hhOzxzdG9wIHN0b3Atb3BhY2l0eT0iMC4yMzY1ODciIHN0b3AtY29sb3I9IiMwNjNEM0IiIG9mZnNldD0iMC41ODU1MyIvPiYjeGE7PHN0b3Agc3RvcC1vcGFjaXR5PSIwLjc1IiBzdG9wLWNvbG9yPSIjMDYzRDNCIiBvZmZzZXQ9IjAuODcyMjg1Ii8+JiN4YTs8L2xpbmVhckdyYWRpZW50PiYjeGE7PGxpbmVhckdyYWRpZW50IGdyYWRpZW50VW5pdHM9InVzZXJTcGFjZU9uVXNlIiB5Mj0iMTYzLjQ4NyIgeDI9Ijg3LjY4NjEiIHkxPSIxNDUuNTYzIiB4MT0iLTcuNjE3OTciIGlkPSJwYWludDExX2xpbmVhcl8xMjYzXzEyNDU5MCI+JiN4YTs8c3RvcCBzdG9wLW9wYWNpdHk9IjAiIHN0b3AtY29sb3I9IndoaXRlIi8+JiN4YTs8c3RvcCBzdG9wLWNvbG9yPSJ3aGl0ZSIgb2Zmc2V0PSIwLjQ1ODUxMSIvPiYjeGE7PHN0b3Agc3RvcC1vcGFjaXR5PSIwIiBzdG9wLWNvbG9yPSJ3aGl0ZSIgb2Zmc2V0PSIxIi8+JiN4YTs8L2xpbmVhckdyYWRpZW50PiYjeGE7PGxpbmVhckdyYWRpZW50IGdyYWRpZW50VW5pdHM9InVzZXJTcGFjZU9uVXNlIiB5Mj0iMTM5LjI5MiIgeDI9IjQyLjYzNTkiIHkxPSIyMzAuMjEzIiB4MT0iNjEuMjI2MyIgaWQ9InBhaW50MTJfbGluZWFyXzEyNjNfMTI0NTkwIj4mI3hhOzxzdG9wIHN0b3Atb3BhY2l0eT0iMCIgc3RvcC1jb2xvcj0iIzA2M0QzQiIgb2Zmc2V0PSIwLjA2NCIvPiYjeGE7PHN0b3Agc3RvcC1vcGFjaXR5PSIwLjEzNSIgc3RvcC1jb2xvcj0iIzA2M0QzQiIgb2Zmc2V0PSIwLjE3Ii8+JiN4YTs8c3RvcCBzdG9wLW9wYWNpdHk9IjAuNTk5IiBzdG9wLWNvbG9yPSIjMDYzRDNCIiBvZmZzZXQ9IjAuNTYyIi8+JiN4YTs8c3RvcCBzdG9wLW9wYWNpdHk9IjAuOSIgc3RvcC1jb2xvcj0iIzA2M0QzQiIgb2Zmc2V0PSIwLjg1Ii8+JiN4YTs8c3RvcCBzdG9wLWNvbG9yPSIjMDYzRDNCIiBvZmZzZXQ9IjEiLz4mI3hhOzwvbGluZWFyR3JhZGllbnQ+JiN4YTs8Y2xpcFBhdGggaWQ9ImNsaXAwXzEyNjNfMTI0NTkwIj4mI3hhOzxyZWN0IGZpbGw9IndoaXRlIiBoZWlnaHQ9IjI1NS45OTgiIHdpZHRoPSIyNTUuOTk4Ii8+JiN4YTs8L2NsaXBQYXRoPiYjeGE7PC9kZWZzPiYjeGE7PC9zdmc+" vertex="1" parent="1">
          <mxGeometry x="115.55000000000001" y="120" width="40" height="40" as="geometry" />
        </mxCell>
        <mxCell id="xdCx_uDlr330pJW8t3d0-11" value="EDW WH" style="shape=image;verticalLabelPosition=bottom;verticalAlign=top;imageAspect=0;image=data:image/svg+xml,PHN2ZyB4bWxucz0iaHR0cDovL3d3dy53My5vcmcvMjAwMC9zdmciIGZpbGw9Im5vbmUiIHZpZXdCb3g9IjAgMCAzMiAzMyIgaGVpZ2h0PSIzMyIgd2lkdGg9IjMyIj4mI3hhOzxwYXRoIGZpbGw9ImJsYWNrIiBkPSJNMTUuMTkwNCA1LjI4NTg1QzE1LjY1NzIgNC44ODkwOSAxNi4zNDI4IDQuODg5MDkgMTYuODA5NiA1LjI4NTg2TDI2LjU1OTYgMTMuNTczM0MyNi44MzkgMTMuODEwOCAyNyAxNC4xNTkgMjcgMTQuNTI1N1YyNi43NDAyQzI3IDI3LjQyNzggMjYuNDQyNiAyNy45ODUyIDI1Ljc1NSAyNy45ODUySDYuMjQ1QzUuNTU3NCAyNy45ODUyIDUgMjcuNDI3OCA1IDI2Ljc0MDJWMTQuNTI1N0M1IDE0LjE1OSA1LjE2MTAzIDEzLjgxMDggNS40NDA0NCAxMy41NzMzTDE1LjE5MDQgNS4yODU4NVpNMTguMTA0OSAzLjc2MTk3QzE2Ljg5MTIgMi43MzAzOSAxNS4xMDg4IDIuNzMwMzggMTMuODk1MiAzLjc2MTk3TDQuMTQ1MTUgMTIuMDQ5NEMzLjQxODY4IDEyLjY2NjkgMyAxMy41NzIzIDMgMTQuNTI1N1YyNi43NDAyQzMgMjguNTMyNCA0LjQ1MjgzIDI5Ljk4NTIgNi4yNDUgMjkuOTg1MkgyNS43NTVDMjcuNTQ3MiAyOS45ODUyIDI5IDI4LjUzMjQgMjkgMjYuNzQwMlYxNC41MjU3QzI5IDEzLjU3MjMgMjguNTgxMyAxMi42NjY5IDI3Ljg1NDkgMTIuMDQ5NEwxOC4xMDQ5IDMuNzYxOTdaTTEyIDE3LjQ4NTJDMTIgMTguMzEzNyAxMS4zMjg0IDE4Ljk4NTIgMTAuNSAxOC45ODUyQzkuNjcxNTcgMTguOTg1MiA5IDE4LjMxMzcgOSAxNy40ODUyQzkgMTYuNjU2OCA5LjY3MTU3IDE1Ljk4NTIgMTAuNSAxNS45ODUyQzExLjMyODQgMTUuOTg1MiAxMiAxNi42NTY4IDEyIDE3LjQ4NTJaTTEwLjUgMjMuOTg1MkMxMS4zMjg0IDIzLjk4NTIgMTIgMjMuMzEzNyAxMiAyMi40ODUyQzEyIDIxLjY1NjggMTEuMzI4NCAyMC45ODUyIDEwLjUgMjAuOTg1MkM5LjY3MTU3IDIwLjk4NTIgOSAyMS42NTY4IDkgMjIuNDg1MkM5IDIzLjMxMzcgOS42NzE1NyAyMy45ODUyIDEwLjUgMjMuOTg1MlpNMTYgMjMuOTg1MkMxNi44Mjg0IDIzLjk4NTIgMTcuNSAyMy4zMTM3IDE3LjUgMjIuNDg1MkMxNy41IDIxLjY1NjggMTYuODI4NCAyMC45ODUyIDE2IDIwLjk4NTJDMTUuMTcxNiAyMC45ODUyIDE0LjUgMjEuNjU2OCAxNC41IDIyLjQ4NTJDMTQuNSAyMy4zMTM3IDE1LjE3MTYgMjMuOTg1MiAxNiAyMy45ODUyWk0xNiAxOC45ODUyQzE2LjgyODQgMTguOTg1MiAxNy41IDE4LjMxMzcgMTcuNSAxNy40ODUyQzE3LjUgMTYuNjU2OCAxNi44Mjg0IDE1Ljk4NTIgMTYgMTUuOTg1MkMxNS4xNzE2IDE1Ljk4NTIgMTQuNSAxNi42NTY4IDE0LjUgMTcuNDg1MkMxNC41IDE4LjMxMzcgMTUuMTcxNiAxOC45ODUyIDE2IDE4Ljk4NTJaTTIxLjUgMTguOTg1MkMyMi4zMjg0IDE4Ljk4NTIgMjMgMTguMzEzNyAyMyAxNy40ODUyQzIzIDE2LjY1NjggMjIuMzI4NCAxNS45ODUyIDIxLjUgMTUuOTg1MkMyMC42NzE2IDE1Ljk4NTIgMjAgMTYuNjU2OCAyMCAxNy40ODUyQzIwIDE4LjMxMzcgMjAuNjcxNiAxOC45ODUyIDIxLjUgMTguOTg1MlpNMjEuNSAyMy45ODUyQzIyLjMyODQgMjMuOTg1MiAyMyAyMy4zMTM3IDIzIDIyLjQ4NTJDMjMgMjEuNjU2OCAyMi4zMjg0IDIwLjk4NTIgMjEuNSAyMC45ODUyQzIwLjY3MTYgMjAuOTg1MiAyMCAyMS42NTY4IDIwIDIyLjQ4NTJDMjAgMjMuMzEzNyAyMC42NzE2IDIzLjk4NTIgMjEuNSAyMy45ODUyWiIvPiYjeGE7PC9zdmc+;fontSize=8;aspect=fixed;" vertex="1" parent="1">
          <mxGeometry x="381.93999999999994" y="237" width="34.91" height="36" as="geometry" />
        </mxCell>
        <mxCell id="xdCx_uDlr330pJW8t3d0-30" style="rounded=0;orthogonalLoop=1;jettySize=auto;html=1;exitX=1;exitY=0;exitDx=0;exitDy=0;" edge="1" parent="1" source="xdCx_uDlr330pJW8t3d0-14">
          <mxGeometry relative="1" as="geometry">
            <mxPoint x="371" y="120" as="targetPoint" />
            <mxPoint x="330.5" y="171" as="sourcePoint" />
          </mxGeometry>
        </mxCell>
        <mxCell id="xdCx_uDlr330pJW8t3d0-14" value="Shortcuts" style="shape=image;verticalLabelPosition=bottom;verticalAlign=top;imageAspect=0;aspect=fixed;image=data:image/svg+xml,PHN2ZyB4bWxucz0iaHR0cDovL3d3dy53My5vcmcvMjAwMC9zdmciIGZpbGw9Im5vbmUiIHZpZXdCb3g9IjAgMCAzMiAzMyIgaGVpZ2h0PSIzMyIgd2lkdGg9IjMyIj4mI3hhOzxwYXRoIGZpbGw9ImJsYWNrIiBkPSJNMiAxNi42NTYzQzIgMTIuNzkwMyA1LjEzNDAxIDkuNjU2MzEgOSA5LjY1NjMxSDEzQzEzLjU1MjMgOS42NTYzMSAxNCAxMC4xMDQgMTQgMTAuNjU2M0MxNCAxMS4yMDg2IDEzLjU1MjMgMTEuNjU2MyAxMyAxMS42NTYzSDlDNi4yMzg1OCAxMS42NTYzIDQgMTMuODk0OSA0IDE2LjY1NjNDNCAxOS40MTc3IDYuMjM4NTggMjEuNjU2MyA5IDIxLjY1NjNIMTNDMTMuNTUyMyAyMS42NTYzIDE0IDIyLjEwNCAxNCAyMi42NTYzQzE0IDIzLjIwODYgMTMuNTUyMyAyMy42NTYzIDEzIDIzLjY1NjNIOUM1LjEzNDAxIDIzLjY1NjMgMiAyMC41MjIzIDIgMTYuNjU2M1pNMzAgMTYuNjU2M0MzMCAxMi43OTAzIDI2Ljg2NiA5LjY1NjMxIDIzIDkuNjU2MzFIMTlDMTguNDQ3NyA5LjY1NjMxIDE4IDEwLjEwNCAxOCAxMC42NTYzQzE4IDExLjIwODYgMTguNDQ3NyAxMS42NTYzIDE5IDExLjY1NjNIMjNDMjUuNzYxNCAxMS42NTYzIDI4IDEzLjg5NDkgMjggMTYuNjU2M0MyOCAxOS40MTc3IDI1Ljc2MTQgMjEuNjU2MyAyMyAyMS42NTYzSDE5QzE4LjQ0NzcgMjEuNjU2MyAxOCAyMi4xMDQgMTggMjIuNjU2M0MxOCAyMy4yMDg2IDE4LjQ0NzcgMjMuNjU2MyAxOSAyMy42NTYzSDIzQzI2Ljg2NiAyMy42NTYzIDMwIDIwLjUyMjMgMzAgMTYuNjU2M1pNOS41IDE1LjY1NjNDOC45NDc3MiAxNS42NTYzIDguNSAxNi4xMDQgOC41IDE2LjY1NjNDOC41IDE3LjIwODYgOC45NDc3MiAxNy42NTYzIDkuNSAxNy42NTYzSDIyLjVDMjMuMDUyMyAxNy42NTYzIDIzLjUgMTcuMjA4NiAyMy41IDE2LjY1NjNDMjMuNSAxNi4xMDQgMjMuMDUyMyAxNS42NTYzIDIyLjUgMTUuNjU2M0g5LjVaIi8+JiN4YTs8L3N2Zz4=;fontSize=8;" vertex="1" parent="1">
          <mxGeometry x="293" y="160" width="32" height="33" as="geometry" />
        </mxCell>
        <mxCell id="xdCx_uDlr330pJW8t3d0-15" value="extract_from_synapse" style="shape=image;verticalLabelPosition=bottom;verticalAlign=top;imageAspect=0;aspect=fixed;image=data:image/svg+xml,PHN2ZyB4bWxucz0iaHR0cDovL3d3dy53My5vcmcvMjAwMC9zdmciIGZpbGw9Im5vbmUiIHZpZXdCb3g9IjAgMCAzMiAzMyIgaGVpZ2h0PSIzMyIgd2lkdGg9IjMyIj4mI3hhOzxwYXRoIGZpbGw9ImJsYWNrIiBkPSJNMiA5LjMyODEyQzIgNy42NzEyNyAzLjM0MzE1IDYuMzI4MTIgNSA2LjMyODEyQzYuNjU2ODUgNi4zMjgxMiA4IDcuNjcxMjcgOCA5LjMyODEzTDI0IDkuMzI4MTJDMjQgNy42NzEyNyAyNS4zNDMxIDYuMzI4MTIgMjcgNi4zMjgxMkMyOC42NTY5IDYuMzI4MTIgMzAgNy42NzEyNyAzMCA5LjMyODEzVjIzLjMyODFDMzAgMjQuOTg1IDI4LjY1NjkgMjYuMzI4MSAyNyAyNi4zMjgxQzI1LjM0MzEgMjYuMzI4MSAyNCAyNC45ODUgMjQgMjMuMzI4MUg4QzggMjQuOTg1IDYuNjU2ODUgMjYuMzI4MSA1IDI2LjMyODFDMy4zNDMxNSAyNi4zMjgxIDIgMjQuOTg1IDIgMjMuMzI4MVY5LjMyODEyWk02IDkuMzI4MTNDNiA4Ljc3NTg0IDUuNTUyMjggOC4zMjgxMiA1IDguMzI4MTJDNC40NDc3MSA4LjMyODEyIDQgOC43NzU4NCA0IDkuMzI4MTJWMjMuMzI4MUM0IDIzLjg4MDQgNC40NDc3MiAyNC4zMjgxIDUgMjQuMzI4MUM1LjU1MjI5IDI0LjMyODEgNiAyMy44ODA0IDYgMjMuMzI4MVY5LjMyODEzWk04IDIxLjMyODFMMjQgMjEuMzI4MVYxMS4zMjgxTDggMTEuMzI4MVYyMS4zMjgxWk0yOCA5LjMyODEzQzI4IDguNzc1ODQgMjcuNTUyMyA4LjMyODEyIDI3IDguMzI4MTJDMjYuNDQ3NyA4LjMyODEyIDI2IDguNzc1ODQgMjYgOS4zMjgxMlYyMy4zMjgxQzI2IDIzLjg4MDQgMjYuNDQ3NyAyNC4zMjgxIDI3IDI0LjMyODFDMjcuNTUyMyAyNC4zMjgxIDI4IDIzLjg4MDQgMjggMjMuMzI4MVY5LjMyODEzWiIvPiYjeGE7PC9zdmc+;fontSize=8;" vertex="1" parent="1">
          <mxGeometry x="210" y="240" width="32" height="33" as="geometry" />
        </mxCell>
        <mxCell id="xdCx_uDlr330pJW8t3d0-37" style="edgeStyle=orthogonalEdgeStyle;rounded=0;orthogonalLoop=1;jettySize=auto;html=1;startArrow=classic;startFill=1;" edge="1" parent="1">
          <mxGeometry relative="1" as="geometry">
            <mxPoint x="463.14" y="156" as="targetPoint" />
            <mxPoint x="463.14" y="136" as="sourcePoint" />
          </mxGeometry>
        </mxCell>
        <mxCell id="xdCx_uDlr330pJW8t3d0-17" value="load_to_lh_tables" style="shape=image;verticalLabelPosition=bottom;verticalAlign=top;imageAspect=0;aspect=fixed;image=data:image/svg+xml,PHN2ZyB4bWxucz0iaHR0cDovL3d3dy53My5vcmcvMjAwMC9zdmciIGZpbGw9Im5vbmUiIHZpZXdCb3g9IjAgMCAzMiAzMyIgaGVpZ2h0PSIzMyIgd2lkdGg9IjMyIj4mI3hhOzxwYXRoIGZpbGw9ImJsYWNrIiBkPSJNOCA3LjkzNzU2QzggNy4xMDkxMyA4LjY3MTU3IDYuNDM3NTYgOS41IDYuNDM3NTZIMjEuNUMyMi4zMjg0IDYuNDM3NTYgMjMgNy4xMDkxMyAyMyA3LjkzNzU2VjEwLjkzNzZDMjMgMTEuNzY2IDIyLjMyODQgMTIuNDM3NiAyMS41IDEyLjQzNzZIOS41QzguNjcxNTcgMTIuNDM3NiA4IDExLjc2NiA4IDEwLjkzNzZWNy45Mzc1NlpNMTAgOC40Mzc1NlYxMC40Mzc2SDIxVjguNDM3NTZIMTBaTTQgNS42ODc1NkM0IDMuODkyNjMgNS40NTUwOCAyLjQzNzU2IDcuMjUgMi40Mzc1NkgyMy43NUMyNS41NDQ5IDIuNDM3NTYgMjcgMy44OTI2NCAyNyA1LjY4NzU2VjI3LjE4NzZDMjcgMjguOTgyNSAyNS41NDQ5IDMwLjQzNzYgMjMuNzUgMzAuNDM3Nkg3LjI1QzUuNDU1MDcgMzAuNDM3NiA0IDI4Ljk4MjUgNCAyNy4xODc2VjUuNjg3NTZaTTcuMjUgNC40Mzc1NkM2LjU1OTY0IDQuNDM3NTYgNiA0Ljk5NzIgNiA1LjY4NzU2VjI3LjE4NzZDNiAyNy44Nzc5IDYuNTU5NjQgMjguNDM3NiA3LjI1IDI4LjQzNzZIMjMuNzVDMjQuNDQwNCAyOC40Mzc2IDI1IDI3Ljg3NzkgMjUgMjcuMTg3NlY1LjY4NzU2QzI1IDQuOTk3MjEgMjQuNDQwNCA0LjQzNzU2IDIzLjc1IDQuNDM3NTZINy4yNVpNMjkuMjUgOC40Mzc1NkgyOFYxMi40Mzc2SDI5LjI1QzI5LjY2NDIgMTIuNDM3NiAzMCAxMi4xMDE4IDMwIDExLjY4NzZWOS4xODc1NkMzMCA4Ljc3MzM1IDI5LjY2NDIgOC40Mzc1NiAyOS4yNSA4LjQzNzU2Wk0yOCAxNC40Mzc2SDI5LjI1QzI5LjY2NDIgMTQuNDM3NiAzMCAxNC43NzMzIDMwIDE1LjE4NzZWMTcuNjg3NkMzMCAxOC4xMDE4IDI5LjY2NDIgMTguNDM3NiAyOS4yNSAxOC40Mzc2SDI4VjE0LjQzNzZaTTI5LjI1IDIwLjQzNzZIMjhWMjQuNDM3NkgyOS4yNUMyOS42NjQyIDI0LjQzNzYgMzAgMjQuMTAxOCAzMCAyMy42ODc2VjIxLjE4NzZDMzAgMjAuNzczMyAyOS42NjQyIDIwLjQzNzYgMjkuMjUgMjAuNDM3NloiLz4mI3hhOzwvc3ZnPg==;fontSize=8;" vertex="1" parent="1">
          <mxGeometry x="448.48999999999995" y="81" width="32" height="33" as="geometry" />
        </mxCell>
        <mxCell id="xdCx_uDlr330pJW8t3d0-18" style="edgeStyle=orthogonalEdgeStyle;rounded=0;orthogonalLoop=1;jettySize=auto;html=1;fontSize=8;startArrow=classic;startFill=1;" edge="1" parent="1">
          <mxGeometry relative="1" as="geometry">
            <mxPoint x="226" y="360" as="targetPoint" />
            <mxPoint x="226" y="300" as="sourcePoint" />
          </mxGeometry>
        </mxCell>
        <mxCell id="xdCx_uDlr330pJW8t3d0-19" value="&lt;font style=&quot;font-size: 8px;&quot;&gt;CETAS&lt;/font&gt;" style="edgeLabel;html=1;align=center;verticalAlign=middle;resizable=0;points=[];" vertex="1" connectable="0" parent="xdCx_uDlr330pJW8t3d0-18">
          <mxGeometry x="-0.2122" y="-2" relative="1" as="geometry">
            <mxPoint as="offset" />
          </mxGeometry>
        </mxCell>
        <mxCell id="xdCx_uDlr330pJW8t3d0-20" style="rounded=0;orthogonalLoop=1;jettySize=auto;html=1;fontSize=8;startArrow=classic;startFill=1;" edge="1" parent="1">
          <mxGeometry relative="1" as="geometry">
            <mxPoint x="225.71" y="244" as="targetPoint" />
            <mxPoint x="226" y="130" as="sourcePoint" />
          </mxGeometry>
        </mxCell>
        <mxCell id="xdCx_uDlr330pJW8t3d0-22" style="edgeStyle=orthogonalEdgeStyle;rounded=0;orthogonalLoop=1;jettySize=auto;html=1;fontSize=8;" edge="1" parent="1">
          <mxGeometry relative="1" as="geometry">
            <mxPoint x="310" y="210" as="targetPoint" />
            <mxPoint x="310" y="360" as="sourcePoint" />
          </mxGeometry>
        </mxCell>
        <mxCell id="xdCx_uDlr330pJW8t3d0-32" value="load_to_lh_tables" style="shape=image;verticalLabelPosition=bottom;verticalAlign=top;imageAspect=0;aspect=fixed;image=data:image/svg+xml,PHN2ZyB4bWxucz0iaHR0cDovL3d3dy53My5vcmcvMjAwMC9zdmciIGZpbGw9Im5vbmUiIHZpZXdCb3g9IjAgMCAzMiAzMyIgaGVpZ2h0PSIzMyIgd2lkdGg9IjMyIj4mI3hhOzxwYXRoIGZpbGw9ImJsYWNrIiBkPSJNOCA3LjkzNzU2QzggNy4xMDkxMyA4LjY3MTU3IDYuNDM3NTYgOS41IDYuNDM3NTZIMjEuNUMyMi4zMjg0IDYuNDM3NTYgMjMgNy4xMDkxMyAyMyA3LjkzNzU2VjEwLjkzNzZDMjMgMTEuNzY2IDIyLjMyODQgMTIuNDM3NiAyMS41IDEyLjQzNzZIOS41QzguNjcxNTcgMTIuNDM3NiA4IDExLjc2NiA4IDEwLjkzNzZWNy45Mzc1NlpNMTAgOC40Mzc1NlYxMC40Mzc2SDIxVjguNDM3NTZIMTBaTTQgNS42ODc1NkM0IDMuODkyNjMgNS40NTUwOCAyLjQzNzU2IDcuMjUgMi40Mzc1NkgyMy43NUMyNS41NDQ5IDIuNDM3NTYgMjcgMy44OTI2NCAyNyA1LjY4NzU2VjI3LjE4NzZDMjcgMjguOTgyNSAyNS41NDQ5IDMwLjQzNzYgMjMuNzUgMzAuNDM3Nkg3LjI1QzUuNDU1MDcgMzAuNDM3NiA0IDI4Ljk4MjUgNCAyNy4xODc2VjUuNjg3NTZaTTcuMjUgNC40Mzc1NkM2LjU1OTY0IDQuNDM3NTYgNiA0Ljk5NzIgNiA1LjY4NzU2VjI3LjE4NzZDNiAyNy44Nzc5IDYuNTU5NjQgMjguNDM3NiA3LjI1IDI4LjQzNzZIMjMuNzVDMjQuNDQwNCAyOC40Mzc2IDI1IDI3Ljg3NzkgMjUgMjcuMTg3NlY1LjY4NzU2QzI1IDQuOTk3MjEgMjQuNDQwNCA0LjQzNzU2IDIzLjc1IDQuNDM3NTZINy4yNVpNMjkuMjUgOC40Mzc1NkgyOFYxMi40Mzc2SDI5LjI1QzI5LjY2NDIgMTIuNDM3NiAzMCAxMi4xMDE4IDMwIDExLjY4NzZWOS4xODc1NkMzMCA4Ljc3MzM1IDI5LjY2NDIgOC40Mzc1NiAyOS4yNSA4LjQzNzU2Wk0yOCAxNC40Mzc2SDI5LjI1QzI5LjY2NDIgMTQuNDM3NiAzMCAxNC43NzMzIDMwIDE1LjE4NzZWMTcuNjg3NkMzMCAxOC4xMDE4IDI5LjY2NDIgMTguNDM3NiAyOS4yNSAxOC40Mzc2SDI4VjE0LjQzNzZaTTI5LjI1IDIwLjQzNzZIMjhWMjQuNDM3NkgyOS4yNUMyOS42NjQyIDI0LjQzNzYgMzAgMjQuMTAxOCAzMCAyMy42ODc2VjIxLjE4NzZDMzAgMjAuNzczMyAyOS42NjQyIDIwLjQzNzYgMjkuMjUgMjAuNDM3NloiLz4mI3hhOzwvc3ZnPg==;fontSize=8;" vertex="1" parent="1">
          <mxGeometry x="447.03" y="237" width="32" height="33" as="geometry" />
        </mxCell>
        <mxCell id="xdCx_uDlr330pJW8t3d0-33" style="rounded=0;orthogonalLoop=1;jettySize=auto;html=1;exitX=1;exitY=0;exitDx=0;exitDy=0;" edge="1" parent="1">
          <mxGeometry relative="1" as="geometry">
            <mxPoint x="371" y="228.5" as="targetPoint" />
            <mxPoint x="325" y="188.5" as="sourcePoint" />
          </mxGeometry>
        </mxCell>
        <mxCell id="xdCx_uDlr330pJW8t3d0-34" style="edgeStyle=orthogonalEdgeStyle;rounded=0;orthogonalLoop=1;jettySize=auto;html=1;entryX=1.018;entryY=0.615;entryDx=0;entryDy=0;entryPerimeter=0;exitX=0.5;exitY=0;exitDx=0;exitDy=0;" edge="1" parent="1" source="xdCx_uDlr330pJW8t3d0-2" target="xdCx_uDlr330pJW8t3d0-4">
          <mxGeometry relative="1" as="geometry" />
        </mxCell>
        <mxCell id="xdCx_uDlr330pJW8t3d0-39" style="edgeStyle=orthogonalEdgeStyle;rounded=0;orthogonalLoop=1;jettySize=auto;html=1;startArrow=classic;startFill=1;" edge="1" parent="1">
          <mxGeometry relative="1" as="geometry">
            <mxPoint x="445.58" y="97.4" as="targetPoint" />
            <mxPoint x="420" y="97.4" as="sourcePoint" />
          </mxGeometry>
        </mxCell>
        <mxCell id="xdCx_uDlr330pJW8t3d0-40" style="edgeStyle=orthogonalEdgeStyle;rounded=0;orthogonalLoop=1;jettySize=auto;html=1;startArrow=classic;startFill=1;" edge="1" parent="1">
          <mxGeometry relative="1" as="geometry">
            <mxPoint x="462.14" y="233" as="targetPoint" />
            <mxPoint x="462.14" y="213" as="sourcePoint" />
          </mxGeometry>
        </mxCell>
        <mxCell id="xdCx_uDlr330pJW8t3d0-42" style="edgeStyle=orthogonalEdgeStyle;rounded=0;orthogonalLoop=1;jettySize=auto;html=1;startArrow=classic;startFill=1;" edge="1" parent="1">
          <mxGeometry relative="1" as="geometry">
            <mxPoint x="445.58" y="253.42000000000002" as="targetPoint" />
            <mxPoint x="420" y="253.42000000000002" as="sourcePoint" />
          </mxGeometry>
        </mxCell>
      </root>
    </mxGraphModel>
  </diagram>
</mxfile>
